0
SECTION
2
HEADER
9
$INSUNITS
70
4
9
$ACADVER
1
AC1014
9
$HANDSEED
5
FFFF
0
ENDSEC
0
SECTION
2
TABLES
0
TABLE
2
VPORT
5
8
100
AcDbSymbolTable
0
ENDTAB
0
TABLE
2
LTYPE
5
5
100
AcDbSymbolTable
0
LTYPE
5
14
100
AcDbSymbolTableRecord
100
AcDbLinetypeTableRecord
2
BYBLOCK
70
0
0
LTYPE
5
15
100
AcDbSymbolTableRecord
100
AcDbLinetypeTableRecord
2
BYLAYER
70
0
0
ENDTAB
0
TABLE
2
LAYER
5
2
100
AcDbSymbolTable
70
2
0
LAYER
5
50
100
AcDbSymbolTableRecord
100
AcDbLayerTableRecord
2
0
70
0
6
CONTINUOUS
0
ENDTAB
0
TABLE
2
STYLE
5
3
100
AcDbSymbolTable
70
1
0
STYLE
5
11
100
AcDbSymbolTableRecord
100
AcDbTextStyleTableRecord
2
STANDARD
70
0
0
ENDTAB
0
TABLE
2
VIEW
5
6
100
AcDbSymbolTable
70
0
0
ENDTAB
0
TABLE
2
UCS
5
7
100
AcDbSymbolTable
70
0
0
ENDTAB
0
TABLE
2
APPID
5
9
100
AcDbSymbolTable
70
2
0
APPID
5
12
100
AcDbSymbolTableRecord
100
AcDbRegAppTableRecord
2
ACAD
70
0
0
ENDTAB
0
TABLE
2
DIMSTYLE
5
A
100
AcDbSymbolTable
70
1
0
ENDTAB
0
TABLE
2
BLOCK_RECORD
5
1
100
AcDbSymbolTable
70
1
0
BLOCK_RECORD
5
1F
100
AcDbSymbolTableRecord
100
AcDbBlockTableRecord
2
*MODEL_SPACE
0
BLOCK_RECORD
5
1B
100
AcDbSymbolTableRecord
100
AcDbBlockTableRecord
2
*PAPER_SPACE
0
ENDTAB
0
ENDSEC
0
SECTION
2
BLOCKS
0
BLOCK
5
20
100
AcDbEntity
100
AcDbBlockBegin
2
*MODEL_SPACE
0
ENDBLK
5
21
100
AcDbEntity
100
AcDbBlockEnd
0
BLOCK
5
1C
100
AcDbEntity
100
AcDbBlockBegin
2
*PAPER_SPACE
0
ENDBLK
5
1D
100
AcDbEntity
100
AcDbBlockEnd
0
ENDSEC
0
SECTION
2
ENTITIES
0
CIRCLE
5
100
100
AcDbEntity
8
0
100
AcDbCircle
10
0
20
0
30
0
40
2.5
210
0
220
0
230
1
0
LINE
5
101
100
AcDbEntity
8
0
100
AcDbLine
10
0
20
0
30
0
11
5
21
0
31
0
0
LINE
5
102
100
AcDbEntity
8
0
100
AcDbLine
10
0
20
0
30
0
11
0
21
5
31
0
0
CIRCLE
5
103
100
AcDbEntity
8
0
100
AcDbCircle
10
19.050000000000001
20
0
30
0
40
2.5
210
0
220
0
230
1
0
CIRCLE
5
104
100
AcDbEntity
8
0
100
AcDbCircle
10
38.100000000000001
20
0
30
0
40
2.5
210
0
220
0
230
1
0
CIRCLE
5
105
100
AcDbEntity
8
0
100
AcDbCircle
10
57.149999999999999
20
0
30
0
40
2.5
210
0
220
0
230
1
0
CIRCLE
5
106
100
AcDbEntity
8
0
100
AcDbCircle
10
0
20
19.050000000000001
30
0
40
2.5
210
0
220
0
230
1
0
CIRCLE
5
107
100
AcDbEntity
8
0
100
AcDbCircle
10
19.050000000000001
20
19.050000000000001
30
0
40
2.5
210
0
220
0
230
1
0
CIRCLE
5
108
100
AcDbEntity
8
0
100
AcDbCircle
10
38.100000000000001
20
19.050000000000001
30
0
40
2.5
210
0
220
0
230
1
0
CIRCLE
5
109
100
AcDbEntity
8
0
100
AcDbCircle
10
57.149999999999999
20
19.050000000000001
30
0
40
2.5
210
0
220
0
230
1
0
CIRCLE
5
110
100
AcDbEntity
8
0
100
AcDbCircle
10
0
20
38.100000000000001
30
0
40
2.5
210
0
220
0
230
1
0
CIRCLE
5
111
100
AcDbEntity
8
0
100
AcDbCircle
10
19.050000000000001
20
38.100000000000001
30
0
40
2.5
210
0
220
0
230
1
0
CIRCLE
5
112
100
AcDbEntity
8
0
100
AcDbCircle
10
38.100000000000001
20
38.100000000000001
30
0
40
2.5
210
0
220
0
230
1
0
CIRCLE
5
113
100
AcDbEntity
8
0
100
AcDbCircle
10
57.149999999999999
20
38.100000000000001
30
0
40
2.5
210
0
220
0
230
1
0
CIRCLE
5
114
100
AcDbEntity
8
0
100
AcDbCircle
10
0
20
57.149999999999999
30
0
40
2.5
210
0
220
0
230
1
0
CIRCLE
5
115
100
AcDbEntity
8
0
100
AcDbCircle
10
19.050000000000001
20
57.149999999999999
30
0
40
2.5
210
0
220
0
230
1
0
CIRCLE
5
116
100
AcDbEntity
8
0
100
AcDbCircle
10
38.100000000000001
20
57.149999999999999
30
0
40
2.5
210
0
220
0
230
1
0
LINE
5
117
100
AcDbEntity
8
0
100
AcDbLine
10
66.674999999999997
20
85.724999999999994
30
0
11
66.674999999999997
21
66.675000000000011
31
0
0
LINE
5
118
100
AcDbEntity
8
0
100
AcDbLine
10
66.674999999999997
20
66.675000000000011
30
0
11
-9.5249999999999897
21
66.675000000000011
31
0
0
LINE
5
119
100
AcDbEntity
8
0
100
AcDbLine
10
-9.5249999999999897
20
66.675000000000011
30
0
11
-9.5249999999999861
21
85.725000000000023
31
0
0
LINE
5
120
100
AcDbEntity
8
0
100
AcDbLine
10
-9.5250000000000021
20
9.5250000000000092
30
0
11
-9.5249999999999986
21
-9.5250000000000004
31
0
0
LINE
5
121
100
AcDbEntity
8
0
100
AcDbLine
10
-9.5249999999999986
20
-9.5250000000000004
30
0
11
66.674999999999997
21
-9.524999999999995
31
0
0
LINE
5
122
100
AcDbEntity
8
0
100
AcDbLine
10
66.674999999999997
20
-9.524999999999995
30
0
11
66.674999999999997
21
9.5250000000000163
31
0
0
CIRCLE
5
123
100
AcDbEntity
8
0
100
AcDbCircle
10
36.624999999999993
20
77.674999999999997
30
0
40
11
210
0
220
0
230
1
0
LWPOLYLINE
5
124
100
AcDbEntity
8
0
100
AcDbPolyline
90
4
70
1
43
0.0
10
39.624999999999957
20
84.675000000000011
10
33.624999999999964
20
84.674999999999983
10
33.625
20
70.174999999999997
10
39.624999999999957
20
70.174999999999997
0
LWPOLYLINE
5
125
100
AcDbEntity
8
0
100
AcDbPolyline
90
4
70
1
43
0.0
10
43.224999999999994
20
78.975000000000065
10
30.024999999999995
20
78.975000000000065
10
30.024999999999995
20
76.375000000000057
10
43.224999999999994
20
76.375000000000057
0
LINE
5
126
100
AcDbEntity
8
0
100
AcDbLine
10
36.624999999999993
20
77.674999999999997
30
0
11
36.624999999999979
21
70.174999999999997
31
0
0
LINE
5
127
100
AcDbEntity
8
0
100
AcDbLine
10
36.624999999999993
20
77.674999999999997
30
0
11
30.024999999999995
21
77.675000000000068
31
0
0
CIRCLE
5
128
100
AcDbEntity
8
0
100
AcDbCircle
10
36.624999999999993
20
77.674999999999997
30
0
40
10.5
210
0
220
0
230
1
0
LWPOLYLINE
5
129
100
AcDbEntity
8
0
100
AcDbPolyline
90
4
70
1
43
0.0
10
28.024999999999991
20
84.674999999999997
10
7.044599999999992
20
84.675000000000011
10
7.044599999999992
20
67.174999999999997
10
28.024999999999991
20
67.174999999999997
0
LINE
5
130
100
AcDbEntity
8
0
100
AcDbLine
10
9.9147999999999925
20
68.444999999999993
30
0
11
25.154799999999994
21
68.444999999999993
31
0
0
LWPOLYLINE
5
131
100
AcDbEntity
8
0
100
AcDbPolyline
90
4
70
1
43
0.0
10
42.875000000000007
20
84.375000000000071
10
30.375000000000007
20
84.375000000000071
10
30.375000000000021
20
70.97500000000008
10
42.875000000000007
20
70.97500000000008
0
CIRCLE
5
132
100
AcDbEntity
8
0
100
AcDbCircle
10
57.149999999999999
20
66.675000000000011
30
0
40
2.5
210
0
220
0
230
1
0
LINE
5
133
100
AcDbEntity
8
0
100
AcDbLine
10
57.149999999999999
20
0
30
0
11
57.149999999999999
21
19.050000000000001
31
0
0
LINE
5
134
100
AcDbEntity
8
0
100
AcDbLine
10
47.624999999999986
20
66.675000000000011
30
0
11
47.624999999999993
21
77.675000000000011
31
0
0
LINE
5
135
100
AcDbEntity
8
0
100
AcDbLine
10
17.534799999999994
20
68.444999999999993
30
0
11
17.534799999999994
21
67.174999999999997
31
0
0
ENDSEC
0
SECTION
2
OBJECTS
0
DICTIONARY
5
C
100
AcDbDictionary
3
ACAD_GROUP
350
D
3
ACAD_MLINESTYLE
350
17
0
DICTIONARY
5
D
100
AcDbDictionary
0
DICTIONARY
5
1A
330
C
100
AcDbDictionary
0
DICTIONARY
5
17
100
AcDbDictionary
0
ENDSEC
0
EOF
