0
SECTION
2
HEADER
9
$INSUNITS
70
4
9
$ACADVER
1
AC1014
9
$HANDSEED
5
FFFF
0
ENDSEC
0
SECTION
2
TABLES
0
TABLE
2
VPORT
5
8
100
AcDbSymbolTable
0
ENDTAB
0
TABLE
2
LTYPE
5
5
100
AcDbSymbolTable
0
LTYPE
5
14
100
AcDbSymbolTableRecord
100
AcDbLinetypeTableRecord
2
BYBLOCK
70
0
0
LTYPE
5
15
100
AcDbSymbolTableRecord
100
AcDbLinetypeTableRecord
2
BYLAYER
70
0
0
ENDTAB
0
TABLE
2
LAYER
5
2
100
AcDbSymbolTable
70
2
0
LAYER
5
50
100
AcDbSymbolTableRecord
100
AcDbLayerTableRecord
2
0
70
0
6
CONTINUOUS
0
ENDTAB
0
TABLE
2
STYLE
5
3
100
AcDbSymbolTable
70
1
0
STYLE
5
11
100
AcDbSymbolTableRecord
100
AcDbTextStyleTableRecord
2
STANDARD
70
0
0
ENDTAB
0
TABLE
2
VIEW
5
6
100
AcDbSymbolTable
70
0
0
ENDTAB
0
TABLE
2
UCS
5
7
100
AcDbSymbolTable
70
0
0
ENDTAB
0
TABLE
2
APPID
5
9
100
AcDbSymbolTable
70
2
0
APPID
5
12
100
AcDbSymbolTableRecord
100
AcDbRegAppTableRecord
2
ACAD
70
0
0
ENDTAB
0
TABLE
2
DIMSTYLE
5
A
100
AcDbSymbolTable
70
1
0
ENDTAB
0
TABLE
2
BLOCK_RECORD
5
1
100
AcDbSymbolTable
70
1
0
BLOCK_RECORD
5
1F
100
AcDbSymbolTableRecord
100
AcDbBlockTableRecord
2
*MODEL_SPACE
0
BLOCK_RECORD
5
1B
100
AcDbSymbolTableRecord
100
AcDbBlockTableRecord
2
*PAPER_SPACE
0
ENDTAB
0
ENDSEC
0
SECTION
2
BLOCKS
0
BLOCK
5
20
100
AcDbEntity
100
AcDbBlockBegin
2
*MODEL_SPACE
0
ENDBLK
5
21
100
AcDbEntity
100
AcDbBlockEnd
0
BLOCK
5
1C
100
AcDbEntity
100
AcDbBlockBegin
2
*PAPER_SPACE
0
ENDBLK
5
1D
100
AcDbEntity
100
AcDbBlockEnd
0
ENDSEC
0
SECTION
2
ENTITIES
0
ARC
5
100
100
AcDbEntity
8
0
100
AcDbCircle
10
19.980435020732624
20
-7.6903621227399332
30
0
40
0.99999999999999867
210
0
220
0
230
1
100
AcDbArc
50
257
51
347.00000000000011
0
LINE
5
101
100
AcDbEntity
8
0
100
AcDbLine
10
20.954805085517858
20
-7.9153131770837968
30
0
11
24.01962205760498
21
5.3598675966081002
31
0
0
LINE
5
102
100
AcDbEntity
8
0
100
AcDbLine
10
25.218943176734079
20
6.1092866070494658
30
0
11
49.460861803411618
21
0.51259870429531396
31
0
0
ARC
5
103
100
AcDbEntity
8
0
100
AcDbCircle
10
53.959882890288931
20
19.999999999999915
30
0
40
19.999999999999901
210
0
220
0
230
1
100
AcDbArc
50
256.99999999999989
51
270
0
LINE
5
104
100
AcDbEntity
8
0
100
AcDbLine
10
53.959882890288938
20
1.1934897514720433e-14
30
0
11
107.33246073622475
21
5.669356117501856e-15
31
0
0
ARC
5
105
100
AcDbEntity
8
0
100
AcDbCircle
10
107.33246073622475
20
1.000000000000012
30
0
40
1.0000000000000062
210
0
220
0
230
1
100
AcDbArc
50
270
51
346.9999999999996
0
LINE
5
106
100
AcDbEntity
8
0
100
AcDbLine
10
108.30683080100998
20
0.77504894565613958
30
0
11
119.32351532707781
21
48.493552184917945
31
0
0
ARC
5
107
100
AcDbEntity
8
0
100
AcDbCircle
10
118.34914526229258
20
48.718503239261814
30
0
40
0.99999999999998512
210
0
220
0
230
1
100
AcDbArc
50
-13.00000000000021
51
76.999999999999375
0
LINE
5
108
100
AcDbEntity
8
0
100
AcDbLine
10
118.57409631663646
20
49.692873304047048
30
0
11
103.25574407134583
21
53.229393577941465
31
0
0
ARC
5
109
100
AcDbEntity
8
0
100
AcDbCircle
10
98.756722984468567
20
33.741992282237248
30
0
40
19.99999999999951
210
0
220
-0
230
1
100
AcDbArc
50
76.999999999999787
51
90.000000000000199
0
LINE
5
110
100
AcDbEntity
8
0
100
AcDbLine
10
98.756722984468496
20
53.741992282236765
30
0
11
84.84067337625477
21
53.741992282236751
31
0
0
ARC
5
111
100
AcDbEntity
8
0
100
AcDbCircle
10
84.840673376254756
20
73.741992282236751
30
0
40
19.999999999999996
210
0
220
0
230
1
100
AcDbArc
50
257.00000000000051
51
270.00000000000006
0
LINE
5
112
100
AcDbEntity
8
0
100
AcDbLine
10
80.341652289377635
20
54.254590986532008
30
0
11
45.150187229267296
21
62.379180868017798
31
0
0
ARC
5
113
100
AcDbEntity
8
0
100
AcDbCircle
10
45.600089337955012
20
64.327920997588265
30
0
40
2.0000000000000036
210
0
220
0
230
1
100
AcDbArc
50
192.99999999999855
51
257.00000000000034
0
LINE
5
114
100
AcDbEntity
8
0
100
AcDbLine
10
43.651349208384531
20
63.878018888900584
30
0
11
39.643959129058139
21
81.235932336350231
31
0
0
ARC
5
115
100
AcDbEntity
8
0
100
AcDbCircle
10
37.695218999487651
20
80.786030227662565
30
0
40
2.0000000000000058
210
0
220
-0
230
1
100
AcDbArc
50
12.999999999998101
51
77.000000000000171
0
LINE
5
116
100
AcDbEntity
8
0
100
AcDbLine
10
38.145121108175374
20
82.734770357233032
30
0
11
22.157214261972165
21
86.425869490699824
31
0
0
ARC
5
117
100
AcDbEntity
8
0
100
AcDbCircle
10
17.658193175095246
20
66.938468194995536
30
0
40
19.999999999999517
210
0
220
-0
230
1
100
AcDbArc
50
77.000000000000796
51
90.000000000000071
0
LINE
5
118
100
AcDbEntity
8
0
100
AcDbLine
10
17.658193175095221
20
86.938468194995053
30
0
11
-17.658193175095043
21
86.938468194995096
31
0
0
ARC
5
119
100
AcDbEntity
8
0
100
AcDbCircle
10
-17.658193175095068
20
66.938468194995252
30
0
40
19.99999999999984
210
0
220
-0
230
1
100
AcDbArc
50
89.999999999999929
51
102.9999999999991
0
LINE
5
120
100
AcDbEntity
8
0
100
AcDbLine
10
-22.15721426197203
20
86.425869490699867
30
0
11
-38.14512110817531
21
82.734770357233202
31
0
0
ARC
5
121
100
AcDbEntity
8
0
100
AcDbCircle
10
-37.695218999487622
20
80.786030227662735
30
0
40
1.9999999999999947
210
0
220
0
230
1
100
AcDbArc
50
102.99999999999885
51
167.00000000000145
0
LINE
5
122
100
AcDbEntity
8
0
100
AcDbLine
10
-39.643959129058103
20
81.235932336350416
30
0
11
-43.651349208384531
21
63.878018888900591
31
0
0
ARC
5
123
100
AcDbEntity
8
0
100
AcDbCircle
10
-45.600089337955012
20
64.327920997588279
30
0
40
2.0000000000000009
210
-0
220
0
230
1
100
AcDbArc
50
282.9999999999996
51
347.00000000000125
0
LINE
5
124
100
AcDbEntity
8
0
100
AcDbLine
10
-45.150187229267296
20
62.379180868017805
30
0
11
-80.341652289377663
21
54.254590986532001
31
0
0
ARC
5
125
100
AcDbEntity
8
0
100
AcDbCircle
10
-84.840673376254784
20
73.741992282236751
30
0
40
20
210
0
220
0
230
1
100
AcDbArc
50
269.99999999999989
51
282.99999999999949
0
LINE
5
126
100
AcDbEntity
8
0
100
AcDbLine
10
-84.840673376254813
20
53.741992282236751
30
0
11
-98.756722984468496
21
53.741992282236765
31
0
0
ARC
5
127
100
AcDbEntity
8
0
100
AcDbCircle
10
-98.756722984468553
20
33.741992282236843
30
0
40
19.999999999999922
210
0
220
-0
230
1
100
AcDbArc
50
89.999999999999844
51
103.00000000000001
0
LINE
5
128
100
AcDbEntity
8
0
100
AcDbLine
10
-103.25574407134583
20
53.229393577941451
30
0
11
-118.57409631663643
21
49.692873304047055
31
0
0
ARC
5
129
100
AcDbEntity
8
0
100
AcDbCircle
10
-118.34914526229255
20
48.718503239261814
30
0
40
1.0000000000000129
210
0
220
0
230
1
100
AcDbArc
50
103.00000000000054
51
192.99999999999946
0
LINE
5
130
100
AcDbEntity
8
0
100
AcDbLine
10
-119.32351532707781
20
48.493552184917952
30
0
11
-108.30683080100999
21
0.77504894565613824
31
0
0
ARC
5
131
100
AcDbEntity
8
0
100
AcDbCircle
10
-107.33246073622475
20
1.0000000000000111
30
0
40
1.0000000000000211
210
0
220
0
230
1
100
AcDbArc
50
193.00000000000026
51
270
0
LINE
5
132
100
AcDbEntity
8
0
100
AcDbLine
10
-107.33246073622475
20
7.9103390504542404e-15
30
0
11
-53.95988289029016
21
-1.1324274851176597e-13
31
0
0
LINE
5
133
100
AcDbEntity
8
0
100
AcDbLine
10
-34.278480483945664
20
3.809991444466541
30
0
11
19.755483966388752
21
-8.6647321875251713
31
0
0
LINE
5
134
100
AcDbEntity
8
0
100
AcDbLine
10
-49.460861803412833
20
0.51259870429517829
30
0
11
-35.178284701321132
21
3.809991444466541
31
0
0
ARC
5
135
100
AcDbEntity
8
0
100
AcDbCircle
10
-53.959882890290125
20
19.99999999999994
30
0
40
20.000000000000053
210
0
220
0
230
1
100
AcDbArc
50
269.99999999999989
51
282.99999999999994
0
ARC
5
136
100
AcDbEntity
8
0
100
AcDbCircle
10
-34.728382592633395
20
1.8612513148960697
30
0
40
2.0000000000000009
210
0
220
-0
230
1
100
AcDbArc
50
76.999999999999986
51
103.00000000000021
0
ARC
5
137
100
AcDbEntity
8
0
100
AcDbCircle
10
24.993992122390214
20
5.1349165422642322
30
0
40
0.99999999999999911
210
0
220
-0
230
1
100
AcDbArc
50
76.999999999999972
51
166.99999999999983
0
ENDSEC
0
SECTION
2
OBJECTS
0
DICTIONARY
5
C
100
AcDbDictionary
3
ACAD_GROUP
350
D
3
ACAD_MLINESTYLE
350
17
0
DICTIONARY
5
D
100
AcDbDictionary
0
DICTIONARY
5
1A
330
C
100
AcDbDictionary
0
DICTIONARY
5
17
100
AcDbDictionary
0
ENDSEC
0
EOF
