0
SECTION
2
HEADER
9
$INSUNITS
70
4
9
$ACADVER
1
AC1014
9
$HANDSEED
5
FFFF
0
ENDSEC
0
SECTION
2
TABLES
0
TABLE
2
VPORT
5
8
100
AcDbSymbolTable
0
ENDTAB
0
TABLE
2
LTYPE
5
5
100
AcDbSymbolTable
0
LTYPE
5
14
100
AcDbSymbolTableRecord
100
AcDbLinetypeTableRecord
2
BYBLOCK
70
0
0
LTYPE
5
15
100
AcDbSymbolTableRecord
100
AcDbLinetypeTableRecord
2
BYLAYER
70
0
0
ENDTAB
0
TABLE
2
LAYER
5
2
100
AcDbSymbolTable
70
2
0
LAYER
5
50
100
AcDbSymbolTableRecord
100
AcDbLayerTableRecord
2
0
70
0
6
CONTINUOUS
0
ENDTAB
0
TABLE
2
STYLE
5
3
100
AcDbSymbolTable
70
1
0
STYLE
5
11
100
AcDbSymbolTableRecord
100
AcDbTextStyleTableRecord
2
STANDARD
70
0
0
ENDTAB
0
TABLE
2
VIEW
5
6
100
AcDbSymbolTable
70
0
0
ENDTAB
0
TABLE
2
UCS
5
7
100
AcDbSymbolTable
70
0
0
ENDTAB
0
TABLE
2
APPID
5
9
100
AcDbSymbolTable
70
2
0
APPID
5
12
100
AcDbSymbolTableRecord
100
AcDbRegAppTableRecord
2
ACAD
70
0
0
ENDTAB
0
TABLE
2
DIMSTYLE
5
A
100
AcDbSymbolTable
70
1
0
ENDTAB
0
TABLE
2
BLOCK_RECORD
5
1
100
AcDbSymbolTable
70
1
0
BLOCK_RECORD
5
1F
100
AcDbSymbolTableRecord
100
AcDbBlockTableRecord
2
*MODEL_SPACE
0
BLOCK_RECORD
5
1B
100
AcDbSymbolTableRecord
100
AcDbBlockTableRecord
2
*PAPER_SPACE
0
ENDTAB
0
ENDSEC
0
SECTION
2
BLOCKS
0
BLOCK
5
20
100
AcDbEntity
100
AcDbBlockBegin
2
*MODEL_SPACE
0
ENDBLK
5
21
100
AcDbEntity
100
AcDbBlockEnd
0
BLOCK
5
1C
100
AcDbEntity
100
AcDbBlockBegin
2
*PAPER_SPACE
0
ENDBLK
5
1D
100
AcDbEntity
100
AcDbBlockEnd
0
ENDSEC
0
SECTION
2
ENTITIES
0
LWPOLYLINE
5
100
100
AcDbEntity
8
0
100
AcDbPolyline
90
8
70
1
43
0.0
10
36.480785887125997
20
-79.305503829789757
42
-0.76732698797738785
10
36.413365236745101
20
-81.236178650512045
10
23.941428407495987
20
-84.115552146121715
42
-0.7673269879773339
10
23.034478993093099
20
-82.40982837973219
10
20.769683207167873
20
-72.599920072802263
42
-0.76732698797738275
10
20.837103857549724
20
-70.669245252080003
10
33.309040686800166
20
-67.789871756476074
42
-0.76732698797738319
10
34.215990101202308
20
-69.495595522866523
0
LWPOLYLINE
5
101
100
AcDbEntity
8
0
100
AcDbPolyline
90
8
70
1
43
0.0
10
6.8999999999977488
20
-83.472442791233235
42
-0.76732698797738574
10
6.4000000000016852
20
-85.338468194991904
10
-6.3999999999983173
20
-85.338468195000615
42
-0.76732698797733123
10
-6.899999999998311
20
-83.472442791231458
10
-6.8999999999953152
20
-73.404493598753504
42
-0.7673269879773863
10
-6.3999999999983102
20
-71.53846819499509
10
6.4000000000016879
20
-71.538468194992262
42
-0.76732698797738219
10
6.9000000000007597
20
-73.40449359876213
0
LWPOLYLINE
5
102
100
AcDbEntity
8
0
100
AcDbPolyline
90
8
70
1
43
0.0
10
-23.034478993094439
20
-82.409828379733682
42
-0.76732698797738519
10
-23.941428407491149
20
-84.115552146113885
10
-36.41336523674417
20
-81.23617865052114
42
-0.76732698797733268
10
-36.480785887126522
20
-79.305503829787781
10
-34.215990101195437
20
-69.495595522859219
42
-0.76732698797737597
10
-33.309040686797871
20
-67.789871756479442
10
-20.837103857546168
20
-70.669245252077928
42
-0.76732698797738463
10
-20.769683207164881
20
-72.599920072811784
0
LWPOLYLINE
5
103
100
AcDbEntity
8
0
100
AcDbPolyline
90
8
70
1
43
0.0
10
27.120966456214347
20
-62.984139510228189
42
-0.76732698797738574
10
27.053545805833494
20
-64.914814330950477
10
14.581608976584429
20
-67.794187826560403
42
-0.76732698797733823
10
13.674659562181507
20
-66.088464060170878
10
11.409863776256078
20
-56.278555753240994
42
-0.7673269879773793
10
11.477284426637882
20
-54.347880932518748
10
23.949221255888268
20
-51.468507436914557
42
-0.76732698797737864
10
24.85617067029046
20
-53.174231203304984
0
LWPOLYLINE
5
104
100
AcDbEntity
8
0
100
AcDbPolyline
90
8
70
1
43
0.0
10
43.724388873498874
20
-54.8861093155936
42
-0.7673269879773873
10
43.656968223118028
20
-56.816784136315881
10
31.185031393868954
20
-59.696157631925821
42
-0.76732698797733756
10
30.278081979466034
20
-57.990433865536289
10
28.013286193540608
20
-48.180525558606398
42
-0.76732698797737586
10
28.08070684392241
20
-46.249850737884159
10
40.552643673172796
20
-43.370477242279975
42
-0.76732698797738197
10
41.45959308757498
20
-45.076201008670395
0
LWPOLYLINE
5
105
100
AcDbEntity
8
0
100
AcDbPolyline
90
8
70
1
43
0.0
10
23.29679853236847
20
-46.419848408879226
42
-0.76732698797738552
10
23.229377881987631
20
-48.350523229601514
10
10.757441052738573
20
-51.229896725211447
42
-0.76732698797733823
10
9.8504916383356509
20
-49.524172958821921
10
7.5856958524102165
20
-39.714264651892037
42
-0.76732698797738408
10
7.6531165027920256
20
-37.783589831169785
10
20.125053332042413
20
-34.9042163355656
42
-0.76732698797738252
10
21.032002746444594
20
-36.609940101956013
0
LWPOLYLINE
5
106
100
AcDbEntity
8
0
100
AcDbPolyline
90
8
70
1
43
0.0
10
39.900220949653004
20
-38.321818214244637
42
-0.76732698797738963
10
39.832800299272158
20
-40.252493034966925
10
27.360863470023098
20
-43.131866530576858
42
-0.76732698797733756
10
26.453914055620178
20
-41.426142764187333
10
24.189118269694745
20
-31.616234457257448
42
-0.76732698797738574
10
24.256538920076554
20
-29.685559636535196
10
36.72847574932694
20
-26.806186140931011
42
-0.76732698797738252
10
37.635425163729124
20
-28.511909907321424
0
LWPOLYLINE
5
107
100
AcDbEntity
8
0
100
AcDbPolyline
90
8
70
1
43
0.0
10
115.74681129078341
20
-46.788079120959011
42
-0.76732698797736953
10
115.67939064040259
20
-48.718753941681285
10
103.2074538111535
20
-51.59812743729124
42
-0.76732698797731547
10
102.30050439675057
20
-49.8924036709017
10
100.03570861082514
20
-40.082495363971816
42
-0.76732698797737375
10
100.10312926120693
20
-38.151820543249563
10
112.57506609045734
20
-35.272447047645372
42
-0.7673269879773702
10
113.48201550485952
20
-36.978170814035785
0
LWPOLYLINE
5
108
100
AcDbEntity
8
0
100
AcDbPolyline
90
8
70
1
43
0.0
10
97.273811290783385
20
-46.788079120958997
42
-0.76732698797739174
10
97.206390640402546
20
-48.718753941681292
10
84.734453811153472
20
-51.598127437291225
42
-0.76732698797733634
10
83.82750439675057
20
-49.892403670901693
10
81.562708610825126
20
-40.082495363971816
42
-0.76732698797737298
10
81.630129261206932
20
-38.151820543249578
10
94.102066090457313
20
-35.272447047645379
42
-0.76732698797737797
10
95.009015504859505
20
-36.978170814035792
0
LWPOLYLINE
5
109
100
AcDbEntity
8
0
100
AcDbPolyline
90
8
70
1
43
0.0
10
78.8008112907834
20
-46.788079120959011
42
-0.7673269879773873
10
78.733390640402547
20
-48.718753941681292
10
66.261453811153473
20
-51.598127437291211
42
-0.76732698797733156
10
65.354504396750571
20
-49.892403670901693
10
63.089708610825141
20
-40.082495363971816
42
-0.76732698797738375
10
63.157129261206933
20
-38.151820543249571
10
75.629066090457314
20
-35.272447047645386
42
-0.76732698797738907
10
76.536015504859506
20
-36.978170814035792
0
LWPOLYLINE
5
110
100
AcDbEntity
8
0
100
AcDbPolyline
90
8
70
1
43
0.0
10
111.92264336693754
20
-30.223788019610037
42
-0.76732698797737775
10
111.8552227165567
20
-32.154462840332329
10
99.383285887307636
20
-35.033836335942269
42
-0.76732698797731447
10
98.47633647290472
20
-33.328112569552729
10
96.211540686979276
20
-23.518204262622856
42
-0.76732698797738719
10
96.278961337361082
20
-21.587529441900607
10
108.75089816661148
20
-18.708155946296415
42
-0.76732698797736953
10
109.65784758101366
20
-20.413879712686821
0
LWPOLYLINE
5
111
100
AcDbEntity
8
0
100
AcDbPolyline
90
8
70
1
43
0.0
10
93.449643366937522
20
-30.223788019610033
42
-0.76732698797737853
10
93.382222716556683
20
-32.154462840332329
10
80.910285887307623
20
-35.033836335942269
42
-0.76732698797732946
10
80.003336472904692
20
-33.328112569552736
10
77.738540686979263
20
-23.518204262622859
42
-0.76732698797738408
10
77.805961337361083
20
-21.587529441900607
10
90.277898166611465
20
-18.708155946296415
42
-0.76732698797737775
10
91.184847581013656
20
-20.413879712686828
0
LWPOLYLINE
5
112
100
AcDbEntity
8
0
100
AcDbPolyline
90
8
70
1
43
0.0
10
74.976643366937523
20
-30.223788019610048
42
-0.7673269879773903
10
74.909222716556684
20
-32.154462840332329
10
62.437285887307617
20
-35.033836335942269
42
-0.76732698797733367
10
61.530336472904708
20
-33.328112569552736
10
59.265540686979264
20
-23.518204262622866
42
-0.76732698797738486
10
59.332961337361077
20
-21.587529441900607
10
71.804898166611466
20
-18.708155946296419
42
-0.76732698797738585
10
72.711847581013643
20
-20.413879712686832
0
LWPOLYLINE
5
113
100
AcDbEntity
8
0
100
AcDbPolyline
90
8
70
1
43
0.0
10
60.327811290783401
20
-46.788079120959011
42
-0.7673269879773873
10
60.260390640402548
20
-48.718753941681292
10
47.788453811153488
20
-51.598127437291232
42
-0.76732698797733756
10
46.881504396750564
20
-49.8924036709017
10
44.616708610825135
20
-40.082495363971816
42
-0.7673269879773903
10
44.684129261206948
20
-38.151820543249571
10
57.15606609045733
20
-35.272447047645386
42
-0.76732698797738252
10
58.063015504859514
20
-36.978170814035799
0
LWPOLYLINE
5
114
100
AcDbEntity
8
0
100
AcDbPolyline
90
8
70
1
43
0.0
10
56.503643366937538
20
-30.223788019610041
42
-0.76732698797738785
10
56.436222716556685
20
-32.154462840332329
10
43.964285887307625
20
-35.033836335942262
42
-0.76732698797733279
10
43.057336472904709
20
-33.328112569552736
10
40.792540686979272
20
-23.518204262622859
42
-0.76732698797738408
10
40.859961337361085
20
-21.587529441900607
10
53.331898166611467
20
-18.708155946296419
42
-0.76732698797738197
10
54.238847581013651
20
-20.413879712686835
0
LWPOLYLINE
5
115
100
AcDbEntity
8
0
100
AcDbPolyline
90
8
70
1
43
0.0
10
19.472630608522614
20
-29.855557307530255
42
-0.76732698797738585
10
19.405209958141761
20
-31.786232128252543
10
6.9332731288927008
20
-34.665605623862476
42
-0.7673269879773289
10
6.0263237144897843
20
-32.959881857472951
10
3.7615279285643521
20
-23.149973550543077
42
-0.76732698797737897
10
3.8289485789461608
20
-21.219298729820824
10
16.30088540819655
20
-18.33992523421664
42
-0.76732698797738152
10
17.207834822598727
20
-20.045649000607053
0
LWPOLYLINE
5
116
100
AcDbEntity
8
0
100
AcDbPolyline
90
8
70
1
43
0.0
10
36.076053025807148
20
-21.757527112895655
42
-0.76732698797738674
10
36.008632375426288
20
-23.688201933617954
10
23.536695546177235
20
-26.567575429227883
42
-0.76732698797733334
10
22.629746131774311
20
-24.861851662838358
10
20.364950345848882
20
-15.051943355908481
42
-0.76732698797738186
10
20.432370996230688
20
-13.121268535186232
10
32.904307825481077
20
-10.241895039582047
42
-0.76732698797738197
10
33.811257239883254
20
-11.947618805972464
0
LWPOLYLINE
5
117
100
AcDbEntity
8
0
100
AcDbPolyline
90
8
70
1
43
0.0
10
108.09847544309166
20
-13.659496918261061
42
-0.76732698797738552
10
108.03105479271083
20
-15.590171738983361
10
95.559117963461773
20
-18.469545234593294
42
-0.76732698797732957
10
94.652168549058842
20
-16.763821468203762
10
92.387372763133428
20
-6.9539131612738805
42
-0.76732698797738674
10
92.454793413515233
20
-5.0232383405516341
10
104.92673024276561
20
-2.1438648449474345
42
-0.76732698797737298
10
105.83367965716778
20
-3.8495886113378699
0
LWPOLYLINE
5
118
100
AcDbEntity
8
0
100
AcDbPolyline
90
8
70
1
43
0.0
10
89.625475443091659
20
-13.659496918261073
42
-0.76732698797739085
10
89.558054792710806
20
-15.590171738983361
10
77.086117963461746
20
-18.469545234593298
42
-0.76732698797733367
10
76.179168549058843
20
-16.763821468203762
10
73.9143727631334
20
-6.9539131612738831
42
-0.76732698797738008
10
73.98179341351522
20
-5.0232383405516359
10
86.453730242765602
20
-2.1438648449474367
42
-0.76732698797737298
10
87.360679657167779
20
-3.8495886113378717
0
LWPOLYLINE
5
119
100
AcDbEntity
8
0
100
AcDbPolyline
90
8
70
1
43
0.0
10
71.152475443091674
20
-13.659496918261066
42
-0.76732698797739562
10
71.085054792710821
20
-15.590171738983365
10
58.613117963461754
20
-18.469545234593291
42
-0.76732698797733279
10
57.706168549058845
20
-16.763821468203766
10
55.441372763133401
20
-6.9539131612738858
42
-0.76732698797738674
10
55.508793413515221
20
-5.0232383405516376
10
67.980730242765603
20
-2.1438648449474562
42
-0.76732698797738186
10
68.88767965716778
20
-3.8495886113378686
0
LWPOLYLINE
5
120
100
AcDbEntity
8
0
100
AcDbPolyline
90
8
70
1
43
0.0
10
52.679475443091668
20
-13.65949691826108
42
-0.76732698797738752
10
52.612054792710822
20
-15.590171738983367
10
40.140117963461755
20
-18.469545234593301
42
-0.76732698797733134
10
39.233168549058838
20
-16.763821468203769
10
36.968372763133409
20
-6.953913161273892
42
-0.76732698797737886
10
37.035793413515215
20
-5.0232383405516412
10
49.507730242765604
20
-2.1438648449474558
42
-0.76732698797738219
10
50.414679657167781
20
-3.8495886113378708
0
LWPOLYLINE
5
121
100
AcDbEntity
8
0
100
AcDbPolyline
90
8
70
1
43
0.0
10
-13.674659562182633
20
-66.08846406017247
42
-0.76732698797738186
10
-14.581608976579385
20
-67.794187826552644
10
-27.053545805832357
20
-64.914814330959672
42
-0.76732698797733401
10
-27.120966456214653
20
-62.984139510226278
10
-24.856170670283344
20
-53.174231203297751
42
-0.76732698797737808
10
-23.949221255885753
20
-51.46850743691801
10
-11.47728442663411
20
-54.347880932516766
42
-0.76732698797737497
10
-11.409863776252864
20
-56.278555753250615
0
LWPOLYLINE
5
122
100
AcDbEntity
8
0
100
AcDbPolyline
90
8
70
1
43
0.0
10
-30.278081979467146
20
-57.990433865537824
42
-0.7673269879773803
10
-31.185031393863891
20
-59.696157631918005
10
-43.656968223116849
20
-56.816784136325033
42
-0.76732698797733667
10
-43.724388873499159
20
-54.886109315591639
10
-41.459593087567868
20
-45.076201008663112
42
-0.76732698797738152
10
-40.552643673170259
20
-43.370477242283371
10
-28.080706843918616
20
-46.249850737882099
42
-0.76732698797738608
10
-28.013286193537368
20
-48.180525558615969
0
LWPOLYLINE
5
123
100
AcDbEntity
8
0
100
AcDbPolyline
90
8
70
1
43
0.0
10
-9.8504916383367878
20
-49.524172958823485
42
-0.76732698797738674
10
-10.757441052733538
20
-51.22989672520368
10
-23.229377881986508
20
-48.350523229610687
42
-0.76732698797733401
10
-23.296798532368808
20
-46.4198484088773
10
-21.032002746437502
20
-36.60994010194878
42
-0.76732698797737897
10
-20.125053332039904
20
-34.904216335569053
10
-7.6531165027882597
20
-37.783589831167781
42
-0.76732698797737919
10
-7.5856958524070173
20
-39.714264651901644
0
LWPOLYLINE
5
124
100
AcDbEntity
8
0
100
AcDbPolyline
90
8
70
1
43
0.0
10
-26.453914055621293
20
-41.426142764188853
42
-0.76732698797738186
10
-27.360863470018046
20
-43.131866530569035
10
-39.832800299271007
20
-40.252493034976062
42
-0.76732698797733545
10
-39.900220949653317
20
-38.321818214242661
10
-37.635425163722005
20
-28.511909907314141
42
-0.76732698797737897
10
-36.72847574932441
20
-26.806186140934408
10
-24.256538920072774
20
-29.685559636533139
42
-0.76732698797737853
10
-24.189118269691523
20
-31.616234457267005
0
LWPOLYLINE
5
125
100
AcDbEntity
8
0
100
AcDbPolyline
90
8
70
1
43
0.0
10
-102.30050439675165
20
-49.892403670903178
42
-0.76732698797737764
10
-103.2074538111484
20
-51.598127437283367
10
-115.67939064040135
20
-48.71875394169038
42
-0.76732698797733934
10
-115.74681129078368
20
-46.788079120956994
10
-113.48201550485237
20
-36.978170814028481
42
-0.76732698797739185
10
-112.57506609045478
20
-35.272447047648733
10
-100.10312926120314
20
-38.151820543247467
42
-0.76732698797738874
10
-100.03570861082189
20
-40.08249536398133
0
LWPOLYLINE
5
126
100
AcDbEntity
8
0
100
AcDbPolyline
90
8
70
1
43
0.0
10
-83.827504396751635
20
-49.892403670903178
42
-0.76732698797737764
10
-84.734453811148398
20
-51.598127437283367
10
-97.206390640401352
20
-48.71875394169038
42
-0.76732698797733934
10
-97.273811290783669
20
-46.788079120956994
10
-95.009015504852357
20
-36.978170814028459
42
-0.76732698797737298
10
-94.102066090454755
20
-35.27244704764874
10
-81.630129261203109
20
-38.15182054324746
42
-0.76732698797738241
10
-81.562708610821886
20
-40.08249536398133
0
LWPOLYLINE
5
127
100
AcDbEntity
8
0
100
AcDbPolyline
90
8
70
1
43
0.0
10
-65.354504396751651
20
-49.892403670903178
42
-0.7673269879773803
10
-66.261453811148399
20
-51.598127437283367
10
-78.733390640401353
20
-48.71875394169038
42
-0.76732698797734267
10
-78.800811290783656
20
-46.788079120956994
10
-76.536015504852358
20
-36.978170814028459
42
-0.7673269879773853
10
-75.629066090454756
20
-35.27244704764874
10
-63.157129261203117
20
-38.151820543247482
42
-0.76732698797738041
10
-63.08970861082188
20
-40.08249536398133
0
LWPOLYLINE
5
128
100
AcDbEntity
8
0
100
AcDbPolyline
90
8
70
1
43
0.0
10
-98.4763364729058
20
-33.328112569554207
42
-0.76732698797738996
10
-99.383285887302563
20
-35.033836335934389
10
-111.85522271655552
20
-32.154462840341417
42
-0.76732698797735432
10
-111.92264336693783
20
-30.223788019608016
10
-109.65784758100652
20
-20.413879712679513
42
-0.76732698797739185
10
-108.75089816660892
20
-18.708155946299762
10
-96.278961337357288
20
-21.5875294418985
42
-0.76732698797738785
10
-96.211540686976036
20
-23.518204262632359
0
LWPOLYLINE
5
129
100
AcDbEntity
8
0
100
AcDbPolyline
90
8
70
1
43
0.0
10
-80.003336472905801
20
-33.328112569554207
42
-0.76732698797739174
10
-80.91028588730255
20
-35.033836335934389
10
-93.382222716555518
20
-32.154462840341402
42
-0.76732698797733156
10
-93.449643366937806
20
-30.223788019608023
10
-91.184847581006508
20
-20.413879712679517
42
-0.76732698797739329
10
-90.277898166608921
20
-18.708155946299762
10
-77.80596133735726
20
-21.587529441898504
42
-0.76732698797738041
10
-77.738540686976037
20
-23.518204262632359
0
LWPOLYLINE
5
130
100
AcDbEntity
8
0
100
AcDbPolyline
90
8
70
1
43
0.0
10
-61.530336472905802
20
-33.328112569554207
42
-0.76732698797739418
10
-62.437285887302551
20
-35.033836335934389
10
-74.909222716555519
20
-32.154462840341417
42
-0.76732698797733334
10
-74.976643366937822
20
-30.223788019608019
10
-72.711847581006509
20
-20.41387971267951
42
-0.76732698797739185
10
-71.804898166608922
20
-18.708155946299765
10
-59.332961337357268
20
-21.587529441898489
42
-0.76732698797738241
10
-59.265540686976038
20
-23.518204262632359
0
LWPOLYLINE
5
131
100
AcDbEntity
8
0
100
AcDbPolyline
90
8
70
1
43
0.0
10
-46.881504396751637
20
-49.892403670903171
42
-0.76732698797738608
10
-47.788453811148401
20
-51.598127437283367
10
-60.260390640401354
20
-48.718753941690387
42
-0.76732698797733667
10
-60.327811290783664
20
-46.788079120956994
10
-58.063015504852366
20
-36.978170814028474
42
-0.76732698797739063
10
-57.156066090454765
20
-35.27244704764874
10
-44.684129261203118
20
-38.15182054324746
42
-0.76732698797738241
10
-44.616708610821888
20
-40.08249536398133
0
LWPOLYLINE
5
132
100
AcDbEntity
8
0
100
AcDbPolyline
90
8
70
1
43
0.0
10
-43.05733647290581
20
-33.328112569554222
42
-0.76732698797738996
10
-43.964285887302552
20
-35.033836335934389
10
-56.436222716555513
20
-32.154462840341409
42
-0.76732698797734267
10
-56.503643366937823
20
-30.223788019608019
10
-54.23884758100651
20
-20.413879712679496
42
-0.76732698797738519
10
-53.331898166608916
20
-18.708155946299765
10
-40.859961337357269
20
-21.587529441898504
42
-0.76732698797738041
10
-40.792540686976039
20
-23.518204262632359
0
LWPOLYLINE
5
133
100
AcDbEntity
8
0
100
AcDbPolyline
90
8
70
1
43
0.0
10
-6.0263237144909443
20
-32.959881857474528
42
-0.76732698797738574
10
-6.9332731288876914
20
-34.665605623854709
10
-19.405209958140656
20
-31.786232128261723
42
-0.7673269879773349
10
-19.472630608522959
20
-29.855557307528336
10
-17.207834822591654
20
-20.045649000599816
42
-0.76732698797738319
10
-16.300885408194063
20
-18.339925234220079
10
-3.8289485789424176
20
-21.21929872981881
42
-0.76732698797738008
10
-3.7615279285611747
20
-23.149973550552673
0
LWPOLYLINE
5
134
100
AcDbEntity
8
0
100
AcDbPolyline
90
8
70
1
43
0.0
10
-22.629746131775448
20
-24.861851662839889
42
-0.76732698797738252
10
-23.536695546172197
20
-26.567575429220067
10
-36.008632375425165
20
-23.688201933627081
42
-0.76732698797733401
10
-36.076053025807468
20
-21.757527112893694
10
-33.811257239876156
20
-11.947618805965172
42
-0.76732698797738075
10
-32.904307825478568
20
-10.241895039585437
10
-20.432370996226922
20
-13.12126853518417
42
-0.76732698797738641
10
-20.364950345845685
20
-15.051943355918029
0
LWPOLYLINE
5
135
100
AcDbEntity
8
0
100
AcDbPolyline
90
8
70
1
43
0.0
10
-94.652168549059922
20
-16.763821468205244
42
-0.7673269879773843
10
-95.5591179634567
20
-18.469545234585425
10
-108.03105479270968
20
-15.590171738992444
42
-0.76732698797734655
10
-108.09847544309198
20
-13.659496918259052
10
-105.83367965716066
20
-3.8495886113305291
42
-0.76732698797738996
10
-104.92673024276307
20
-2.1438648449507984
10
-92.454793413511439
20
-5.0232383405495273
42
-0.76732698797738874
10
-92.387372763130188
20
-6.9539131612833929
0
LWPOLYLINE
5
136
100
AcDbEntity
8
0
100
AcDbPolyline
90
8
70
1
43
0.0
10
-76.179168549059952
20
-16.763821468205233
42
-0.76732698797738852
10
-77.086117963456701
20
-18.469545234585429
10
-89.558054792709655
20
-15.590171738992439
42
-0.7673269879773531
10
-89.625475443091972
20
-13.659496918259052
10
-87.360679657160659
20
-3.8495886113305291
42
-0.76732698797738996
10
-86.453730242763072
20
-2.1438648449507984
10
-73.981793413511426
20
-5.0232383405495256
42
-0.7673269879773853
10
-73.914372763130189
20
-6.953913161283392
0
LWPOLYLINE
5
137
100
AcDbEntity
8
0
100
AcDbPolyline
90
8
70
1
43
0.0
10
-57.70616854905996
20
-16.763821468205244
42
-0.76732698797738286
10
-58.613117963456702
20
-18.469545234585429
10
-71.085054792709656
20
-15.590171738992439
42
-0.76732698797734233
10
-71.152475443091973
20
-13.659496918259054
10
-68.88767965716066
20
-3.849588611330526
42
-0.76732698797738552
10
-67.980730242763073
20
-2.1438648449507953
10
-55.508793413511427
20
-5.0232383405495309
42
-0.76732698797737797
10
-55.44137276313019
20
-6.953913161283392
0
LWPOLYLINE
5
138
100
AcDbEntity
8
0
100
AcDbPolyline
90
8
70
1
43
0.0
10
-39.233168549059954
20
-16.763821468205244
42
-0.76732698797738319
10
-40.140117963456703
20
-18.469545234585425
10
-52.612054792709664
20
-15.59017173899244
42
-0.76732698797734267
10
-52.679475443091974
20
-13.659496918259054
10
-50.414679657160669
20
-3.849588611330534
42
-0.76732698797739052
10
-49.507730242763074
20
-2.1438648449507953
10
-37.035793413511428
20
-5.0232383405495273
42
-0.76732698797738663
10
-36.968372763130191
20
-6.9539131612833902
0
ARC
5
139
100
AcDbEntity
8
0
100
AcDbCircle
10
53.95988289029021
20
-20.000000000000213
30
0
40
20.000000000000327
210
0
220
0
230
1
100
AcDbArc
50
90.000000000000014
51
103.00000000000009
0
LINE
5
140
100
AcDbEntity
8
0
100
AcDbLine
10
49.460861803412811
20
-0.51259870429519494
30
0
11
35.178284701321104
21
-3.8099914444665655
31
0
0
ARC
5
141
100
AcDbEntity
8
0
100
AcDbCircle
10
34.728382592633366
20
-1.8612513148960963
30
0
40
2.0000000000000009
210
0
220
0
230
1
100
AcDbArc
50
257.00000000000023
51
283.00000000000017
0
LINE
5
142
100
AcDbEntity
8
0
100
AcDbLine
10
34.278480483945643
20
-3.8099914444665677
30
0
11
21.187546155886832
21
-0.78771111600408783
31
0
0
LINE
5
143
100
AcDbEntity
8
0
100
AcDbLine
10
9.1564252848336398
20
-12.891517566295205
30
0
11
8.4185858265857441
21
-16.087451378790821
31
0
0
ARC
5
144
100
AcDbEntity
8
0
100
AcDbCircle
10
7.4442157618005114
20
-15.862500324446954
30
0
40
1.0000000000000002
210
0
220
0
230
1
100
AcDbArc
50
256.99999999999989
51
346.99999999999989
0
LINE
5
145
100
AcDbEntity
8
0
100
AcDbLine
10
7.2192647074566443
20
-16.836870389232189
30
0
11
-24.954434831751801
21
-9.4089865747976873
31
0
0
ARC
5
146
100
AcDbEntity
8
0
100
AcDbCircle
10
-24.729483777407935
20
-8.4346165100124519
30
0
40
0.999999999999998
210
0
220
0
230
1
100
AcDbArc
50
166.99999999999986
51
257
0
LINE
5
147
100
AcDbEntity
8
0
100
AcDbLine
10
-25.703853842193169
20
-8.2096654556685849
30
0
11
-25.668845285421806
21
-8.0580267366199507
31
0
0
ARC
5
148
100
AcDbEntity
8
0
100
AcDbCircle
10
-27.617585414992281
20
-7.6081246279322192
30
0
40
2.0000000000000036
210
0
220
0
230
1
100
AcDbArc
50
-13.000000000000005
51
76.999999999999801
0
LINE
5
149
100
AcDbEntity
8
0
100
AcDbLine
10
-27.167683306304543
20
-5.6593844983617467
30
0
11
-49.460861803411618
21
-0.51259870429531174
31
0
0
ARC
5
150
100
AcDbEntity
8
0
100
AcDbCircle
10
-53.959882890288931
20
-19.999999999999915
30
0
40
19.999999999999904
210
0
220
-0
230
1
100
AcDbArc
50
76.999999999999901
51
90.000000000000014
0
LINE
5
151
100
AcDbEntity
8
0
100
AcDbLine
10
-53.959882890288938
20
-1.1934897514720433e-14
30
0
11
-107.33246073622475
21
-5.669356117501856e-15
31
0
0
ARC
5
152
100
AcDbEntity
8
0
100
AcDbCircle
10
-107.33246073622475
20
-1.000000000000012
30
0
40
1.0000000000000062
210
0
220
-0
230
1
100
AcDbArc
50
90
51
166.99999999999957
0
LINE
5
153
100
AcDbEntity
8
0
100
AcDbLine
10
-108.30683080100998
20
-0.77504894565613958
30
0
11
-119.32351532707781
21
-48.493552184917945
31
0
0
ARC
5
154
100
AcDbEntity
8
0
100
AcDbCircle
10
-118.34914526229258
20
-48.718503239261814
30
0
40
0.99999999999998512
210
0
220
0
230
1
100
AcDbArc
50
166.99999999999983
51
256.99999999999937
0
LINE
5
155
100
AcDbEntity
8
0
100
AcDbLine
10
-118.57409631663646
20
-49.692873304047048
30
0
11
-103.25574407134582
21
-53.22939357794148
31
0
0
ARC
5
156
100
AcDbEntity
8
0
100
AcDbCircle
10
-98.756722984468439
20
-33.741992282235664
30
0
40
20.000000000001101
210
0
220
0
230
1
100
AcDbArc
50
257.00000000000051
51
269.99999999999972
0
LINE
5
157
100
AcDbEntity
8
0
100
AcDbLine
10
-98.756722984468524
20
-53.741992282236765
30
0
11
-84.84067337625477
21
-53.741992282236751
31
0
0
ARC
5
158
100
AcDbEntity
8
0
100
AcDbCircle
10
-84.840673376254756
20
-73.741992282236751
30
0
40
19.999999999999996
210
0
220
-0
230
1
100
AcDbArc
50
77.000000000000526
51
90.000000000000043
0
LINE
5
159
100
AcDbEntity
8
0
100
AcDbLine
10
-80.341652289377635
20
-54.254590986532008
30
0
11
-45.150187229267367
21
-62.379180868017848
31
0
0
ARC
5
160
100
AcDbEntity
8
0
100
AcDbCircle
10
-45.600089337955083
20
-64.327920997588322
30
0
40
1.9999999999999969
210
0
220
-0
230
1
100
AcDbArc
50
12.999999999998979
51
77.000000000000398
0
LINE
5
161
100
AcDbEntity
8
0
100
AcDbLine
10
-43.651349208384609
20
-63.878018888900627
30
0
11
-39.643959129058139
21
-81.23593233635026
31
0
0
ARC
5
162
100
AcDbEntity
8
0
100
AcDbCircle
10
-37.695218999487658
20
-80.786030227662565
30
0
40
2.0000000000000009
210
0
220
0
230
1
100
AcDbArc
50
192.99999999999895
51
257.00000000000034
0
LINE
5
163
100
AcDbEntity
8
0
100
AcDbLine
10
-38.145121108175374
20
-82.734770357233032
30
0
11
-22.157214261972165
21
-86.425869490699824
31
0
0
ARC
5
164
100
AcDbEntity
8
0
100
AcDbCircle
10
-17.658193175095246
20
-66.938468194995536
30
0
40
19.999999999999517
210
0
220
0
230
1
100
AcDbArc
50
257.0000000000008
51
270.00000000000006
0
LINE
5
165
100
AcDbEntity
8
0
100
AcDbLine
10
-17.658193175095221
20
-86.938468194995053
30
0
11
17.658193175095043
21
-86.938468194995096
31
0
0
ARC
5
166
100
AcDbEntity
8
0
100
AcDbCircle
10
17.658193175095068
20
-66.938468194995252
30
0
40
19.99999999999984
210
0
220
0
230
1
100
AcDbArc
50
269.99999999999989
51
282.99999999999909
0
LINE
5
167
100
AcDbEntity
8
0
100
AcDbLine
10
22.15721426197203
20
-86.425869490699867
30
0
11
38.145121108175374
21
-82.734770357233018
31
0
0
ARC
5
168
100
AcDbEntity
8
0
100
AcDbCircle
10
37.695218999487672
20
-80.786030227662565
30
0
40
1.99999999999998
210
0
220
0
230
1
100
AcDbArc
50
282.99999999999932
51
347.00000000000176
0
LINE
5
169
100
AcDbEntity
8
0
100
AcDbLine
10
39.643959129058132
20
-81.235932336350231
30
0
11
43.651349208384602
21
-63.878018888900634
31
0
0
ARC
5
170
100
AcDbEntity
8
0
100
AcDbCircle
10
45.600089337955069
20
-64.327920997588322
30
0
40
2.0000000000000009
210
0
220
0
230
1
100
AcDbArc
50
102.9999999999998
51
167.00000000000119
0
LINE
5
171
100
AcDbEntity
8
0
100
AcDbLine
10
45.150187229267345
20
-62.379180868017848
30
0
11
80.341652289377663
21
-54.254590986532001
31
0
0
ARC
5
172
100
AcDbEntity
8
0
100
AcDbCircle
10
84.840673376254784
20
-73.741992282236751
30
0
40
20
210
0
220
-0
230
1
100
AcDbArc
50
89.999999999999929
51
102.99999999999947
0
LINE
5
173
100
AcDbEntity
8
0
100
AcDbLine
10
84.840673376254813
20
-53.741992282236751
30
0
11
98.756722984468553
21
-53.741992282236765
31
0
0
ARC
5
174
100
AcDbEntity
8
0
100
AcDbCircle
10
98.756722984468524
20
-33.741992282236438
30
0
40
20.000000000000327
210
0
220
0
230
1
100
AcDbArc
50
270.00000000000011
51
282.99999999999977
0
LINE
5
175
100
AcDbEntity
8
0
100
AcDbLine
10
103.25574407134582
20
-53.22939357794148
30
0
11
118.57409631663643
21
-49.692873304047055
31
0
0
ARC
5
176
100
AcDbEntity
8
0
100
AcDbCircle
10
118.34914526229255
20
-48.718503239261814
30
0
40
1.0000000000000129
210
0
220
0
230
1
100
AcDbArc
50
-76.999999999999488
51
12.999999999999458
0
LINE
5
177
100
AcDbEntity
8
0
100
AcDbLine
10
119.32351532707781
20
-48.493552184917952
30
0
11
108.30683080100999
21
-0.77504894565613824
31
0
0
ARC
5
178
100
AcDbEntity
8
0
100
AcDbCircle
10
107.33246073622475
20
-1.0000000000000111
30
0
40
1.0000000000000211
210
0
220
-0
230
1
100
AcDbArc
50
13.000000000000279
51
90
0
LINE
5
179
100
AcDbEntity
8
0
100
AcDbLine
10
107.33246073622475
20
-7.9103390504542404e-15
30
0
11
53.959882890290203
21
1.1546319456101628e-13
31
0
0
LINE
5
180
100
AcDbEntity
8
0
100
AcDbLine
10
19.988225036757733
20
-1.5371301264454518
30
0
11
17.401287911803248
21
-12.742385871475665
31
0
0
LINE
5
181
100
AcDbEntity
8
0
100
AcDbLine
10
16.201966792674149
20
-13.491804881917036
30
0
11
10.355746403962742
21
-12.142098555853838
31
0
0
ARC
5
182
100
AcDbEntity
8
0
100
AcDbCircle
10
20.962595101542966
20
-1.7620811807893184
30
0
40
0.99999999999999589
210
0
220
-0
230
1
100
AcDbArc
50
76.999999999999929
51
166.99999999999991
0
ARC
5
183
100
AcDbEntity
8
0
100
AcDbCircle
10
16.426917847018014
20
-12.5174348171318
30
0
40
1.0000000000000002
210
0
220
0
230
1
100
AcDbArc
50
257
51
347
0
ARC
5
184
100
AcDbEntity
8
0
100
AcDbCircle
10
10.130795349618877
20
-13.116468620639075
30
0
40
1.0000000000000018
210
0
220
-0
230
1
100
AcDbArc
50
77.000000000000014
51
166.99999999999972
0
LWPOLYLINE
5
185
100
AcDbEntity
8
0
100
AcDbPolyline
90
14
70
1
43
0.0
10
-14.650000000000032
20
-81.388468194995085
10
-9.3500000000000298
20
-81.388468194995085
42
0.76732698797902654
10
-8.8500000000000263
20
-79.522442791210068
10
-8.8500000000000227
20
-76.554493598779516
42
0.76732698797896282
10
-9.3500000000000316
20
-74.688468194995096
10
-10.250000000000025
20
-74.688468194995096
10
-10.250000000000028
20
-70.888468194995113
42
0.41421356237309503
10
-11.250000000000028
20
-69.888468194995113
10
-12.750000000000028
20
-69.888468194995127
42
0.41421356237309503
10
-13.750000000000028
20
-70.888468194995113
10
-13.750000000000036
20
-74.688468194995096
10
-14.650000000000031
20
-74.688468194995082
42
0.76732698797895649
10
-15.150000000000039
20
-76.554493598779516
10
-15.150000000000031
20
-79.522442791210068
42
0.76732698797902821
0
LWPOLYLINE
5
186
100
AcDbEntity
8
0
100
AcDbPolyline
90
14
70
1
43
0.0
10
14.649999999999959
20
-74.688468194995096
10
13.749999999999964
20
-74.688468194995096
10
13.749999999999957
20
-70.888468194995113
42
0.41421356237309503
10
12.749999999999957
20
-69.888468194995113
10
11.249999999999957
20
-69.888468194995127
42
0.41421356237309503
10
10.249999999999957
20
-70.888468194995113
10
10.249999999999954
20
-74.688468194995096
10
9.3499999999999606
20
-74.688468194995082
42
0.76732698797895649
10
8.8499999999999517
20
-76.554493598779516
10
8.8499999999999606
20
-79.522442791210068
42
0.76732698797902821
10
9.3499999999999588
20
-81.388468194995085
10
14.649999999999961
20
-81.388468194995085
42
0.76732698797902421
10
15.149999999999961
20
-79.522442791210068
10
15.149999999999968
20
-76.554493598779516
42
0.76732698797896104
0
ENDSEC
0
SECTION
2
OBJECTS
0
DICTIONARY
5
C
100
AcDbDictionary
3
ACAD_GROUP
350
D
3
ACAD_MLINESTYLE
350
17
0
DICTIONARY
5
D
100
AcDbDictionary
0
DICTIONARY
5
1A
330
C
100
AcDbDictionary
0
DICTIONARY
5
17
100
AcDbDictionary
0
ENDSEC
0
EOF
