0
SECTION
2
HEADER
9
$INSUNITS
70
4
9
$ACADVER
1
AC1014
9
$HANDSEED
5
FFFF
0
ENDSEC
0
SECTION
2
TABLES
0
TABLE
2
VPORT
5
8
100
AcDbSymbolTable
0
ENDTAB
0
TABLE
2
LTYPE
5
5
100
AcDbSymbolTable
0
LTYPE
5
14
100
AcDbSymbolTableRecord
100
AcDbLinetypeTableRecord
2
BYBLOCK
70
0
0
LTYPE
5
15
100
AcDbSymbolTableRecord
100
AcDbLinetypeTableRecord
2
BYLAYER
70
0
0
ENDTAB
0
TABLE
2
LAYER
5
2
100
AcDbSymbolTable
70
2
0
LAYER
5
50
100
AcDbSymbolTableRecord
100
AcDbLayerTableRecord
2
0
70
0
6
CONTINUOUS
0
ENDTAB
0
TABLE
2
STYLE
5
3
100
AcDbSymbolTable
70
1
0
STYLE
5
11
100
AcDbSymbolTableRecord
100
AcDbTextStyleTableRecord
2
STANDARD
70
0
0
ENDTAB
0
TABLE
2
VIEW
5
6
100
AcDbSymbolTable
70
0
0
ENDTAB
0
TABLE
2
UCS
5
7
100
AcDbSymbolTable
70
0
0
ENDTAB
0
TABLE
2
APPID
5
9
100
AcDbSymbolTable
70
2
0
APPID
5
12
100
AcDbSymbolTableRecord
100
AcDbRegAppTableRecord
2
ACAD
70
0
0
ENDTAB
0
TABLE
2
DIMSTYLE
5
A
100
AcDbSymbolTable
70
1
0
ENDTAB
0
TABLE
2
BLOCK_RECORD
5
1
100
AcDbSymbolTable
70
1
0
BLOCK_RECORD
5
1F
100
AcDbSymbolTableRecord
100
AcDbBlockTableRecord
2
*MODEL_SPACE
0
BLOCK_RECORD
5
1B
100
AcDbSymbolTableRecord
100
AcDbBlockTableRecord
2
*PAPER_SPACE
0
ENDTAB
0
ENDSEC
0
SECTION
2
BLOCKS
0
BLOCK
5
20
100
AcDbEntity
100
AcDbBlockBegin
2
*MODEL_SPACE
0
ENDBLK
5
21
100
AcDbEntity
100
AcDbBlockEnd
0
BLOCK
5
1C
100
AcDbEntity
100
AcDbBlockBegin
2
*PAPER_SPACE
0
ENDBLK
5
1D
100
AcDbEntity
100
AcDbBlockEnd
0
ENDSEC
0
SECTION
2
ENTITIES
0
ARC
5
100
100
AcDbEntity
8
0
100
AcDbCircle
10
16.65941654038372
20
-6.949137309023393
30
0
40
0.99999999999999756
210
0
220
0
230
1
100
AcDbArc
50
256.99999999999994
51
347
0
LINE
5
101
100
AcDbEntity
8
0
100
AcDbLine
10
17.633786605168954
20
-7.1740883633672574
30
0
11
20.479240158384393
21
5.1509250537814761
31
0
0
ARC
5
102
100
AcDbEntity
8
0
100
AcDbCircle
10
22.427980287954856
20
4.7010229450937473
30
0
40
2.0000000000000004
210
0
220
-0
230
1
100
AcDbArc
50
76.999999999999886
51
167
0
LINE
5
103
100
AcDbEntity
8
0
100
AcDbLine
10
22.87788239664259
20
6.6497630746642162
30
0
11
49.460861803411618
21
0.51259870429531396
31
0
0
ARC
5
104
100
AcDbEntity
8
0
100
AcDbCircle
10
53.959882890288931
20
19.999999999999915
30
0
40
19.999999999999901
210
0
220
0
230
1
100
AcDbArc
50
256.99999999999989
51
270
0
LINE
5
105
100
AcDbEntity
8
0
100
AcDbLine
10
53.959882890288938
20
1.1934897514720433e-14
30
0
11
107.33246073622475
21
5.669356117501856e-15
31
0
0
ARC
5
106
100
AcDbEntity
8
0
100
AcDbCircle
10
107.33246073622475
20
1.000000000000012
30
0
40
1.0000000000000062
210
0
220
0
230
1
100
AcDbArc
50
270
51
346.9999999999996
0
LINE
5
107
100
AcDbEntity
8
0
100
AcDbLine
10
108.30683080100998
20
0.77504894565613958
30
0
11
119.32351532707781
21
48.493552184917945
31
0
0
ARC
5
108
100
AcDbEntity
8
0
100
AcDbCircle
10
118.34914526229258
20
48.718503239261814
30
0
40
0.99999999999998512
210
0
220
0
230
1
100
AcDbArc
50
-13.00000000000021
51
76.999999999999375
0
LINE
5
109
100
AcDbEntity
8
0
100
AcDbLine
10
118.57409631663646
20
49.692873304047048
30
0
11
103.25574407134583
21
53.229393577941465
31
0
0
ARC
5
110
100
AcDbEntity
8
0
100
AcDbCircle
10
98.756722984468567
20
33.741992282237248
30
0
40
19.99999999999951
210
0
220
-0
230
1
100
AcDbArc
50
76.999999999999787
51
90.000000000000199
0
LINE
5
111
100
AcDbEntity
8
0
100
AcDbLine
10
98.756722984468496
20
53.741992282236765
30
0
11
84.84067337625477
21
53.741992282236751
31
0
0
ARC
5
112
100
AcDbEntity
8
0
100
AcDbCircle
10
84.840673376254756
20
73.741992282236751
30
0
40
19.999999999999996
210
0
220
0
230
1
100
AcDbArc
50
257.00000000000051
51
270.00000000000006
0
LINE
5
113
100
AcDbEntity
8
0
100
AcDbLine
10
80.341652289377635
20
54.254590986532008
30
0
11
53.919517812334448
21
60.354621378923099
31
0
0
ARC
5
114
100
AcDbEntity
8
0
100
AcDbCircle
10
54.369419921022171
20
62.303361508493573
30
0
40
2.0000000000000036
210
0
220
0
230
1
100
AcDbArc
50
192.99999999999872
51
257.00000000000023
0
LINE
5
115
100
AcDbEntity
8
0
100
AcDbLine
10
52.42067979145169
20
61.853459399805885
30
0
11
48.413289712125255
21
79.21137284725576
31
0
0
ARC
5
116
100
AcDbEntity
8
0
100
AcDbCircle
10
46.464549582554724
20
78.761470738568036
30
0
40
2.0000000000000546
210
0
220
-0
230
1
100
AcDbArc
50
12.99999999999943
51
76.999999999999929
0
LINE
5
117
100
AcDbEntity
8
0
100
AcDbLine
10
46.914451691242469
20
80.71021086813856
30
0
11
22.157214261972165
21
86.425869490699824
31
0
0
ARC
5
118
100
AcDbEntity
8
0
100
AcDbCircle
10
17.658193175095246
20
66.938468194995536
30
0
40
19.999999999999517
210
0
220
-0
230
1
100
AcDbArc
50
77.000000000000796
51
90.000000000000071
0
LINE
5
119
100
AcDbEntity
8
0
100
AcDbLine
10
17.658193175095221
20
86.938468194995053
30
0
11
-17.658193175095043
21
86.938468194995096
31
0
0
ARC
5
120
100
AcDbEntity
8
0
100
AcDbCircle
10
-17.658193175095068
20
66.938468194995252
30
0
40
19.99999999999984
210
0
220
-0
230
1
100
AcDbArc
50
89.999999999999929
51
102.9999999999991
0
LINE
5
121
100
AcDbEntity
8
0
100
AcDbLine
10
-22.15721426197203
20
86.425869490699867
30
0
11
-46.914451691242469
21
80.71021086813856
31
0
0
ARC
5
122
100
AcDbEntity
8
0
100
AcDbCircle
10
-46.464549582554781
20
78.761470738568079
30
0
40
1.9999999999999947
210
0
220
0
230
1
100
AcDbArc
50
102.99999999999876
51
167.00000000000102
0
LINE
5
123
100
AcDbEntity
8
0
100
AcDbLine
10
-48.413289712125255
20
79.211372847255774
30
0
11
-52.420679791451697
21
61.853459399805885
31
0
0
ARC
5
124
100
AcDbEntity
8
0
100
AcDbCircle
10
-54.369419921022185
20
62.303361508493573
30
0
40
2.0000000000000009
210
-0
220
0
230
1
100
AcDbArc
50
282.99999999999977
51
347.00000000000131
0
LINE
5
125
100
AcDbEntity
8
0
100
AcDbLine
10
-53.919517812334462
20
60.354621378923099
30
0
11
-80.341652289377663
21
54.254590986532001
31
0
0
ARC
5
126
100
AcDbEntity
8
0
100
AcDbCircle
10
-84.840673376254784
20
73.741992282236751
30
0
40
20
210
0
220
0
230
1
100
AcDbArc
50
269.99999999999989
51
282.99999999999949
0
LINE
5
127
100
AcDbEntity
8
0
100
AcDbLine
10
-84.840673376254813
20
53.741992282236751
30
0
11
-98.756722984468496
21
53.741992282236765
31
0
0
ARC
5
128
100
AcDbEntity
8
0
100
AcDbCircle
10
-98.756722984468553
20
33.741992282236843
30
0
40
19.999999999999922
210
0
220
-0
230
1
100
AcDbArc
50
89.999999999999844
51
103.00000000000001
0
LINE
5
129
100
AcDbEntity
8
0
100
AcDbLine
10
-103.25574407134583
20
53.229393577941451
30
0
11
-118.57409631663643
21
49.692873304047055
31
0
0
ARC
5
130
100
AcDbEntity
8
0
100
AcDbCircle
10
-118.34914526229255
20
48.718503239261814
30
0
40
1.0000000000000129
210
0
220
0
230
1
100
AcDbArc
50
103.00000000000054
51
192.99999999999946
0
LINE
5
131
100
AcDbEntity
8
0
100
AcDbLine
10
-119.32351532707781
20
48.493552184917952
30
0
11
-108.30683080100999
21
0.77504894565613824
31
0
0
ARC
5
132
100
AcDbEntity
8
0
100
AcDbCircle
10
-107.33246073622475
20
1.0000000000000111
30
0
40
1.0000000000000211
210
0
220
0
230
1
100
AcDbArc
50
193.00000000000026
51
270
0
LINE
5
133
100
AcDbEntity
8
0
100
AcDbLine
10
-107.33246073622475
20
7.9103390504542404e-15
30
0
11
-53.95988289029016
21
-1.1324274851176597e-13
31
0
0
LINE
5
134
100
AcDbEntity
8
0
100
AcDbLine
10
-34.333691025102922
20
3.7972450866984215
30
0
11
16.434465486039848
21
-7.9235073738086275
31
0
0
LINE
5
135
100
AcDbEntity
8
0
100
AcDbLine
10
-49.460861803412833
20
0.51259870429517829
30
0
11
-35.233495242478376
21
3.7972450866984184
31
0
0
ARC
5
136
100
AcDbEntity
8
0
100
AcDbCircle
10
-53.959882890290125
20
19.99999999999994
30
0
40
20.000000000000053
210
0
220
0
230
1
100
AcDbArc
50
269.99999999999989
51
282.99999999999994
0
ARC
5
137
100
AcDbEntity
8
0
100
AcDbCircle
10
-34.783593133790653
20
1.8485049571279504
30
0
40
2.0000000000000004
210
0
220
-0
230
1
100
AcDbArc
50
76.999999999999986
51
102.99999999999983
0
ENDSEC
0
SECTION
2
OBJECTS
0
DICTIONARY
5
C
100
AcDbDictionary
3
ACAD_GROUP
350
D
3
ACAD_MLINESTYLE
350
17
0
DICTIONARY
5
D
100
AcDbDictionary
0
DICTIONARY
5
1A
330
C
100
AcDbDictionary
0
DICTIONARY
5
17
100
AcDbDictionary
0
ENDSEC
0
EOF
