G04 #@! TF.GenerationSoftware,KiCad,Pcbnew,(5.99.0-12889-g70df3822b5)*
G04 #@! TF.CreationDate,2021-11-23T08:41:31-05:00*
G04 #@! TF.ProjectId,skidPlate,736b6964-506c-4617-9465-2e6b69636164,rev?*
G04 #@! TF.SameCoordinates,Original*
G04 #@! TF.FileFunction,Soldermask,Top*
G04 #@! TF.FilePolarity,Negative*
%FSLAX46Y46*%
G04 Gerber Fmt 4.6, Leading zero omitted, Abs format (unit mm)*
G04 Created by KiCad (PCBNEW (5.99.0-12889-g70df3822b5)) date 2021-11-23 08:41:31*
%MOMM*%
%LPD*%
G01*
G04 APERTURE LIST*
%ADD10C,5.000000*%
%ADD11C,2.600000*%
%ADD12C,1.800000*%
%ADD13O,7.500000X2.500000*%
%ADD14C,3.200000*%
%ADD15C,2.500000*%
%ADD16C,2.300000*%
%ADD17C,4.350000*%
G04 APERTURE END LIST*
D10*
X46409657Y-84121555D03*
D11*
X44882625Y-89820517D03*
X40596515Y-86497978D03*
D12*
X41097065Y-82698050D03*
D11*
X52675732Y-80054762D03*
D12*
X51722249Y-85545060D03*
D10*
X217710104Y-84121555D03*
D12*
X212397512Y-85545060D03*
D11*
X221103287Y-77466571D03*
D12*
X223022696Y-82698050D03*
D11*
X219237136Y-89820517D03*
X213863987Y-89086168D03*
D12*
X218156898Y-64538645D03*
D11*
X208998189Y-70926763D03*
X216237489Y-59307166D03*
X214371338Y-71661112D03*
D12*
X207531714Y-67385655D03*
D10*
X212844306Y-65962150D03*
D12*
X178686274Y-105008252D03*
D11*
X187392049Y-96929763D03*
X185525898Y-109283709D03*
X180152749Y-108549360D03*
D10*
X183998866Y-103584747D03*
D12*
X189311458Y-102161242D03*
D11*
X272253563Y-89086168D03*
D12*
X281412272Y-82698050D03*
D11*
X277626712Y-89820517D03*
D10*
X276099680Y-84121555D03*
D12*
X270787088Y-85545060D03*
D11*
X279492863Y-77466571D03*
D10*
X95067638Y-47802744D03*
D11*
X93540606Y-53501706D03*
X89254496Y-50179167D03*
X101333713Y-43735951D03*
D12*
X100380230Y-49226249D03*
X89755046Y-46379239D03*
X179579862Y-65842431D03*
D10*
X174267270Y-67265936D03*
D11*
X170421153Y-72230549D03*
D12*
X168954678Y-68689441D03*
D11*
X175794302Y-72964898D03*
X177660453Y-60610952D03*
X115931107Y-61895357D03*
X108138000Y-71661112D03*
D12*
X104352440Y-64538645D03*
D11*
X103851890Y-68338573D03*
D10*
X109665032Y-65962150D03*
D12*
X114977624Y-67385655D03*
D13*
X209938945Y-106266490D03*
D14*
X204438945Y-113766490D03*
D15*
X214938945Y-108216490D03*
D16*
X209938945Y-119666490D03*
X212438945Y-120766490D03*
D10*
X209938945Y-113766490D03*
D15*
X204938945Y-117566490D03*
D16*
X207438945Y-120766490D03*
D14*
X215438945Y-113766490D03*
D12*
X252627683Y-90410858D03*
D10*
X257940275Y-88987353D03*
D11*
X254094158Y-93951966D03*
X259467307Y-94686315D03*
D12*
X263252867Y-87563848D03*
D11*
X261333458Y-82332369D03*
X145464032Y-140701337D03*
X155519159Y-133285346D03*
D10*
X148414032Y-135591787D03*
D12*
X143650892Y-132841787D03*
X153177172Y-138341787D03*
D11*
X142183905Y-136382684D03*
D12*
X190676095Y-77117251D03*
X201301279Y-74270241D03*
D11*
X197515719Y-81392708D03*
X199381870Y-69038762D03*
D10*
X195988687Y-75693746D03*
D11*
X192142570Y-80658359D03*
X98986092Y-86497978D03*
X103272202Y-89820517D03*
D10*
X104799234Y-84121555D03*
D12*
X110111826Y-85545060D03*
X99486642Y-82698050D03*
D11*
X111065309Y-80054762D03*
X249228360Y-75792560D03*
D10*
X253074477Y-70827947D03*
D11*
X256467660Y-64172963D03*
D12*
X247761885Y-72251452D03*
D11*
X254601509Y-76526909D03*
D12*
X258387069Y-69404442D03*
X276546474Y-64538644D03*
D11*
X274627065Y-59307165D03*
D12*
X265921290Y-67385654D03*
D10*
X271233882Y-65962149D03*
D11*
X272760914Y-71661111D03*
X267387765Y-70926762D03*
D10*
X227441700Y-47802744D03*
D11*
X228968732Y-53501706D03*
D12*
X222129108Y-49226249D03*
D11*
X223595583Y-52767357D03*
D12*
X232754292Y-46379239D03*
D11*
X230834883Y-41147760D03*
X175650434Y-128285346D03*
X177045307Y-140701337D03*
D12*
X178858447Y-132841787D03*
D10*
X174095307Y-135591787D03*
D11*
X171665180Y-141382684D03*
D12*
X169332167Y-138341787D03*
D11*
X144776547Y-99517954D03*
X136983440Y-109283709D03*
X132697330Y-105961170D03*
D10*
X138510472Y-103584747D03*
D12*
X133197880Y-102161242D03*
X143823064Y-105008252D03*
D11*
X91602117Y-80054762D03*
D10*
X85336042Y-84121555D03*
D12*
X90648634Y-85545060D03*
D11*
X83809010Y-89820517D03*
D12*
X80023450Y-82698050D03*
D11*
X79522900Y-86497978D03*
D17*
X246564578Y-94442594D03*
X124816231Y-107378065D03*
X238796387Y-42288398D03*
X75944760Y-94442594D03*
X161254669Y-66612167D03*
X161254669Y-128687046D03*
X83691940Y-42347504D03*
X197693107Y-107378065D03*
D16*
X110070393Y-120766490D03*
D14*
X107070393Y-113766490D03*
D15*
X117570393Y-108216490D03*
D13*
X112570393Y-106266490D03*
D14*
X118070393Y-113766490D03*
D16*
X115070393Y-120766490D03*
D10*
X112570393Y-113766490D03*
D16*
X112570393Y-119666490D03*
D15*
X107570393Y-117566490D03*
D12*
X253521271Y-51245037D03*
D11*
X244362562Y-57633155D03*
D10*
X248208679Y-52668542D03*
D11*
X249735711Y-58367504D03*
X251601862Y-46013558D03*
D12*
X242896087Y-54092047D03*
X153554660Y-68689442D03*
D11*
X146715036Y-72964899D03*
D12*
X142929476Y-65842432D03*
D10*
X148242068Y-67265937D03*
D11*
X154508143Y-63199144D03*
X142428926Y-69642360D03*
D12*
X59256470Y-87563848D03*
D10*
X64569062Y-88987353D03*
D12*
X69881654Y-90410858D03*
D11*
X63042030Y-94686315D03*
X58755920Y-91363776D03*
X70835137Y-84920560D03*
D12*
X50828661Y-46379239D03*
D10*
X56141253Y-47802744D03*
D11*
X54614221Y-53501706D03*
X50328111Y-50179167D03*
X62407328Y-43735951D03*
D12*
X61453845Y-49226249D03*
D11*
X138194964Y-118252893D03*
X126115747Y-124696109D03*
D12*
X126616297Y-120896181D03*
D10*
X131928889Y-122319686D03*
D11*
X130401857Y-128018648D03*
D12*
X137241481Y-123743191D03*
X126967445Y-95276657D03*
X116342261Y-92429647D03*
D10*
X121654853Y-93853152D03*
D11*
X120127821Y-99552114D03*
X127920928Y-89786359D03*
X115841711Y-96229575D03*
D12*
X131816507Y-77035590D03*
D11*
X124976883Y-81311047D03*
D10*
X126503915Y-75612085D03*
D11*
X132769990Y-71545292D03*
D12*
X121191323Y-74188580D03*
D11*
X120690773Y-77988508D03*
D12*
X185810297Y-58957845D03*
D10*
X191122889Y-57534340D03*
D12*
X196435481Y-56110835D03*
D11*
X194516072Y-50879356D03*
X192649921Y-63233302D03*
X187276772Y-62498953D03*
D10*
X90201840Y-65962149D03*
D11*
X96467915Y-61895356D03*
X88674808Y-71661111D03*
D12*
X95514432Y-67385654D03*
D11*
X84388698Y-68338572D03*
D12*
X84889248Y-64538644D03*
D11*
X120796905Y-43735951D03*
D12*
X119843422Y-49226249D03*
D10*
X114530830Y-47802744D03*
D12*
X109218238Y-46379239D03*
D11*
X113003798Y-53501706D03*
X108717688Y-50179167D03*
D12*
X56588047Y-67385654D03*
D11*
X45462313Y-68338572D03*
D12*
X45962863Y-64538644D03*
D11*
X49748423Y-71661111D03*
D10*
X51275455Y-65962149D03*
D11*
X57541530Y-61895356D03*
X238700328Y-89820517D03*
X240566479Y-77466571D03*
D12*
X242485888Y-82698050D03*
X231860704Y-85545060D03*
D11*
X233327179Y-89086168D03*
D10*
X237173296Y-84121555D03*
D11*
X149642345Y-81358549D03*
X141849238Y-91124304D03*
D12*
X138063678Y-84001837D03*
D11*
X137563128Y-87801765D03*
D10*
X143376270Y-85425342D03*
D12*
X148688862Y-86848847D03*
D11*
X235700681Y-59307166D03*
D12*
X237620090Y-64538645D03*
D11*
X228461381Y-70926763D03*
D12*
X226994906Y-67385655D03*
D10*
X232307498Y-65962150D03*
D11*
X233834530Y-71661112D03*
X125573307Y-59910764D03*
X129859417Y-63233303D03*
D10*
X131386449Y-57534341D03*
D12*
X136699041Y-58957846D03*
D11*
X137652524Y-53467548D03*
D12*
X126073857Y-56110836D03*
X202665916Y-49226249D03*
D11*
X204132391Y-52767357D03*
X211371691Y-41147760D03*
D10*
X207978508Y-47802744D03*
D12*
X213291100Y-46379239D03*
D11*
X209505540Y-53501706D03*
D12*
X79613250Y-54092048D03*
D11*
X68487516Y-55044966D03*
X80566733Y-48601750D03*
D12*
X68988066Y-51245038D03*
D10*
X74300658Y-52668543D03*
D11*
X72773626Y-58367505D03*
D12*
X195893041Y-120896181D03*
X185267857Y-123743191D03*
D11*
X192107481Y-128018648D03*
D10*
X190580449Y-122319686D03*
D11*
X186734332Y-127284299D03*
X193973632Y-115664702D03*
D12*
X173820476Y-86848846D03*
X184445660Y-84001836D03*
D10*
X179133068Y-85425341D03*
D11*
X182526251Y-78770357D03*
X180660100Y-91124303D03*
X175286951Y-90389954D03*
X197008368Y-98817764D03*
X202381517Y-99552113D03*
X204247668Y-87198167D03*
D12*
X206167077Y-92429646D03*
X195541893Y-95276656D03*
D10*
X200854485Y-93853151D03*
D12*
X74747452Y-72251453D03*
D11*
X75700935Y-66761155D03*
D12*
X64122268Y-69404443D03*
D11*
X63621718Y-73204371D03*
D10*
X69434860Y-70827948D03*
D11*
X67907828Y-76526910D03*
X262521967Y-52767357D03*
D12*
X261055492Y-49226249D03*
D10*
X266368084Y-47802744D03*
D11*
X267895116Y-53501706D03*
X269761267Y-41147760D03*
D12*
X271680676Y-46379239D03*
M02*
