M48
; DRILL file {KiCad (5.99.0-12889-g70df3822b5)} date Tue Nov 23 08:41:47 2021
; FORMAT={-:-/ absolute / metric / decimal}
; #@! TF.CreationDate,2021-11-23T08:41:47-05:00
; #@! TF.GenerationSoftware,Kicad,Pcbnew,(5.99.0-12889-g70df3822b5)
; #@! TF.FileFunction,NonPlated,1,2,NPTH
FMAT,2
METRIC
; #@! TA.AperFunction,NonPlated,NPTH,ComponentDrill
T1C1.800
; #@! TA.AperFunction,NonPlated,NPTH,ComponentDrill
T2C2.300
; #@! TA.AperFunction,NonPlated,NPTH,ComponentDrill
T3C2.500
; #@! TA.AperFunction,NonPlated,NPTH,ComponentDrill
T4C2.600
; #@! TA.AperFunction,NonPlated,NPTH,ComponentDrill
T5C3.200
; #@! TA.AperFunction,NonPlated,NPTH,ComponentDrill
T6C4.350
; #@! TA.AperFunction,NonPlated,NPTH,ComponentDrill
T7C5.000
%
G90
G05
T1
X41.097Y-82.698
X45.963Y-64.539
X50.829Y-46.379
X51.722Y-85.545
X56.588Y-67.386
X59.256Y-87.564
X61.454Y-49.226
X64.122Y-69.404
X68.988Y-51.245
X69.882Y-90.411
X74.747Y-72.251
X79.613Y-54.092
X80.023Y-82.698
X84.889Y-64.539
X89.755Y-46.379
X90.649Y-85.545
X95.514Y-67.386
X99.487Y-82.698
X100.38Y-49.226
X104.352Y-64.539
X109.218Y-46.379
X110.112Y-85.545
X114.978Y-67.386
X116.342Y-92.43
X119.843Y-49.226
X121.191Y-74.189
X126.074Y-56.111
X126.616Y-120.896
X126.967Y-95.277
X131.817Y-77.036
X133.198Y-102.161
X136.699Y-58.958
X137.241Y-123.743
X138.064Y-84.002
X142.929Y-65.842
X143.651Y-132.842
X143.823Y-105.008
X148.689Y-86.849
X153.177Y-138.342
X153.555Y-68.689
X168.955Y-68.689
X169.332Y-138.342
X173.82Y-86.849
X178.686Y-105.008
X178.858Y-132.842
X179.58Y-65.842
X184.446Y-84.002
X185.268Y-123.743
X185.81Y-58.958
X189.311Y-102.161
X190.676Y-77.117
X195.542Y-95.277
X195.893Y-120.896
X196.435Y-56.111
X201.301Y-74.27
X202.666Y-49.226
X206.167Y-92.43
X207.532Y-67.386
X212.398Y-85.545
X213.291Y-46.379
X218.157Y-64.539
X222.129Y-49.226
X223.023Y-82.698
X226.995Y-67.386
X231.861Y-85.545
X232.754Y-46.379
X237.62Y-64.539
X242.486Y-82.698
X242.896Y-54.092
X247.762Y-72.251
X252.628Y-90.411
X253.521Y-51.245
X258.387Y-69.404
X261.055Y-49.226
X263.253Y-87.564
X265.921Y-67.386
X270.787Y-85.545
X271.681Y-46.379
X276.546Y-64.539
X281.412Y-82.698
T2
X110.07Y-120.766
X112.57Y-119.666
X115.07Y-120.766
X207.439Y-120.766
X209.939Y-119.666
X212.439Y-120.766
T3
X107.57Y-117.566
X117.57Y-108.216
X204.939Y-117.566
X214.939Y-108.216
T4
X40.597Y-86.498
X44.883Y-89.821
X45.462Y-68.339
X49.748Y-71.661
X50.328Y-50.179
X52.676Y-80.055
X54.614Y-53.502
X57.542Y-61.895
X58.756Y-91.364
X62.407Y-43.736
X63.042Y-94.686
X63.622Y-73.204
X67.908Y-76.527
X68.488Y-55.045
X70.835Y-84.921
X72.774Y-58.368
X75.701Y-66.761
X79.523Y-86.498
X80.567Y-48.602
X83.809Y-89.821
X84.389Y-68.339
X88.675Y-71.661
X89.254Y-50.179
X91.602Y-80.055
X93.541Y-53.502
X96.468Y-61.895
X98.986Y-86.498
X101.334Y-43.736
X103.272Y-89.821
X103.852Y-68.339
X108.138Y-71.661
X108.718Y-50.179
X111.065Y-80.055
X113.004Y-53.502
X115.842Y-96.23
X115.931Y-61.895
X120.128Y-99.552
X120.691Y-77.989
X120.797Y-43.736
X124.977Y-81.311
X125.573Y-59.911
X126.116Y-124.696
X127.921Y-89.786
X129.859Y-63.233
X130.402Y-128.019
X132.697Y-105.961
X132.77Y-71.545
X136.983Y-109.284
X137.563Y-87.802
X137.653Y-53.468
X138.195Y-118.253
X141.849Y-91.124
X142.184Y-136.383
X142.429Y-69.642
X144.777Y-99.518
X145.464Y-140.701
X146.715Y-72.965
X149.642Y-81.359
X154.508Y-63.199
X155.519Y-133.285
X170.421Y-72.231
X171.665Y-141.383
X175.287Y-90.39
X175.65Y-128.285
X175.794Y-72.965
X177.045Y-140.701
X177.66Y-60.611
X180.153Y-108.549
X180.66Y-91.124
X182.526Y-78.77
X185.526Y-109.284
X186.734Y-127.284
X187.277Y-62.499
X187.392Y-96.93
X192.107Y-128.019
X192.143Y-80.658
X192.65Y-63.233
X193.974Y-115.665
X194.516Y-50.879
X197.008Y-98.818
X197.516Y-81.393
X199.382Y-69.039
X202.382Y-99.552
X204.132Y-52.767
X204.248Y-87.198
X208.998Y-70.927
X209.506Y-53.502
X211.372Y-41.148
X213.864Y-89.086
X214.371Y-71.661
X216.237Y-59.307
X219.237Y-89.821
X221.103Y-77.467
X223.596Y-52.767
X228.461Y-70.927
X228.969Y-53.502
X230.835Y-41.148
X233.327Y-89.086
X233.835Y-71.661
X235.701Y-59.307
X238.7Y-89.821
X240.566Y-77.467
X244.363Y-57.633
X249.228Y-75.793
X249.736Y-58.368
X251.602Y-46.014
X254.094Y-93.952
X254.602Y-76.527
X256.468Y-64.173
X259.467Y-94.686
X261.333Y-82.332
X262.522Y-52.767
X267.388Y-70.927
X267.895Y-53.502
X269.761Y-41.148
X272.254Y-89.086
X272.761Y-71.661
X274.627Y-59.307
X277.627Y-89.821
X279.493Y-77.467
T5
X107.07Y-113.766
X118.07Y-113.766
X204.439Y-113.766
X215.439Y-113.766
T6
X75.945Y-94.443
X83.692Y-42.348
X124.816Y-107.378
X161.255Y-66.612
X161.255Y-128.687
X197.693Y-107.378
X238.796Y-42.288
X246.565Y-94.443
T7
X46.41Y-84.122
X51.275Y-65.962
X56.141Y-47.803
X64.569Y-88.987
X69.435Y-70.828
X74.301Y-52.669
X85.336Y-84.122
X90.202Y-65.962
X95.068Y-47.803
X104.799Y-84.122
X109.665Y-65.962
X112.57Y-113.766
X114.531Y-47.803
X121.655Y-93.853
X126.504Y-75.612
X131.386Y-57.534
X131.929Y-122.32
X138.51Y-103.585
X143.376Y-85.425
X148.242Y-67.266
X148.414Y-135.592
X174.095Y-135.592
X174.267Y-67.266
X179.133Y-85.425
X183.999Y-103.585
X190.58Y-122.32
X191.123Y-57.534
X195.989Y-75.694
X200.854Y-93.853
X207.979Y-47.803
X209.939Y-113.766
X212.844Y-65.962
X217.71Y-84.122
X227.442Y-47.803
X232.307Y-65.962
X237.173Y-84.122
X248.209Y-52.669
X253.074Y-70.828
X257.94Y-88.987
X266.368Y-47.803
X271.234Y-65.962
X276.1Y-84.122
T3
X110.07Y-106.266G85X115.07Y-106.266
G05
X207.439Y-106.266G85X212.439Y-106.266
G05
T0
M30
