G04 #@! TF.GenerationSoftware,KiCad,Pcbnew,(5.99.0-12889-g70df3822b5)*
G04 #@! TF.CreationDate,2021-11-23T08:41:31-05:00*
G04 #@! TF.ProjectId,skidPlate,736b6964-506c-4617-9465-2e6b69636164,rev?*
G04 #@! TF.SameCoordinates,Original*
G04 #@! TF.FileFunction,Legend,Bot*
G04 #@! TF.FilePolarity,Positive*
%FSLAX46Y46*%
G04 Gerber Fmt 4.6, Leading zero omitted, Abs format (unit mm)*
G04 Created by KiCad (PCBNEW (5.99.0-12889-g70df3822b5)) date 2021-11-23 08:41:31*
%MOMM*%
%LPD*%
G01*
G04 APERTURE LIST*
%ADD10C,0.300000*%
%ADD11C,0.150000*%
%ADD12C,0.500000*%
G04 APERTURE END LIST*
D10*
X178183240Y-119128013D02*
X178183240Y-120342299D01*
X178254669Y-120485156D01*
X178326097Y-120556584D01*
X178468954Y-120628013D01*
X178683240Y-120628013D01*
X178826097Y-120556584D01*
X178183240Y-120056584D02*
X178326097Y-120128013D01*
X178611811Y-120128013D01*
X178754669Y-120056584D01*
X178826097Y-119985156D01*
X178897526Y-119842299D01*
X178897526Y-119413727D01*
X178826097Y-119270870D01*
X178754669Y-119199442D01*
X178611811Y-119128013D01*
X178326097Y-119128013D01*
X178183240Y-119199442D01*
X177468954Y-120128013D02*
X177468954Y-119128013D01*
X177468954Y-118628013D02*
X177540383Y-118699442D01*
X177468954Y-118770870D01*
X177397526Y-118699442D01*
X177468954Y-118628013D01*
X177468954Y-118770870D01*
X176968954Y-119128013D02*
X176397526Y-119128013D01*
X176754669Y-118628013D02*
X176754669Y-119913727D01*
X176683240Y-120056584D01*
X176540383Y-120128013D01*
X176397526Y-120128013D01*
X175897526Y-120128013D02*
X175897526Y-118628013D01*
X175254669Y-120128013D02*
X175254669Y-119342299D01*
X175326097Y-119199442D01*
X175468954Y-119128013D01*
X175683240Y-119128013D01*
X175826097Y-119199442D01*
X175897526Y-119270870D01*
X173897526Y-119128013D02*
X173897526Y-120128013D01*
X174540383Y-119128013D02*
X174540383Y-119913727D01*
X174468954Y-120056584D01*
X174326097Y-120128013D01*
X174111811Y-120128013D01*
X173968954Y-120056584D01*
X173897526Y-119985156D01*
X173183240Y-120128013D02*
X173183240Y-118628013D01*
X173183240Y-119199442D02*
X173040383Y-119128013D01*
X172754669Y-119128013D01*
X172611811Y-119199442D01*
X172540383Y-119270870D01*
X172468954Y-119413727D01*
X172468954Y-119842299D01*
X172540383Y-119985156D01*
X172611811Y-120056584D01*
X172754669Y-120128013D01*
X173040383Y-120128013D01*
X173183240Y-120056584D01*
X171826097Y-119985156D02*
X171754669Y-120056584D01*
X171826097Y-120128013D01*
X171897526Y-120056584D01*
X171826097Y-119985156D01*
X171826097Y-120128013D01*
X170468954Y-120056584D02*
X170611811Y-120128013D01*
X170897526Y-120128013D01*
X171040383Y-120056584D01*
X171111811Y-119985156D01*
X171183240Y-119842299D01*
X171183240Y-119413727D01*
X171111811Y-119270870D01*
X171040383Y-119199442D01*
X170897526Y-119128013D01*
X170611811Y-119128013D01*
X170468954Y-119199442D01*
X169611811Y-120128013D02*
X169754669Y-120056584D01*
X169826097Y-119985156D01*
X169897526Y-119842299D01*
X169897526Y-119413727D01*
X169826097Y-119270870D01*
X169754669Y-119199442D01*
X169611811Y-119128013D01*
X169397526Y-119128013D01*
X169254669Y-119199442D01*
X169183240Y-119270870D01*
X169111811Y-119413727D01*
X169111811Y-119842299D01*
X169183240Y-119985156D01*
X169254669Y-120056584D01*
X169397526Y-120128013D01*
X169611811Y-120128013D01*
X168468954Y-120128013D02*
X168468954Y-119128013D01*
X168468954Y-119270870D02*
X168397526Y-119199442D01*
X168254669Y-119128013D01*
X168040383Y-119128013D01*
X167897526Y-119199442D01*
X167826097Y-119342299D01*
X167826097Y-120128013D01*
X167826097Y-119342299D02*
X167754669Y-119199442D01*
X167611811Y-119128013D01*
X167397526Y-119128013D01*
X167254669Y-119199442D01*
X167183240Y-119342299D01*
X167183240Y-120128013D01*
X165397526Y-118556584D02*
X166683240Y-120485156D01*
X164254669Y-120056584D02*
X164397526Y-120128013D01*
X164683240Y-120128013D01*
X164826097Y-120056584D01*
X164897526Y-119985156D01*
X164968954Y-119842299D01*
X164968954Y-119413727D01*
X164897526Y-119270870D01*
X164826097Y-119199442D01*
X164683240Y-119128013D01*
X164397526Y-119128013D01*
X164254669Y-119199442D01*
X163754669Y-119128013D02*
X163397526Y-120128013D01*
X163040383Y-119128013D02*
X163397526Y-120128013D01*
X163540383Y-120485156D01*
X163611811Y-120556584D01*
X163754669Y-120628013D01*
X162468954Y-120128013D02*
X162468954Y-119128013D01*
X162468954Y-119413727D02*
X162397526Y-119270870D01*
X162326097Y-119199442D01*
X162183240Y-119128013D01*
X162040383Y-119128013D01*
X161540383Y-120128013D02*
X161540383Y-119128013D01*
X161540383Y-118628013D02*
X161611811Y-118699442D01*
X161540383Y-118770870D01*
X161468954Y-118699442D01*
X161540383Y-118628013D01*
X161540383Y-118770870D01*
X160611811Y-120128013D02*
X160754669Y-120056584D01*
X160826097Y-119913727D01*
X160826097Y-118628013D01*
X160111811Y-118770870D02*
X160040383Y-118699442D01*
X159897526Y-118628013D01*
X159540383Y-118628013D01*
X159397526Y-118699442D01*
X159326097Y-118770870D01*
X159254669Y-118913727D01*
X159254669Y-119056584D01*
X159326097Y-119270870D01*
X160183240Y-120128013D01*
X159254669Y-120128013D01*
X158754669Y-118628013D02*
X157754669Y-118628013D01*
X158397526Y-120128013D01*
X157111811Y-120128013D02*
X156826097Y-120128013D01*
X156683240Y-120056584D01*
X156611811Y-119985156D01*
X156468954Y-119770870D01*
X156397526Y-119485156D01*
X156397526Y-118913727D01*
X156468954Y-118770870D01*
X156540383Y-118699442D01*
X156683240Y-118628013D01*
X156968954Y-118628013D01*
X157111811Y-118699442D01*
X157183240Y-118770870D01*
X157254669Y-118913727D01*
X157254669Y-119270870D01*
X157183240Y-119413727D01*
X157111811Y-119485156D01*
X156968954Y-119556584D01*
X156683240Y-119556584D01*
X156540383Y-119485156D01*
X156468954Y-119413727D01*
X156397526Y-119270870D01*
X154683240Y-118556584D02*
X155968954Y-120485156D01*
X154183240Y-120128013D02*
X154183240Y-118628013D01*
X154040383Y-119556584D02*
X153611811Y-120128013D01*
X153611811Y-119128013D02*
X154183240Y-119699442D01*
X152397526Y-120056584D02*
X152540383Y-120128013D01*
X152826097Y-120128013D01*
X152968954Y-120056584D01*
X153040383Y-119913727D01*
X153040383Y-119342299D01*
X152968954Y-119199442D01*
X152826097Y-119128013D01*
X152540383Y-119128013D01*
X152397526Y-119199442D01*
X152326097Y-119342299D01*
X152326097Y-119485156D01*
X153040383Y-119628013D01*
X151826097Y-119128013D02*
X151468954Y-120128013D01*
X151111811Y-119128013D02*
X151468954Y-120128013D01*
X151611811Y-120485156D01*
X151683240Y-120556584D01*
X151826097Y-120628013D01*
X150540383Y-120128013D02*
X150540383Y-118628013D01*
X150540383Y-119199442D02*
X150397526Y-119128013D01*
X150111811Y-119128013D01*
X149968954Y-119199442D01*
X149897526Y-119270870D01*
X149826097Y-119413727D01*
X149826097Y-119842299D01*
X149897526Y-119985156D01*
X149968954Y-120056584D01*
X150111811Y-120128013D01*
X150397526Y-120128013D01*
X150540383Y-120056584D01*
X148968954Y-120128013D02*
X149111811Y-120056584D01*
X149183240Y-119985156D01*
X149254669Y-119842299D01*
X149254669Y-119413727D01*
X149183240Y-119270870D01*
X149111811Y-119199442D01*
X148968954Y-119128013D01*
X148754669Y-119128013D01*
X148611811Y-119199442D01*
X148540383Y-119270870D01*
X148468954Y-119413727D01*
X148468954Y-119842299D01*
X148540383Y-119985156D01*
X148611811Y-120056584D01*
X148754669Y-120128013D01*
X148968954Y-120128013D01*
X147183240Y-120128013D02*
X147183240Y-119342299D01*
X147254669Y-119199442D01*
X147397526Y-119128013D01*
X147683240Y-119128013D01*
X147826097Y-119199442D01*
X147183240Y-120056584D02*
X147326097Y-120128013D01*
X147683240Y-120128013D01*
X147826097Y-120056584D01*
X147897526Y-119913727D01*
X147897526Y-119770870D01*
X147826097Y-119628013D01*
X147683240Y-119556584D01*
X147326097Y-119556584D01*
X147183240Y-119485156D01*
X146468954Y-120128013D02*
X146468954Y-119128013D01*
X146468954Y-119413727D02*
X146397526Y-119270870D01*
X146326097Y-119199442D01*
X146183240Y-119128013D01*
X146040383Y-119128013D01*
X144897526Y-120128013D02*
X144897526Y-118628013D01*
X144897526Y-120056584D02*
X145040383Y-120128013D01*
X145326097Y-120128013D01*
X145468954Y-120056584D01*
X145540383Y-119985156D01*
X145611811Y-119842299D01*
X145611811Y-119413727D01*
X145540383Y-119270870D01*
X145468954Y-119199442D01*
X145326097Y-119128013D01*
X145040383Y-119128013D01*
X144897526Y-119199442D01*
X144254669Y-120056584D02*
X144111811Y-120128013D01*
X143826097Y-120128013D01*
X143683240Y-120056584D01*
X143611811Y-119913727D01*
X143611811Y-119842299D01*
X143683240Y-119699442D01*
X143826097Y-119628013D01*
X144040383Y-119628013D01*
X144183240Y-119556584D01*
X144254669Y-119413727D01*
X144254669Y-119342299D01*
X144183240Y-119199442D01*
X144040383Y-119128013D01*
X143826097Y-119128013D01*
X143683240Y-119199442D01*
X169254669Y-115128013D02*
X169254669Y-113628013D01*
X168683240Y-113628013D01*
X168540383Y-113699442D01*
X168468954Y-113770870D01*
X168397526Y-113913727D01*
X168397526Y-114128013D01*
X168468954Y-114270870D01*
X168540383Y-114342299D01*
X168683240Y-114413727D01*
X169254669Y-114413727D01*
X167540383Y-115128013D02*
X167683240Y-115056584D01*
X167754669Y-114985156D01*
X167826097Y-114842299D01*
X167826097Y-114413727D01*
X167754669Y-114270870D01*
X167683240Y-114199442D01*
X167540383Y-114128013D01*
X167326097Y-114128013D01*
X167183240Y-114199442D01*
X167111811Y-114270870D01*
X167040383Y-114413727D01*
X167040383Y-114842299D01*
X167111811Y-114985156D01*
X167183240Y-115056584D01*
X167326097Y-115128013D01*
X167540383Y-115128013D01*
X166540383Y-114128013D02*
X166254669Y-115128013D01*
X165968954Y-114413727D01*
X165683240Y-115128013D01*
X165397526Y-114128013D01*
X164254669Y-115056584D02*
X164397526Y-115128013D01*
X164683240Y-115128013D01*
X164826097Y-115056584D01*
X164897526Y-114913727D01*
X164897526Y-114342299D01*
X164826097Y-114199442D01*
X164683240Y-114128013D01*
X164397526Y-114128013D01*
X164254669Y-114199442D01*
X164183240Y-114342299D01*
X164183240Y-114485156D01*
X164897526Y-114628013D01*
X163540383Y-115128013D02*
X163540383Y-114128013D01*
X163540383Y-114413727D02*
X163468954Y-114270870D01*
X163397526Y-114199442D01*
X163254669Y-114128013D01*
X163111811Y-114128013D01*
X162040383Y-115056584D02*
X162183240Y-115128013D01*
X162468954Y-115128013D01*
X162611811Y-115056584D01*
X162683240Y-114913727D01*
X162683240Y-114342299D01*
X162611811Y-114199442D01*
X162468954Y-114128013D01*
X162183240Y-114128013D01*
X162040383Y-114199442D01*
X161968954Y-114342299D01*
X161968954Y-114485156D01*
X162683240Y-114628013D01*
X160683240Y-115128013D02*
X160683240Y-113628013D01*
X160683240Y-115056584D02*
X160826097Y-115128013D01*
X161111811Y-115128013D01*
X161254669Y-115056584D01*
X161326097Y-114985156D01*
X161397526Y-114842299D01*
X161397526Y-114413727D01*
X161326097Y-114270870D01*
X161254669Y-114199442D01*
X161111811Y-114128013D01*
X160826097Y-114128013D01*
X160683240Y-114199442D01*
X158826097Y-115128013D02*
X158826097Y-113628013D01*
X158826097Y-114199442D02*
X158683240Y-114128013D01*
X158397526Y-114128013D01*
X158254669Y-114199442D01*
X158183240Y-114270870D01*
X158111811Y-114413727D01*
X158111811Y-114842299D01*
X158183240Y-114985156D01*
X158254669Y-115056584D01*
X158397526Y-115128013D01*
X158683240Y-115128013D01*
X158826097Y-115056584D01*
X157611811Y-114128013D02*
X157254669Y-115128013D01*
X156897526Y-114128013D02*
X157254669Y-115128013D01*
X157397526Y-115485156D01*
X157468954Y-115556584D01*
X157611811Y-115628013D01*
X155326097Y-113628013D02*
X154326097Y-113628013D01*
X155326097Y-115128013D01*
X154326097Y-115128013D01*
X153754669Y-115128013D02*
X153754669Y-113628013D01*
X153254669Y-114699442D01*
X152754669Y-113628013D01*
X152754669Y-115128013D01*
X152040383Y-115128013D02*
X152040383Y-113628013D01*
X151183240Y-115128013D02*
X151826097Y-114270870D01*
X151183240Y-113628013D02*
X152040383Y-114485156D01*
D11*
X165397526Y-109997061D02*
X165349907Y-109949442D01*
X165254669Y-109901822D01*
X165016573Y-109901822D01*
X164921335Y-109949442D01*
X164873716Y-109997061D01*
X164826097Y-110092299D01*
X164826097Y-110187537D01*
X164873716Y-110330394D01*
X165445145Y-110901822D01*
X164826097Y-110901822D01*
X164207049Y-109901822D02*
X164111811Y-109901822D01*
X164016573Y-109949442D01*
X163968954Y-109997061D01*
X163921335Y-110092299D01*
X163873716Y-110282775D01*
X163873716Y-110520870D01*
X163921335Y-110711346D01*
X163968954Y-110806584D01*
X164016573Y-110854203D01*
X164111811Y-110901822D01*
X164207049Y-110901822D01*
X164302288Y-110854203D01*
X164349907Y-110806584D01*
X164397526Y-110711346D01*
X164445145Y-110520870D01*
X164445145Y-110282775D01*
X164397526Y-110092299D01*
X164349907Y-109997061D01*
X164302288Y-109949442D01*
X164207049Y-109901822D01*
X163492764Y-109997061D02*
X163445145Y-109949442D01*
X163349907Y-109901822D01*
X163111811Y-109901822D01*
X163016573Y-109949442D01*
X162968954Y-109997061D01*
X162921335Y-110092299D01*
X162921335Y-110187537D01*
X162968954Y-110330394D01*
X163540383Y-110901822D01*
X162921335Y-110901822D01*
X161968954Y-110901822D02*
X162540383Y-110901822D01*
X162254669Y-110901822D02*
X162254669Y-109901822D01*
X162349907Y-110044680D01*
X162445145Y-110139918D01*
X162540383Y-110187537D01*
X160826097Y-109854203D02*
X161683240Y-111139918D01*
X159968954Y-110901822D02*
X160540383Y-110901822D01*
X160254669Y-110901822D02*
X160254669Y-109901822D01*
X160349907Y-110044680D01*
X160445145Y-110139918D01*
X160540383Y-110187537D01*
X159349907Y-109901822D02*
X159254669Y-109901822D01*
X159159430Y-109949442D01*
X159111811Y-109997061D01*
X159064192Y-110092299D01*
X159016573Y-110282775D01*
X159016573Y-110520870D01*
X159064192Y-110711346D01*
X159111811Y-110806584D01*
X159159430Y-110854203D01*
X159254669Y-110901822D01*
X159349907Y-110901822D01*
X159445145Y-110854203D01*
X159492764Y-110806584D01*
X159540383Y-110711346D01*
X159588002Y-110520870D01*
X159588002Y-110282775D01*
X159540383Y-110092299D01*
X159492764Y-109997061D01*
X159445145Y-109949442D01*
X159349907Y-109901822D01*
X157921335Y-110235156D02*
X157683240Y-110901822D01*
X157445145Y-110235156D01*
X156873716Y-109901822D02*
X156778478Y-109901822D01*
X156683240Y-109949442D01*
X156635621Y-109997061D01*
X156588002Y-110092299D01*
X156540383Y-110282775D01*
X156540383Y-110520870D01*
X156588002Y-110711346D01*
X156635621Y-110806584D01*
X156683240Y-110854203D01*
X156778478Y-110901822D01*
X156873716Y-110901822D01*
X156968954Y-110854203D01*
X157016573Y-110806584D01*
X157064192Y-110711346D01*
X157111811Y-110520870D01*
X157111811Y-110282775D01*
X157064192Y-110092299D01*
X157016573Y-109997061D01*
X156968954Y-109949442D01*
X156873716Y-109901822D01*
X156111811Y-110806584D02*
X156064192Y-110854203D01*
X156111811Y-110901822D01*
X156159430Y-110854203D01*
X156111811Y-110806584D01*
X156111811Y-110901822D01*
X155111811Y-110901822D02*
X155683240Y-110901822D01*
X155397526Y-110901822D02*
X155397526Y-109901822D01*
X155492764Y-110044680D01*
X155588002Y-110139918D01*
X155683240Y-110187537D01*
D12*
X169778478Y-108711346D02*
X170254669Y-108473251D01*
X170492764Y-108235156D01*
X170730859Y-107758965D01*
X170730859Y-106330394D01*
X170492764Y-105854203D01*
X170254669Y-105616108D01*
X169778478Y-105378013D01*
X169064192Y-105378013D01*
X168588002Y-105616108D01*
X168349907Y-105854203D01*
X168111811Y-106330394D01*
X168111811Y-107758965D01*
X168349907Y-108235156D01*
X168588002Y-108473251D01*
X169064192Y-108711346D01*
X169778478Y-108711346D01*
X165968954Y-105378013D02*
X165968954Y-108711346D01*
X165968954Y-105854203D02*
X165730859Y-105616108D01*
X165254669Y-105378013D01*
X164540383Y-105378013D01*
X164064192Y-105616108D01*
X163826097Y-106092299D01*
X163826097Y-108711346D01*
X159540383Y-108473251D02*
X160016573Y-108711346D01*
X160968954Y-108711346D01*
X161445145Y-108473251D01*
X161683240Y-107997061D01*
X161683240Y-106092299D01*
X161445145Y-105616108D01*
X160968954Y-105378013D01*
X160016573Y-105378013D01*
X159540383Y-105616108D01*
X159302288Y-106092299D01*
X159302288Y-106568489D01*
X161683240Y-107044680D01*
X155016573Y-105378013D02*
X155016573Y-108711346D01*
X156207049Y-103473251D02*
X157397526Y-107044680D01*
X154302288Y-107044680D01*
X152635621Y-104187537D02*
X152397526Y-103949442D01*
X151921335Y-103711346D01*
X150730859Y-103711346D01*
X150254669Y-103949442D01*
X150016573Y-104187537D01*
X149778478Y-104663727D01*
X149778478Y-105139918D01*
X150016573Y-105854203D01*
X152873716Y-108711346D01*
X149778478Y-108711346D01*
M02*
