0
SECTION
2
HEADER
9
$INSUNITS
70
4
9
$ACADVER
1
AC1014
9
$HANDSEED
5
FFFF
0
ENDSEC
0
SECTION
2
TABLES
0
TABLE
2
VPORT
5
8
100
AcDbSymbolTable
0
ENDTAB
0
TABLE
2
LTYPE
5
5
100
AcDbSymbolTable
0
LTYPE
5
14
100
AcDbSymbolTableRecord
100
AcDbLinetypeTableRecord
2
BYBLOCK
70
0
0
LTYPE
5
15
100
AcDbSymbolTableRecord
100
AcDbLinetypeTableRecord
2
BYLAYER
70
0
0
ENDTAB
0
TABLE
2
LAYER
5
2
100
AcDbSymbolTable
70
2
0
LAYER
5
50
100
AcDbSymbolTableRecord
100
AcDbLayerTableRecord
2
0
70
0
6
CONTINUOUS
0
ENDTAB
0
TABLE
2
STYLE
5
3
100
AcDbSymbolTable
70
1
0
STYLE
5
11
100
AcDbSymbolTableRecord
100
AcDbTextStyleTableRecord
2
STANDARD
70
0
0
ENDTAB
0
TABLE
2
VIEW
5
6
100
AcDbSymbolTable
70
0
0
ENDTAB
0
TABLE
2
UCS
5
7
100
AcDbSymbolTable
70
0
0
ENDTAB
0
TABLE
2
APPID
5
9
100
AcDbSymbolTable
70
2
0
APPID
5
12
100
AcDbSymbolTableRecord
100
AcDbRegAppTableRecord
2
ACAD
70
0
0
ENDTAB
0
TABLE
2
DIMSTYLE
5
A
100
AcDbSymbolTable
70
1
0
ENDTAB
0
TABLE
2
BLOCK_RECORD
5
1
100
AcDbSymbolTable
70
1
0
BLOCK_RECORD
5
1F
100
AcDbSymbolTableRecord
100
AcDbBlockTableRecord
2
*MODEL_SPACE
0
BLOCK_RECORD
5
1B
100
AcDbSymbolTableRecord
100
AcDbBlockTableRecord
2
*PAPER_SPACE
0
ENDTAB
0
ENDSEC
0
SECTION
2
BLOCKS
0
BLOCK
5
20
100
AcDbEntity
100
AcDbBlockBegin
2
*MODEL_SPACE
0
ENDBLK
5
21
100
AcDbEntity
100
AcDbBlockEnd
0
BLOCK
5
1C
100
AcDbEntity
100
AcDbBlockBegin
2
*PAPER_SPACE
0
ENDBLK
5
1D
100
AcDbEntity
100
AcDbBlockEnd
0
ENDSEC
0
SECTION
2
ENTITIES
0
LINE
5
100
100
AcDbEntity
8
0
100
AcDbLine
10
-20.929142267072123
20
-7.0996651833519486
30
0
11
-51.681170724256006
21
-1.4554329963445412e-14
31
0
0
LINE
5
101
100
AcDbEntity
8
0
100
AcDbLine
10
-51.681170724256006
20
-1.4554329963445412e-14
30
0
11
-107.10159254509917
21
-3.3759462805655362e-15
31
0
0
LINE
5
102
100
AcDbEntity
8
0
100
AcDbLine
10
-107.10159254509917
20
-3.3759462805655362e-15
30
0
11
-118.57409631663641
21
-49.692873304046998
31
0
0
LINE
5
103
100
AcDbEntity
8
0
100
AcDbLine
10
-118.57409631663641
20
-49.692873304046998
30
0
11
-101.03543515050146
21
-53.741992282236765
31
0
0
LINE
5
104
100
AcDbEntity
8
0
100
AcDbLine
10
-101.03543515050146
20
-53.741992282236765
30
0
11
-82.561961210221966
21
-53.741992282236751
31
0
0
LINE
5
105
100
AcDbEntity
8
0
100
AcDbLine
10
-82.561961210221966
20
-53.741992282236751
30
0
11
-52.701809830530024
21
-60.635751418001433
31
0
0
LINE
5
106
100
AcDbEntity
8
0
100
AcDbLine
10
-52.701809830530024
20
-60.635751418001433
30
0
11
-48.132159673046928
21
-80.429080829060226
31
0
0
LINE
5
107
100
AcDbEntity
8
0
100
AcDbLine
10
-48.132159673046928
20
-80.429080829060226
30
0
11
-19.936905341127925
21
-86.938468194995053
31
0
0
LINE
5
108
100
AcDbEntity
8
0
100
AcDbLine
10
-19.936905341127925
20
-86.938468194995053
30
0
11
22.362438577777674
21
-86.938468194995096
31
0
0
LINE
5
109
100
AcDbEntity
8
0
100
AcDbLine
10
-51.681170724256027
20
-5.2494745616664383e-15
30
0
11
-34.142509558121752
21
-4.0491189781896066
31
0
0
LINE
5
110
100
AcDbEntity
8
0
100
AcDbLine
10
-101.0354351505015
20
-53.741992282236744
30
0
11
-118.57409631663573
21
-49.692873304047147
31
0
0
LINE
5
111
100
AcDbEntity
8
0
100
AcDbLine
10
-64.088487269939392
20
-53.74199228223673
30
0
11
-81.627148436073625
21
-49.692873304047147
31
0
0
LINE
5
112
100
AcDbEntity
8
0
100
AcDbLine
10
-21.824167923845469
20
-86.502759296344124
30
0
11
-48.132159673046928
21
-80.429080829060226
31
0
0
LINE
5
113
100
AcDbEntity
8
0
100
AcDbLine
10
17.999999999999904
20
-86.938468194995096
30
0
11
-18.000000000000099
21
-86.938468194995096
31
0
0
LINE
5
114
100
AcDbEntity
8
0
100
AcDbLine
10
0
20
0
30
0
11
0
21
35
31
0
0
LINE
5
115
100
AcDbEntity
8
0
100
AcDbLine
10
107.10159254509917
20
-2.2918368399928107e-15
30
0
11
118.57409631663641
21
-49.692873304046998
31
0
0
LINE
5
116
100
AcDbEntity
8
0
100
AcDbLine
10
118.57409631663641
20
-49.692873304046998
30
0
11
101.03543515050146
21
-53.741992282236765
31
0
0
LINE
5
117
100
AcDbEntity
8
0
100
AcDbLine
10
101.03543515050146
20
-53.741992282236765
30
0
11
82.561961210221966
21
-53.741992282236751
31
0
0
LINE
5
118
100
AcDbEntity
8
0
100
AcDbLine
10
82.561961210221966
20
-53.741992282236751
30
0
11
52.701809830530024
21
-60.635751418001433
31
0
0
LINE
5
119
100
AcDbEntity
8
0
100
AcDbLine
10
52.701809830530024
20
-60.635751418001433
30
0
11
48.132159673046928
21
-80.429080829060226
31
0
0
LINE
5
120
100
AcDbEntity
8
0
100
AcDbLine
10
48.132159673046928
20
-80.429080829060226
30
0
11
19.936905341127925
21
-86.938468194995053
31
0
0
LINE
5
121
100
AcDbEntity
8
0
100
AcDbLine
10
107.10159254509917
20
-2.2918368399928107e-15
30
0
11
51.681170724257257
21
1.1744061500518833e-13
31
0
0
LINE
5
122
100
AcDbEntity
8
0
100
AcDbLine
10
34.783593133790646
20
-3.9011131727147315
30
0
11
-17.408835550825085
21
8.148458428152491
31
0
0
LINE
5
123
100
AcDbEntity
8
0
100
AcDbLine
10
-17.408835550825085
20
8.148458428152491
30
0
11
-20.929142267072123
21
-7.0996651833519486
31
0
0
LINE
5
124
100
AcDbEntity
8
0
100
AcDbLine
10
14.547868181051641
20
-4.6647489731460565
30
0
11
11.514653252590797
21
-17.803046257292568
31
0
0
LINE
5
125
100
AcDbEntity
8
0
100
AcDbLine
10
11.514653252590797
20
-17.803046257292568
30
0
11
-21.633416351402886
21
-10.15021138851422
31
0
0
LINE
5
126
100
AcDbEntity
8
0
100
AcDbLine
10
42.444433754115479
20
-1.2589458449516747e-13
30
0
11
0.9348127741467227
21
-20.245594890947963
31
0
0
LINE
5
127
100
AcDbEntity
8
0
100
AcDbLine
10
-42.44443375411543
20
-1.9984014443252818e-14
30
0
11
-0.93481277414678488
21
-20.245594890947956
31
0
0
LINE
5
128
100
AcDbEntity
8
0
100
AcDbLine
10
-3.643414333229738
20
-0.41511462835152502
30
0
11
-2.3869795029440866e-14
21
-16.196475912758366
31
0
0
LINE
5
129
100
AcDbEntity
8
0
100
AcDbLine
10
34.783593133790646
20
-3.9011131727147315
30
0
11
51.681170724257257
21
1.1744061500518833e-13
31
0
0
LINE
5
130
100
AcDbEntity
8
0
100
AcDbLine
10
0
20
0
30
0
11
-2.3821430920679734e-14
21
-16.196475912758366
31
0
0
LINE
5
131
100
AcDbEntity
8
0
100
AcDbLine
10
20.929142267072109
20
-7.099665183352009
30
0
11
51.681170724256006
21
-1.665774546158815e-13
31
0
0
LINE
5
132
100
AcDbEntity
8
0
100
AcDbLine
10
-18.473473940281192
20
-16.196475912758309
30
0
11
-0.93481277414691588
21
-20.24559489094791
31
0
0
LINE
5
133
100
AcDbEntity
8
0
100
AcDbLine
10
-35.077322332268615
20
-8.0982379563791582
30
0
11
-17.538661166134336
21
-12.147356934568755
31
0
0
LINE
5
134
100
AcDbEntity
8
0
100
AcDbLine
10
18.473473940281142
20
-16.196475912758363
30
0
11
0.93481277414685615
21
-20.245594890947913
31
0
0
LINE
5
135
100
AcDbEntity
8
0
100
AcDbLine
10
35.077322332268587
20
-8.0982379563792612
30
0
11
17.5386611661343
21
-12.147356934568807
31
0
0
LINE
5
136
100
AcDbEntity
8
0
100
AcDbLine
10
-82.561961210220446
20
-53.741992282236744
30
0
11
-100.10062237635468
21
-49.69287330404714
31
0
0
LINE
5
137
100
AcDbEntity
8
0
100
AcDbLine
10
-110.92576046894486
20
-16.564291101349017
30
0
11
-107.10159254509918
21
-1.1102230246251565e-14
31
0
0
CIRCLE
5
138
100
AcDbEntity
8
0
100
AcDbCircle
10
-17.635378565554451
20
-9.7698249232870999
30
0
40
0.72343781774343074
210
0
220
0
230
1
0
ENDSEC
0
SECTION
2
OBJECTS
0
DICTIONARY
5
C
100
AcDbDictionary
3
ACAD_GROUP
350
D
3
ACAD_MLINESTYLE
350
17
0
DICTIONARY
5
D
100
AcDbDictionary
0
DICTIONARY
5
1A
330
C
100
AcDbDictionary
0
DICTIONARY
5
17
100
AcDbDictionary
0
ENDSEC
0
EOF
