0
SECTION
2
HEADER
9
$INSUNITS
70
4
9
$ACADVER
1
AC1014
9
$HANDSEED
5
FFFF
0
ENDSEC
0
SECTION
2
TABLES
0
TABLE
2
VPORT
5
8
100
AcDbSymbolTable
0
ENDTAB
0
TABLE
2
LTYPE
5
5
100
AcDbSymbolTable
0
LTYPE
5
14
100
AcDbSymbolTableRecord
100
AcDbLinetypeTableRecord
2
BYBLOCK
70
0
0
LTYPE
5
15
100
AcDbSymbolTableRecord
100
AcDbLinetypeTableRecord
2
BYLAYER
70
0
0
ENDTAB
0
TABLE
2
LAYER
5
2
100
AcDbSymbolTable
70
2
0
LAYER
5
50
100
AcDbSymbolTableRecord
100
AcDbLayerTableRecord
2
0
70
0
6
CONTINUOUS
0
ENDTAB
0
TABLE
2
STYLE
5
3
100
AcDbSymbolTable
70
1
0
STYLE
5
11
100
AcDbSymbolTableRecord
100
AcDbTextStyleTableRecord
2
STANDARD
70
0
0
ENDTAB
0
TABLE
2
VIEW
5
6
100
AcDbSymbolTable
70
0
0
ENDTAB
0
TABLE
2
UCS
5
7
100
AcDbSymbolTable
70
0
0
ENDTAB
0
TABLE
2
APPID
5
9
100
AcDbSymbolTable
70
2
0
APPID
5
12
100
AcDbSymbolTableRecord
100
AcDbRegAppTableRecord
2
ACAD
70
0
0
ENDTAB
0
TABLE
2
DIMSTYLE
5
A
100
AcDbSymbolTable
70
1
0
ENDTAB
0
TABLE
2
BLOCK_RECORD
5
1
100
AcDbSymbolTable
70
1
0
BLOCK_RECORD
5
1F
100
AcDbSymbolTableRecord
100
AcDbBlockTableRecord
2
*MODEL_SPACE
0
BLOCK_RECORD
5
1B
100
AcDbSymbolTableRecord
100
AcDbBlockTableRecord
2
*PAPER_SPACE
0
ENDTAB
0
ENDSEC
0
SECTION
2
BLOCKS
0
BLOCK
5
20
100
AcDbEntity
100
AcDbBlockBegin
2
*MODEL_SPACE
0
ENDBLK
5
21
100
AcDbEntity
100
AcDbBlockEnd
0
BLOCK
5
1C
100
AcDbEntity
100
AcDbBlockBegin
2
*PAPER_SPACE
0
ENDBLK
5
1D
100
AcDbEntity
100
AcDbBlockEnd
0
ENDSEC
0
SECTION
2
ENTITIES
0
LINE
5
100
100
AcDbEntity
8
0
100
AcDbLine
10
38.73177729162834
20
-68.60672597170371
30
0
11
41.041563288413187
21
-78.611508291537689
31
0
0
ARC
5
101
100
AcDbEntity
8
0
100
AcDbCircle
10
40.749191583690887
20
-79.567813047500849
30
0
40
0.99999999999997635
210
-0
220
0
230
1
100
AcDbArc
50
-76.999999999972303
51
73.000000000026589
0
LINE
5
102
100
AcDbEntity
8
0
100
AcDbLine
10
40.974142638035218
20
-80.542183112285954
30
0
11
28.307331795824386
21
-83.466546818744192
31
0
0
ARC
5
103
100
AcDbEntity
8
0
100
AcDbCircle
10
28.08238074148214
20
-82.492176753965879
30
0
40
0.99999999999291922
210
0
220
0
230
1
100
AcDbArc
50
133.0000000002332
51
282.99999999999881
0
LINE
5
104
100
AcDbEntity
8
0
100
AcDbLine
10
27.400382381421498
20
-81.760823052354667
30
0
11
25.090596384642112
21
-71.756040732490959
31
0
0
ARC
5
105
100
AcDbEntity
8
0
100
AcDbCircle
10
25.382968089354968
20
-70.799735976538358
30
0
40
0.99999999998711664
210
0
220
0
230
1
100
AcDbArc
50
102.99999999999872
51
253.00000000036658
0
LINE
5
106
100
AcDbEntity
8
0
100
AcDbLine
10
25.158017035014026
20
-69.825365911765672
30
0
11
37.82482787722288
21
-66.901002205298866
31
0
0
ARC
5
107
100
AcDbEntity
8
0
100
AcDbCircle
10
38.049778931566223
20
-67.875372270084213
30
0
40
0.99999999999998179
210
-0
220
0
230
1
100
AcDbArc
50
-47.000000000028727
51
102.99999999996942
0
LINE
5
108
100
AcDbEntity
8
0
100
AcDbLine
10
7.0000000000007851
20
-73.304493598782955
30
0
11
7.0000000000007834
21
-83.572442791207209
31
0
0
ARC
5
109
100
AcDbEntity
8
0
100
AcDbCircle
10
6.5000000000012079
20
-84.438468194991884
30
0
40
0.99999999999996092
210
0
220
0
230
1
100
AcDbArc
50
-89.999999999971251
51
60.000000000028237
0
LINE
5
110
100
AcDbEntity
8
0
100
AcDbLine
10
6.5000000000017089
20
-85.438468194991856
30
0
11
-6.4999999999982911
21
-85.438468194979848
31
0
0
ARC
5
111
100
AcDbEntity
8
0
100
AcDbCircle
10
-6.4999999999982965
20
-84.438468194986953
30
0
40
0.99999999999291966
210
0
220
0
230
1
100
AcDbArc
50
120.00000000023424
51
270.00000000000034
0
LINE
5
112
100
AcDbEntity
8
0
100
AcDbLine
10
-6.9999999999982965
20
-83.57244279121069
30
0
11
-6.9999999999862936
21
-73.304493598758697
31
0
0
ARC
5
113
100
AcDbEntity
8
0
100
AcDbCircle
10
-6.4999999999982823
20
-72.438468194982207
30
0
40
0.99999999998712674
210
0
220
0
230
1
100
AcDbArc
50
90.000000000000199
51
240.00000000036715
0
LINE
5
114
100
AcDbEntity
8
0
100
AcDbLine
10
-6.4999999999982876
20
-71.438468194995082
30
0
11
6.5000000000017133
21
-71.438468194998308
31
0
0
ARC
5
115
100
AcDbEntity
8
0
100
AcDbCircle
10
6.5000000000012212
20
-72.438468194998308
30
0
40
0.99999999999996914
210
0
220
0
230
1
100
AcDbArc
50
-60.000000000027718
51
89.999999999971806
0
LINE
5
116
100
AcDbEntity
8
0
100
AcDbLine
10
-25.090596384633788
20
-71.756040732517747
30
0
11
-27.400382381418655
21
-81.760823052351725
31
0
0
ARC
5
117
100
AcDbEntity
8
0
100
AcDbCircle
10
-28.082380741480787
20
-82.492176753971222
30
0
40
0.99999999999997102
210
0
220
0
230
1
100
AcDbArc
50
-102.99999999996957
51
47.000000000028294
0
LINE
5
118
100
AcDbEntity
8
0
100
AcDbLine
10
-28.30733179582413
20
-83.466546818756555
30
0
11
-40.974142638029541
21
-80.54218311227487
31
0
0
ARC
5
119
100
AcDbEntity
8
0
100
AcDbCircle
10
-40.749191583687292
20
-79.567813047496543
30
0
40
0.99999999999290745
210
0
220
0
230
1
100
AcDbArc
50
107.00000000023563
51
257.00000000000125
0
LINE
5
120
100
AcDbEntity
8
0
100
AcDbLine
10
-41.041563288411886
20
-78.611508291541497
30
0
11
-38.731777291609092
21
-68.60672597168319
31
0
0
ARC
5
121
100
AcDbEntity
8
0
100
AcDbCircle
10
-38.049778931560098
20
-67.87537227006905
30
0
40
0.99999999998711209
210
0
220
-0
230
1
100
AcDbArc
50
77.00000000000027
51
227.00000000036931
0
LINE
5
122
100
AcDbEntity
8
0
100
AcDbLine
10
-37.824827877219136
20
-66.901002205296365
30
0
11
-25.158017035011749
21
-69.825365911769495
31
0
0
ARC
5
123
100
AcDbEntity
8
0
100
AcDbCircle
10
-25.382968089356076
20
-70.799735976554601
30
0
40
0.99999999999997968
210
0
220
0
230
1
100
AcDbArc
50
-73.000000000026404
51
76.999999999972545
0
LINE
5
124
100
AcDbEntity
8
0
100
AcDbLine
10
24.931112571339305
20
-53.054299091412354
30
0
11
27.240898568124351
21
-63.059081411246289
31
0
0
ARC
5
125
100
AcDbEntity
8
0
100
AcDbCircle
10
26.948526863402083
20
-64.015386167209442
30
0
40
0.99999999999997846
210
-0
220
0
230
1
100
AcDbArc
50
-76.999999999971905
51
73.000000000027569
0
LINE
5
126
100
AcDbEntity
8
0
100
AcDbLine
10
27.173477917746421
20
-64.989756231994548
30
0
11
14.506667075535651
21
-67.914119938453069
31
0
0
ARC
5
127
100
AcDbEntity
8
0
100
AcDbCircle
10
14.281716021193379
20
-66.939749873674742
30
0
40
0.99999999999291378
210
0
220
0
230
1
100
AcDbArc
50
133.00000000023431
51
283.00000000000011
0
LINE
5
128
100
AcDbEntity
8
0
100
AcDbLine
10
13.599717661132724
20
-66.208396172063544
30
0
11
11.289931664353121
21
-56.203613852199894
31
0
0
ARC
5
129
100
AcDbEntity
8
0
100
AcDbCircle
10
11.582303369065983
20
-55.247309096247292
30
0
40
0.99999999998712463
210
0
220
0
230
1
100
AcDbArc
50
103.00000000000072
51
253.0000000003663
0
LINE
5
130
100
AcDbEntity
8
0
100
AcDbLine
10
11.357352314725002
20
-54.272939031474607
30
0
11
24.024163156933792
21
-51.348575325007538
31
0
0
ARC
5
131
100
AcDbEntity
8
0
100
AcDbCircle
10
24.24911421127717
20
-52.322945389792864
30
0
40
0.99999999999998135
210
-0
220
0
230
1
100
AcDbArc
50
-47.00000000002801
51
102.99999999997168
0
LINE
5
132
100
AcDbEntity
8
0
100
AcDbLine
10
41.534534988623832
20
-44.956268896777765
30
0
11
43.844320985408878
21
-54.9610512166117
31
0
0
ARC
5
133
100
AcDbEntity
8
0
100
AcDbCircle
10
43.551949280686614
20
-55.91735597257486
30
0
40
0.99999999999997846
210
-0
220
0
230
1
100
AcDbArc
50
-76.999999999972303
51
73.000000000027882
0
LINE
5
134
100
AcDbEntity
8
0
100
AcDbLine
10
43.776900335030945
20
-56.891726037359966
30
0
11
31.11008949282018
21
-59.81608974381848
31
0
0
ARC
5
135
100
AcDbEntity
8
0
100
AcDbCircle
10
30.88513843847791
20
-58.841719679040153
30
0
40
0.99999999999291833
210
0
220
0
230
1
100
AcDbArc
50
133.00000000023425
51
283
0
LINE
5
136
100
AcDbEntity
8
0
100
AcDbLine
10
30.203140078417249
20
-58.110365977428948
30
0
11
27.89335408163765
21
-48.105583657565305
31
0
0
ARC
5
137
100
AcDbEntity
8
0
100
AcDbCircle
10
28.18572578635051
20
-47.149278901612703
30
0
40
0.99999999998712363
210
0
220
0
230
1
100
AcDbArc
50
103.00000000000053
51
253.00000000036638
0
LINE
5
138
100
AcDbEntity
8
0
100
AcDbLine
10
27.960774732009529
20
-46.174908836840018
30
0
11
40.627585574218315
21
-43.250545130372949
31
0
0
ARC
5
139
100
AcDbEntity
8
0
100
AcDbCircle
10
40.852536628561708
20
-44.224915195158275
30
0
40
0.99999999999997224
210
-0
220
0
230
1
100
AcDbArc
50
-47.000000000028471
51
102.99999999997239
0
LINE
5
140
100
AcDbEntity
8
0
100
AcDbLine
10
21.106944647493435
20
-36.49000799006339
30
0
11
23.416730644278477
21
-46.494790309897326
31
0
0
ARC
5
141
100
AcDbEntity
8
0
100
AcDbCircle
10
23.124358939556217
20
-47.451095065860486
30
0
40
0.99999999999997746
210
-0
220
0
230
1
100
AcDbArc
50
-76.999999999972104
51
73.000000000028194
0
LINE
5
142
100
AcDbEntity
8
0
100
AcDbLine
10
23.349309993900551
20
-48.425465130645591
30
0
11
10.682499151689786
21
-51.349828837104106
31
0
0
ARC
5
143
100
AcDbEntity
8
0
100
AcDbCircle
10
10.457548097347519
20
-50.375458772325779
30
0
40
0.99999999999291034
210
0
220
0
230
1
100
AcDbArc
50
133.00000000023465
51
282.99999999999977
0
LINE
5
144
100
AcDbEntity
8
0
100
AcDbLine
10
9.7755497372868625
20
-49.644105070714588
30
0
11
7.4657637405072652
21
-39.63932275085093
31
0
0
ARC
5
145
100
AcDbEntity
8
0
100
AcDbCircle
10
7.7581354452201099
20
-38.683017994898329
30
0
40
0.99999999998712286
210
0
220
0
230
1
100
AcDbArc
50
103.00000000000027
51
253.00000000036721
0
LINE
5
146
100
AcDbEntity
8
0
100
AcDbLine
10
7.5331843908791374
20
-37.708647930125643
30
0
11
20.199995233087932
21
-34.784284223658581
31
0
0
ARC
5
147
100
AcDbEntity
8
0
100
AcDbCircle
10
20.424946287431311
20
-35.758654288443907
30
0
40
0.99999999999997824
210
-0
220
0
230
1
100
AcDbArc
50
-47.00000000002791
51
102.99999999997159
0
LINE
5
148
100
AcDbEntity
8
0
100
AcDbLine
10
37.710367064777962
20
-28.391977795428804
30
0
11
40.020153061563008
21
-38.396760115262737
31
0
0
ARC
5
149
100
AcDbEntity
8
0
100
AcDbCircle
10
39.727781356840737
20
-39.353064871225897
30
0
40
0.99999999999997846
210
-0
220
0
230
1
100
AcDbArc
50
-76.999999999971905
51
73.000000000027484
0
LINE
5
150
100
AcDbEntity
8
0
100
AcDbLine
10
39.952732411185082
20
-40.327434936011002
30
0
11
27.285921568974313
21
-43.251798642469517
31
0
0
ARC
5
151
100
AcDbEntity
8
0
100
AcDbCircle
10
27.060970514632054
20
-42.27742857769119
30
0
40
0.99999999999291489
210
0
220
0
230
1
100
AcDbArc
50
133.00000000023496
51
282.99999999999932
0
LINE
5
152
100
AcDbEntity
8
0
100
AcDbLine
10
26.37897215457139
20
-41.546074876079999
30
0
11
24.069186157791794
21
-31.541292556216341
31
0
0
ARC
5
153
100
AcDbEntity
8
0
100
AcDbCircle
10
24.361557862504636
20
-30.58498780026374
30
0
40
0.99999999998712252
210
0
220
0
230
1
100
AcDbArc
50
103.00000000000009
51
253.00000000036735
0
LINE
5
154
100
AcDbEntity
8
0
100
AcDbLine
10
24.136606808163666
20
-29.610617735491054
30
0
11
36.803417650372459
21
-26.686254029023992
31
0
0
ARC
5
155
100
AcDbEntity
8
0
100
AcDbCircle
10
37.028368704715838
20
-27.660624093809318
30
0
40
0.99999999999997824
210
-0
220
0
230
1
100
AcDbArc
50
-47.00000000002801
51
102.99999999997168
0
LINE
5
156
100
AcDbEntity
8
0
100
AcDbLine
10
113.55695740590835
20
-36.858238702143169
30
0
11
115.8667434026934
21
-46.863021021977112
31
0
0
ARC
5
157
100
AcDbEntity
8
0
100
AcDbCircle
10
115.57437169797117
20
-47.819325777940271
30
0
40
0.99999999999997846
210
-0
220
0
230
1
100
AcDbArc
50
-76.999999999972303
51
73.000000000029829
0
LINE
5
158
100
AcDbEntity
8
0
100
AcDbLine
10
115.79932275231549
20
-48.793695842725377
30
0
11
103.13251191010472
21
-51.718059549183891
31
0
0
ARC
5
159
100
AcDbEntity
8
0
100
AcDbCircle
10
102.90756085576245
20
-50.743689484405564
30
0
40
0.99999999999291189
210
0
220
0
230
1
100
AcDbArc
50
133.0000000002351
51
283.00000000000028
0
LINE
5
160
100
AcDbEntity
8
0
100
AcDbLine
10
102.22556249570178
20
-50.012335782794366
30
0
11
99.915776498922185
21
-40.007553462930716
31
0
0
ARC
5
161
100
AcDbEntity
8
0
100
AcDbCircle
10
100.20814820363506
20
-39.051248706978122
30
0
40
0.99999999998713296
210
0
220
0
230
1
100
AcDbArc
50
103.00000000000122
51
253.00000000036533
0
LINE
5
162
100
AcDbEntity
8
0
100
AcDbLine
10
99.983197149294071
20
-38.076878642205422
30
0
11
112.65000799150286
21
-35.15251493573836
31
0
0
ARC
5
163
100
AcDbEntity
8
0
100
AcDbCircle
10
112.87495904584628
20
-36.126885000523686
30
0
40
0.99999999999995137
210
-0
220
0
230
1
100
AcDbArc
50
-47.00000000003056
51
102.99999999997415
0
LINE
5
164
100
AcDbEntity
8
0
100
AcDbLine
10
95.08395740590835
20
-36.858238702143176
30
0
11
97.393743402693389
21
-46.863021021977112
31
0
0
ARC
5
165
100
AcDbEntity
8
0
100
AcDbCircle
10
97.101371697971132
20
-47.819325777940271
30
0
40
0.99999999999997846
210
-0
220
0
230
1
100
AcDbArc
50
-76.999999999972303
51
73.000000000028265
0
LINE
5
166
100
AcDbEntity
8
0
100
AcDbLine
10
97.326322752315463
20
-48.793695842725377
30
0
11
84.659511910104698
21
-51.718059549183891
31
0
0
ARC
5
167
100
AcDbEntity
8
0
100
AcDbCircle
10
84.434560855762427
20
-50.743689484405564
30
0
40
0.99999999999290634
210
0
220
0
230
1
100
AcDbArc
50
133.00000000023365
51
282.99999999999977
0
LINE
5
168
100
AcDbEntity
8
0
100
AcDbLine
10
83.752562495701781
20
-50.012335782794359
30
0
11
81.442776498922171
21
-40.007553462930716
31
0
0
ARC
5
169
100
AcDbEntity
8
0
100
AcDbCircle
10
81.735148203635021
20
-39.051248706978122
30
0
40
0.99999999998712497
210
0
220
0
230
1
100
AcDbArc
50
102.99999999999963
51
253.00000000036684
0
LINE
5
170
100
AcDbEntity
8
0
100
AcDbLine
10
81.510197149294058
20
-38.076878642205429
30
0
11
94.177007991502833
21
-35.15251493573836
31
0
0
ARC
5
171
100
AcDbEntity
8
0
100
AcDbCircle
10
94.40195904584624
20
-36.126885000523686
30
0
40
0.99999999999997224
210
-0
220
0
230
1
100
AcDbArc
50
-47.000000000028784
51
102.99999999997308
0
LINE
5
172
100
AcDbEntity
8
0
100
AcDbLine
10
76.610957405908351
20
-36.858238702143176
30
0
11
78.920743402693404
21
-46.863021021977112
31
0
0
ARC
5
173
100
AcDbEntity
8
0
100
AcDbCircle
10
78.628371697971133
20
-47.819325777940271
30
0
40
0.99999999999997846
210
-0
220
0
230
1
100
AcDbArc
50
-76.999999999972303
51
73.000000000027484
0
LINE
5
174
100
AcDbEntity
8
0
100
AcDbLine
10
78.853322752315464
20
-48.793695842725377
30
0
11
66.186511910104699
21
-51.718059549183891
31
0
0
ARC
5
175
100
AcDbEntity
8
0
100
AcDbCircle
10
65.961560855762428
20
-50.74368948440555
30
0
40
0.99999999999291189
210
0
220
0
230
1
100
AcDbArc
50
133.00000000023419
51
282.99999999999977
0
LINE
5
176
100
AcDbEntity
8
0
100
AcDbLine
10
65.279562495701782
20
-50.012335782794359
30
0
11
62.969776498922172
21
-40.007553462930716
31
0
0
ARC
5
177
100
AcDbEntity
8
0
100
AcDbCircle
10
63.262148203635029
20
-39.051248706978122
30
0
40
0.99999999998712252
210
0
220
0
230
1
100
AcDbArc
50
103.00000000000003
51
253.00000000036644
0
LINE
5
178
100
AcDbEntity
8
0
100
AcDbLine
10
63.037197149294059
20
-38.076878642205429
30
0
11
75.704007991502834
21
-35.15251493573836
31
0
0
ARC
5
179
100
AcDbEntity
8
0
100
AcDbCircle
10
75.928959045846213
20
-36.126885000523686
30
0
40
0.99999999999997824
210
-0
220
0
230
1
100
AcDbArc
50
-47.000000000027562
51
102.99999999997176
0
LINE
5
180
100
AcDbEntity
8
0
100
AcDbLine
10
109.7327894820625
20
-20.293947600794205
30
0
11
112.04257547884754
21
-30.298729920628148
31
0
0
ARC
5
181
100
AcDbEntity
8
0
100
AcDbCircle
10
111.75020377412528
20
-31.255034676591308
30
0
40
0.99999999999997413
210
-0
220
0
230
1
100
AcDbArc
50
-76.999999999972204
51
73.000000000028336
0
LINE
5
182
100
AcDbEntity
8
0
100
AcDbLine
10
111.97515482846961
20
-32.229404741376406
30
0
11
99.308343986258848
21
-35.153768447834921
31
0
0
ARC
5
183
100
AcDbEntity
8
0
100
AcDbCircle
10
99.083392931916592
20
-34.179398383056594
30
0
40
0.99999999999290856
210
0
220
0
230
1
100
AcDbArc
50
133.00000000023479
51
282.99999999999909
0
LINE
5
184
100
AcDbEntity
8
0
100
AcDbLine
10
98.401394571855931
20
-33.448044681445403
30
0
11
96.091608575076322
21
-23.443262361581748
31
0
0
ARC
5
185
100
AcDbEntity
8
0
100
AcDbCircle
10
96.383980279789171
20
-22.486957605629151
30
0
40
0.99999999998712463
210
0
220
0
230
1
100
AcDbArc
50
103.00000000000048
51
253.00000000036687
0
LINE
5
186
100
AcDbEntity
8
0
100
AcDbLine
10
96.159029225448194
20
-21.512587540856458
30
0
11
108.825840067657
21
-18.588223834389389
31
0
0
ARC
5
187
100
AcDbEntity
8
0
100
AcDbCircle
10
109.0507911220004
20
-19.562593899174715
30
0
40
0.99999999999996514
210
-0
220
0
230
1
100
AcDbArc
50
-47.000000000029644
51
102.99999999997345
0
LINE
5
188
100
AcDbEntity
8
0
100
AcDbLine
10
91.259789482062502
20
-20.293947600794212
30
0
11
93.56957547884754
21
-30.298729920628151
31
0
0
ARC
5
189
100
AcDbEntity
8
0
100
AcDbCircle
10
93.277203774125269
20
-31.255034676591308
30
0
40
0.99999999999997846
210
-0
220
0
230
1
100
AcDbArc
50
-76.99999999997155
51
73.000000000027612
0
LINE
5
190
100
AcDbEntity
8
0
100
AcDbLine
10
93.502154828469614
20
-32.229404741376413
30
0
11
80.835343986258849
21
-35.153768447834928
31
0
0
ARC
5
191
100
AcDbEntity
8
0
100
AcDbCircle
10
80.610392931916564
20
-34.179398383056594
30
0
40
0.99999999999290901
210
0
220
0
230
1
100
AcDbArc
50
133.00000000023394
51
283.0000000000008
0
LINE
5
192
100
AcDbEntity
8
0
100
AcDbLine
10
79.928394571855918
20
-33.448044681445396
30
0
11
77.618608575076308
21
-23.443262361581752
31
0
0
ARC
5
193
100
AcDbEntity
8
0
100
AcDbCircle
10
77.910980279789158
20
-22.486957605629154
30
0
40
0.99999999998712696
210
0
220
0
230
1
100
AcDbArc
50
103.00000000000044
51
253.00000000036687
0
LINE
5
194
100
AcDbEntity
8
0
100
AcDbLine
10
77.686029225448181
20
-21.512587540856462
30
0
11
90.352840067656985
21
-18.588223834389392
31
0
0
ARC
5
195
100
AcDbEntity
8
0
100
AcDbCircle
10
90.577791122000377
20
-19.562593899174722
30
0
40
0.99999999999997069
210
-0
220
0
230
1
100
AcDbArc
50
-47.00000000002791
51
102.99999999997223
0
LINE
5
196
100
AcDbEntity
8
0
100
AcDbLine
10
72.786789482062488
20
-20.293947600794212
30
0
11
75.096575478847541
21
-30.298729920628151
31
0
0
ARC
5
197
100
AcDbEntity
8
0
100
AcDbCircle
10
74.80420377412527
20
-31.255034676591308
30
0
40
0.99999999999997846
210
-0
220
0
230
1
100
AcDbArc
50
-76.999999999972303
51
73.000000000027612
0
LINE
5
198
100
AcDbEntity
8
0
100
AcDbLine
10
75.029154828469601
20
-32.229404741376413
30
0
11
62.362343986258836
21
-35.153768447834928
31
0
0
ARC
5
199
100
AcDbEntity
8
0
100
AcDbCircle
10
62.137392931916587
20
-34.179398383056594
30
0
40
0.9999999999929241
210
0
220
0
230
1
100
AcDbArc
50
133.0000000002351
51
282.99999999999869
0
LINE
5
200
100
AcDbEntity
8
0
100
AcDbLine
10
61.455394571855912
20
-33.448044681445396
30
0
11
59.145608575076317
21
-23.443262361581752
31
0
0
ARC
5
201
100
AcDbEntity
8
0
100
AcDbCircle
10
59.437980279789159
20
-22.486957605629151
30
0
40
0.99999999998712252
210
0
220
0
230
1
100
AcDbArc
50
103.00000000000009
51
253.00000000036735
0
LINE
5
202
100
AcDbEntity
8
0
100
AcDbLine
10
59.213029225448189
20
-21.512587540856462
30
0
11
71.879840067656986
21
-18.588223834389396
31
0
0
ARC
5
203
100
AcDbEntity
8
0
100
AcDbCircle
10
72.10479112200035
20
-19.562593899174722
30
0
40
0.99999999999998601
210
-0
220
0
230
1
100
AcDbArc
50
-47.000000000027562
51
102.99999999997094
0
LINE
5
204
100
AcDbEntity
8
0
100
AcDbLine
10
58.137957405908352
20
-36.858238702143176
30
0
11
60.447743402693405
21
-46.863021021977112
31
0
0
ARC
5
205
100
AcDbEntity
8
0
100
AcDbCircle
10
60.155371697971134
20
-47.819325777940271
30
0
40
0.99999999999997846
210
-0
220
0
230
1
100
AcDbArc
50
-76.999999999971905
51
73.000000000027484
0
LINE
5
206
100
AcDbEntity
8
0
100
AcDbLine
10
60.380322752315472
20
-48.793695842725377
30
0
11
47.713511910104707
21
-51.718059549183891
31
0
0
ARC
5
207
100
AcDbEntity
8
0
100
AcDbCircle
10
47.488560855762444
20
-50.743689484405564
30
0
40
0.99999999999291189
210
0
220
0
230
1
100
AcDbArc
50
133.00000000023451
51
282.99999999999949
0
LINE
5
208
100
AcDbEntity
8
0
100
AcDbLine
10
46.806562495701783
20
-50.012335782794366
30
0
11
44.496776498922188
21
-40.007553462930723
31
0
0
ARC
5
209
100
AcDbEntity
8
0
100
AcDbCircle
10
44.78914820363503
20
-39.051248706978114
30
0
40
0.9999999999871183
210
0
220
0
230
1
100
AcDbArc
50
103.00000000000014
51
253.00000000036746
0
LINE
5
210
100
AcDbEntity
8
0
100
AcDbLine
10
44.56419714929406
20
-38.076878642205429
30
0
11
57.23100799150285
21
-35.15251493573836
31
0
0
ARC
5
211
100
AcDbEntity
8
0
100
AcDbCircle
10
57.455959045846228
20
-36.126885000523686
30
0
40
0.99999999999997824
210
-0
220
0
230
1
100
AcDbArc
50
-47.000000000028166
51
102.99999999997168
0
LINE
5
212
100
AcDbEntity
8
0
100
AcDbLine
10
54.313789482062489
20
-20.293947600794212
30
0
11
56.623575478847535
21
-30.298729920628151
31
0
0
ARC
5
213
100
AcDbEntity
8
0
100
AcDbCircle
10
56.331203774125271
20
-31.255034676591308
30
0
40
0.99999999999997846
210
-0
220
0
230
1
100
AcDbArc
50
-76.999999999971905
51
73.00000000002801
0
LINE
5
214
100
AcDbEntity
8
0
100
AcDbLine
10
56.556154828469609
20
-32.229404741376413
30
0
11
43.889343986258844
21
-35.153768447834928
31
0
0
ARC
5
215
100
AcDbEntity
8
0
100
AcDbCircle
10
43.664392931916581
20
-34.179398383056594
30
0
40
0.99999999999291789
210
0
220
0
230
1
100
AcDbArc
50
133.00000000023482
51
282.9999999999996
0
LINE
5
216
100
AcDbEntity
8
0
100
AcDbLine
10
42.982394571855913
20
-33.448044681445396
30
0
11
40.672608575076325
21
-23.443262361581752
31
0
0
ARC
5
217
100
AcDbEntity
8
0
100
AcDbCircle
10
40.964980279789167
20
-22.486957605629154
30
0
40
0.99999999998712696
210
0
220
0
230
1
100
AcDbArc
50
103.00000000000003
51
253.00000000036732
0
LINE
5
218
100
AcDbEntity
8
0
100
AcDbLine
10
40.740029225448197
20
-21.512587540856462
30
0
11
53.406840067656987
21
-18.588223834389396
31
0
0
ARC
5
219
100
AcDbEntity
8
0
100
AcDbCircle
10
53.631791122000365
20
-19.562593899174729
30
0
40
0.99999999999997824
210
-0
220
0
230
1
100
AcDbArc
50
-47.00000000002801
51
102.99999999997164
0
LINE
5
220
100
AcDbEntity
8
0
100
AcDbLine
10
17.282776723647572
20
-19.92571688871443
30
0
11
19.592562720432618
21
-29.930499208548369
31
0
0
ARC
5
221
100
AcDbEntity
8
0
100
AcDbCircle
10
19.300191015710347
20
-30.886803964511522
30
0
40
0.99999999999998268
210
-0
220
0
230
1
100
AcDbArc
50
-76.999999999971905
51
73.000000000027612
0
LINE
5
222
100
AcDbEntity
8
0
100
AcDbLine
10
19.525142070054684
20
-31.861174029296624
30
0
11
6.8583312278439212
21
-34.785537735755142
31
0
0
ARC
5
223
100
AcDbEntity
8
0
100
AcDbCircle
10
6.6333801735016547
20
-33.811167670976808
30
0
40
0.99999999999291522
210
0
220
0
230
1
100
AcDbArc
50
133.00000000023451
51
282.99999999999977
0
LINE
5
224
100
AcDbEntity
8
0
100
AcDbLine
10
5.9513818134409942
20
-33.07981396936561
30
0
11
3.6415958166614004
21
-23.075031649501973
31
0
0
ARC
5
225
100
AcDbEntity
8
0
100
AcDbCircle
10
3.9339675213742402
20
-22.118726893549372
30
0
40
0.99999999998712075
210
0
220
0
230
1
100
AcDbArc
50
102.99999999999976
51
253.00000000036746
0
LINE
5
226
100
AcDbEntity
8
0
100
AcDbLine
10
3.709016467033277
20
-21.144356828776679
30
0
11
16.375827309242066
21
-18.219993122309617
31
0
0
ARC
5
227
100
AcDbEntity
8
0
100
AcDbCircle
10
16.600778363585441
20
-19.194363187094943
30
0
40
0.99999999999997979
210
-0
220
0
230
1
100
AcDbArc
50
-47.000000000027711
51
102.99999999997148
0
LINE
5
228
100
AcDbEntity
8
0
100
AcDbLine
10
33.886199140932099
20
-11.827686694079841
30
0
11
36.195985137717145
21
-21.83246901391378
31
0
0
ARC
5
229
100
AcDbEntity
8
0
100
AcDbCircle
10
35.903613432994874
20
-22.788773769876936
30
0
40
0.99999999999997413
210
-0
220
0
230
1
100
AcDbArc
50
-76.999999999971863
51
73.000000000027541
0
LINE
5
230
100
AcDbEntity
8
0
100
AcDbLine
10
36.128564487339212
20
-23.763143834662035
30
0
11
23.46175364512845
21
-26.687507541120553
31
0
0
ARC
5
231
100
AcDbEntity
8
0
100
AcDbCircle
10
23.23680259078618
20
-25.713137476342219
30
0
40
0.999999999992912
210
0
220
0
230
1
100
AcDbArc
50
133.00000000023451
51
283
0
LINE
5
232
100
AcDbEntity
8
0
100
AcDbLine
10
22.554804230725523
20
-24.981783774731024
30
0
11
20.245018233945927
21
-14.977001454867377
31
0
0
ARC
5
233
100
AcDbEntity
8
0
100
AcDbCircle
10
20.537389938658773
20
-14.020696698914779
30
0
40
0.99999999998712608
210
0
220
0
230
1
100
AcDbArc
50
102.99999999999983
51
253.00000000036709
0
LINE
5
234
100
AcDbEntity
8
0
100
AcDbLine
10
20.312438884317807
20
-13.046326634142089
30
0
11
32.979249726526596
21
-10.121962927675025
31
0
0
ARC
5
235
100
AcDbEntity
8
0
100
AcDbCircle
10
33.204200780869968
20
-11.096332992460351
30
0
40
0.99999999999998135
210
-0
220
0
230
1
100
AcDbArc
50
-47.000000000027867
51
102.99999999997134
0
LINE
5
236
100
AcDbEntity
8
0
100
AcDbLine
10
105.90862155821665
20
-3.7296564994452419
30
0
11
108.21840755500169
21
-13.73443881927918
31
0
0
ARC
5
237
100
AcDbEntity
8
0
100
AcDbCircle
10
107.9260358502794
20
-14.690743575242331
30
0
40
0.99999999999998268
210
-0
220
0
230
1
100
AcDbArc
50
-76.99999999997155
51
73.000000000026674
0
LINE
5
238
100
AcDbEntity
8
0
100
AcDbLine
10
108.15098690462375
20
-15.665113640027439
30
0
11
95.484176062412985
21
-18.589477346485953
31
0
0
ARC
5
239
100
AcDbEntity
8
0
100
AcDbCircle
10
95.259225008070715
20
-17.615107281707623
30
0
40
0.99999999999291034
210
0
220
0
230
1
100
AcDbArc
50
133.00000000023479
51
282.99999999999989
0
LINE
5
240
100
AcDbEntity
8
0
100
AcDbLine
10
94.577226648010054
20
-16.883753580096432
30
0
11
92.267440651230459
21
-6.8789712602327828
31
0
0
ARC
5
241
100
AcDbEntity
8
0
100
AcDbCircle
10
92.559812355943308
20
-5.9226665042801816
30
0
40
0.99999999998712397
210
0
220
0
230
1
100
AcDbArc
50
103.00000000000044
51
253.00000000036695
0
LINE
5
242
100
AcDbEntity
8
0
100
AcDbLine
10
92.334861301602331
20
-4.9482964395074927
30
0
11
105.00167214381113
21
-2.0239327330404278
31
0
0
ARC
5
243
100
AcDbEntity
8
0
100
AcDbCircle
10
105.22662319815453
20
-2.9983027978257533
30
0
40
0.99999999999997069
210
-0
220
0
230
1
100
AcDbArc
50
-47.00000000002801
51
102.99999999997229
0
LINE
5
244
100
AcDbEntity
8
0
100
AcDbLine
10
87.435621558216624
20
-3.7296564994452441
30
0
11
89.745407555001663
21
-13.734438819279182
31
0
0
ARC
5
245
100
AcDbEntity
8
0
100
AcDbCircle
10
89.453035850279406
20
-14.690743575242337
30
0
40
0.99999999999997846
210
-0
220
0
230
1
100
AcDbArc
50
-76.999999999972303
51
73.000000000028336
0
LINE
5
246
100
AcDbEntity
8
0
100
AcDbLine
10
89.677986904623737
20
-15.665113640027442
30
0
11
77.011176062412972
21
-18.589477346485957
31
0
0
ARC
5
247
100
AcDbEntity
8
0
100
AcDbCircle
10
76.786225008070701
20
-17.615107281707626
30
0
40
0.99999999999290901
210
0
220
0
230
1
100
AcDbArc
50
133.00000000023394
51
282.99999999999994
0
LINE
5
248
100
AcDbEntity
8
0
100
AcDbLine
10
76.104226648010055
20
-16.883753580096428
30
0
11
73.794440651230445
21
-6.8789712602327828
31
0
0
ARC
5
249
100
AcDbEntity
8
0
100
AcDbCircle
10
74.086812355943295
20
-5.9226665042801834
30
0
40
0.99999999998712452
210
0
220
0
230
1
100
AcDbArc
50
102.99999999999964
51
253.00000000036695
0
LINE
5
250
100
AcDbEntity
8
0
100
AcDbLine
10
73.861861301602332
20
-4.9482964395074944
30
0
11
86.528672143811121
21
-2.0239327330404295
31
0
0
ARC
5
251
100
AcDbEntity
8
0
100
AcDbCircle
10
86.753623198154514
20
-2.9983027978257497
30
0
40
0.99999999999996914
210
-0
220
0
230
1
100
AcDbArc
50
-47.000000000029189
51
102.99999999997236
0
LINE
5
252
100
AcDbEntity
8
0
100
AcDbLine
10
68.962621558216625
20
-3.7296564994452459
30
0
11
71.272407555001664
21
-13.734438819279184
31
0
0
ARC
5
253
100
AcDbEntity
8
0
100
AcDbCircle
10
70.980035850279407
20
-14.69074357524234
30
0
40
0.99999999999998035
210
-0
220
0
230
1
100
AcDbArc
50
-76.999999999971493
51
73.000000000028365
0
LINE
5
254
100
AcDbEntity
8
0
100
AcDbLine
10
71.204986904623738
20
-15.665113640027444
30
0
11
58.538176062412973
21
-18.589477346485957
31
0
0
ARC
5
255
100
AcDbEntity
8
0
100
AcDbCircle
10
58.313225008070702
20
-17.61510728170763
30
0
40
0.99999999999291223
210
0
220
0
230
1
100
AcDbArc
50
133.00000000023394
51
283.00000000000011
0
LINE
5
256
100
AcDbEntity
8
0
100
AcDbLine
10
57.631226648010056
20
-16.883753580096432
30
0
11
55.321440651230454
21
-6.8789712602327846
31
0
0
ARC
5
257
100
AcDbEntity
8
0
100
AcDbCircle
10
55.613812355943296
20
-5.9226665042801869
30
0
40
0.99999999998712663
210
0
220
0
230
1
100
AcDbArc
50
102.99999999999963
51
253.00000000036732
0
LINE
5
258
100
AcDbEntity
8
0
100
AcDbLine
10
55.388861301602333
20
-4.9482964395074962
30
0
11
68.055672143811123
21
-2.0239327330404318
31
0
0
ARC
5
259
100
AcDbEntity
8
0
100
AcDbCircle
10
68.280623198154501
20
-2.9983027978257599
30
0
40
0.9999999999999778
210
-0
220
0
230
1
100
AcDbArc
50
-47.000000000028066
51
102.99999999997172
0
LINE
5
260
100
AcDbEntity
8
0
100
AcDbLine
10
50.489621558216626
20
-3.7296564994452472
30
0
11
52.799407555001672
21
-13.734438819279188
31
0
0
ARC
5
261
100
AcDbEntity
8
0
100
AcDbCircle
10
52.507035850279408
20
-14.690743575242342
30
0
40
0.99999999999998035
210
-0
220
0
230
1
100
AcDbArc
50
-76.999999999971493
51
73.000000000027967
0
LINE
5
262
100
AcDbEntity
8
0
100
AcDbLine
10
52.731986904623739
20
-15.665113640027446
30
0
11
40.065176062412974
21
-18.58947734648596
31
0
0
ARC
5
263
100
AcDbEntity
8
0
100
AcDbCircle
10
39.840225008070711
20
-17.61510728170763
30
0
40
0.99999999999291522
210
0
220
0
230
1
100
AcDbArc
50
133.00000000023468
51
282.99999999999955
0
LINE
5
264
100
AcDbEntity
8
0
100
AcDbLine
10
39.15822664801005
20
-16.883753580096435
30
0
11
36.848440651230455
21
-6.8789712602327864
31
0
0
ARC
5
265
100
AcDbEntity
8
0
100
AcDbCircle
10
37.140812355943297
20
-5.9226665042801896
30
0
40
0.99999999998712552
210
0
220
0
230
1
100
AcDbArc
50
102.99999999999967
51
253.00000000036724
0
LINE
5
266
100
AcDbEntity
8
0
100
AcDbLine
10
36.915861301602334
20
-4.948296439507498
30
0
11
49.582672143811124
21
-2.0239327330404331
31
0
0
ARC
5
267
100
AcDbEntity
8
0
100
AcDbCircle
10
49.807623198154488
20
-2.9983027978257599
30
0
40
0.99999999999998523
210
-0
220
0
230
1
100
AcDbArc
50
-47.000000000027505
51
102.99999999997092
0
LINE
5
268
100
AcDbEntity
8
0
100
AcDbLine
10
-11.289931664344612
20
-56.203613852226781
30
0
11
-13.599717661129702
21
-66.208396172060702
31
0
0
ARC
5
269
100
AcDbEntity
8
0
100
AcDbCircle
10
-14.281716021191828
20
-66.939749873680199
30
0
40
0.99999999999997891
210
0
220
0
230
1
100
AcDbArc
50
-102.99999999997176
51
47.000000000028365
0
LINE
5
270
100
AcDbEntity
8
0
100
AcDbLine
10
-14.506667075535207
20
-67.914119938465518
30
0
11
-27.173477917740563
21
-64.989756231983563
31
0
0
ARC
5
271
100
AcDbEntity
8
0
100
AcDbCircle
10
-26.948526863398293
20
-64.015386167205236
30
0
40
0.99999999999291789
210
0
220
0
230
1
100
AcDbArc
50
107.00000000023411
51
257.00000000000023
0
LINE
5
272
100
AcDbEntity
8
0
100
AcDbLine
10
-27.240898568122873
20
-63.059081411250176
30
0
11
-24.931112571319865
21
-53.054299091391933
31
0
0
ARC
5
273
100
AcDbEntity
8
0
100
AcDbCircle
10
-24.249114211270843
20
-52.3229453897778
30
0
40
0.99999999998712252
210
0
220
-0
230
1
100
AcDbArc
50
76.999999999999687
51
227.00000000036783
0
LINE
5
274
100
AcDbEntity
8
0
100
AcDbLine
10
-24.02416315692987
20
-51.348575325005115
30
0
11
-11.357352314722542
21
-54.272939031478515
31
0
0
ARC
5
275
100
AcDbEntity
8
0
100
AcDbCircle
10
-11.58230336906688
20
-55.247309096263621
30
0
40
0.99999999999998301
210
0
220
0
230
1
100
AcDbArc
50
-73.000000000027512
51
76.999999999971934
0
LINE
5
276
100
AcDbEntity
8
0
100
AcDbLine
10
-27.89335408162912
20
-48.105583657592135
30
0
11
-30.203140078414208
21
-58.110365977426063
31
0
0
ARC
5
277
100
AcDbEntity
8
0
100
AcDbCircle
10
-30.885138438476339
20
-58.841719679045553
30
0
40
0.99999999999997802
210
0
220
0
230
1
100
AcDbArc
50
-102.99999999997141
51
47.000000000027867
0
LINE
5
278
100
AcDbEntity
8
0
100
AcDbLine
10
-31.110089492819711
20
-59.816089743830872
30
0
11
-43.776900335025069
21
-56.891726037348924
31
0
0
ARC
5
279
100
AcDbEntity
8
0
100
AcDbCircle
10
-43.551949280682798
20
-55.917355972570597
30
0
40
0.99999999999291078
210
0
220
0
230
1
100
AcDbArc
50
107.00000000023462
51
257.00000000000011
0
LINE
5
280
100
AcDbEntity
8
0
100
AcDbLine
10
-43.844320985407379
20
-54.961051216615537
30
0
11
-41.534534988604371
21
-44.956268896757294
31
0
0
ARC
5
281
100
AcDbEntity
8
0
100
AcDbCircle
10
-40.852536628555356
20
-44.224915195143161
30
0
40
0.99999999998712463
210
0
220
-0
230
1
100
AcDbArc
50
76.999999999999574
51
227.00000000036817
0
LINE
5
282
100
AcDbEntity
8
0
100
AcDbLine
10
-40.627585574214379
20
-43.250545130370469
30
0
11
-27.960774732007046
21
-46.174908836843869
31
0
0
ARC
5
283
100
AcDbEntity
8
0
100
AcDbCircle
10
-28.18572578635138
20
-47.149278901628975
30
0
40
0.99999999999998046
210
0
220
0
230
1
100
AcDbArc
50
-73.00000000002818
51
76.999999999972133
0
LINE
5
284
100
AcDbEntity
8
0
100
AcDbLine
10
-7.4657637404987653
20
-39.639322750877803
30
0
11
-9.7755497372838551
21
-49.644105070711731
31
0
0
ARC
5
285
100
AcDbEntity
8
0
100
AcDbCircle
10
-10.457548097345983
20
-50.375458772331214
30
0
40
0.99999999999997802
210
0
220
0
230
1
100
AcDbArc
50
-102.99999999997152
51
47.00000000002801
0
LINE
5
286
100
AcDbEntity
8
0
100
AcDbLine
10
-10.68249915168936
20
-51.34982883711654
30
0
11
-23.349309993894714
21
-48.425465130634599
31
0
0
ARC
5
287
100
AcDbEntity
8
0
100
AcDbCircle
10
-23.124358939552433
20
-47.451095065856272
30
0
40
0.99999999999292166
210
0
220
0
230
1
100
AcDbArc
50
107.00000000023489
51
256.99999999999949
0
LINE
5
288
100
AcDbEntity
8
0
100
AcDbLine
10
-23.416730644277024
20
-46.494790309901205
30
0
11
-21.10694464747402
21
-36.490007990042969
31
0
0
ARC
5
289
100
AcDbEntity
8
0
100
AcDbCircle
10
-20.424946287424991
20
-35.758654288428836
30
0
40
0.99999999998713029
210
0
220
-0
230
1
100
AcDbArc
50
77.000000000000171
51
227.00000000036741
0
LINE
5
290
100
AcDbEntity
8
0
100
AcDbLine
10
-20.199995233084024
20
-34.784284223656144
30
0
11
-7.5331843908766949
21
-37.708647930129544
31
0
0
ARC
5
291
100
AcDbEntity
8
0
100
AcDbCircle
10
-7.7581354452210283
20
-38.68301799491465
30
0
40
0.99999999999997691
210
0
220
0
230
1
100
AcDbArc
50
-73.000000000027825
51
76.999999999972175
0
LINE
5
292
100
AcDbEntity
8
0
100
AcDbLine
10
-24.069186157783271
20
-31.54129255624316
30
0
11
-26.378972154568359
21
-41.546074876077093
31
0
0
ARC
5
293
100
AcDbEntity
8
0
100
AcDbCircle
10
-27.060970514630498
20
-42.277428577696568
30
0
40
0.99999999999997602
210
0
220
0
230
1
100
AcDbArc
50
-102.9999999999708
51
47.000000000027299
0
LINE
5
294
100
AcDbEntity
8
0
100
AcDbLine
10
-27.285921568973865
20
-43.251798642481901
30
0
11
-39.95273241117922
21
-40.327434935999953
31
0
0
ARC
5
295
100
AcDbEntity
8
0
100
AcDbCircle
10
-39.727781356836957
20
-39.353064871221626
30
0
40
0.99999999999290523
210
0
220
0
230
1
100
AcDbArc
50
107.00000000023422
51
257.0000000000004
0
LINE
5
296
100
AcDbEntity
8
0
100
AcDbLine
10
-40.02015306156153
20
-38.396760115266567
30
0
11
-37.710367064758529
21
-28.391977795408323
31
0
0
ARC
5
297
100
AcDbEntity
8
0
100
AcDbCircle
10
-37.028368704709493
20
-27.660624093794194
30
0
40
0.99999999998713029
210
0
220
-0
230
1
100
AcDbArc
50
77.000000000000412
51
227.00000000036712
0
LINE
5
298
100
AcDbEntity
8
0
100
AcDbLine
10
-36.80341765036853
20
-26.686254029021505
30
0
11
-24.136606808161201
21
-29.610617735494902
31
0
0
ARC
5
299
100
AcDbEntity
8
0
100
AcDbCircle
10
-24.361557862505535
20
-30.584987800280004
30
0
40
0.99999999999997624
210
0
220
0
230
1
100
AcDbArc
50
-73.000000000027924
51
76.999999999972076
0
LINE
5
300
100
AcDbEntity
8
0
100
AcDbLine
10
-99.91577649891363
20
-40.007553462957489
30
0
11
-102.22556249569874
21
-50.012335782791418
31
0
0
ARC
5
301
100
AcDbEntity
8
0
100
AcDbCircle
10
-102.90756085576083
20
-50.743689484410908
30
0
40
0.99999999999999178
210
0
220
0
230
1
100
AcDbArc
50
-102.99999999997236
51
47.000000000029644
0
LINE
5
302
100
AcDbEntity
8
0
100
AcDbLine
10
-103.13251191010423
20
-51.718059549196234
30
0
11
-115.79932275230959
21
-48.793695842714286
31
0
0
ARC
5
303
100
AcDbEntity
8
0
100
AcDbCircle
10
-115.57437169796729
20
-47.819325777935958
30
0
40
0.99999999999292433
210
0
220
0
230
1
100
AcDbArc
50
107.00000000023554
51
256.99999999999841
0
LINE
5
304
100
AcDbEntity
8
0
100
AcDbLine
10
-115.8667434026919
20
-46.863021021980899
30
0
11
-113.55695740588888
21
-36.858238702122648
31
0
0
ARC
5
305
100
AcDbEntity
8
0
100
AcDbCircle
10
-112.87495904583984
20
-36.126885000508516
30
0
40
0.99999999998712064
210
0
220
-0
230
1
100
AcDbArc
50
77.00000000000027
51
227.00000000036727
0
LINE
5
306
100
AcDbEntity
8
0
100
AcDbLine
10
-112.65000799149888
20
-35.15251493573583
30
0
11
-99.983197149291556
21
-38.07687864220923
31
0
0
ARC
5
307
100
AcDbEntity
8
0
100
AcDbCircle
10
-100.2081482036359
20
-39.051248706994329
30
0
40
0.99999999999998179
210
0
220
0
230
1
100
AcDbArc
50
-73.000000000027612
51
76.99999999997145
0
LINE
5
308
100
AcDbEntity
8
0
100
AcDbLine
10
-81.442776498913631
20
-40.007553462957489
30
0
11
-83.752562495698712
21
-50.012335782791418
31
0
0
ARC
5
309
100
AcDbEntity
8
0
100
AcDbCircle
10
-84.43456085576085
20
-50.743689484410908
30
0
40
0.99999999999997891
210
0
220
0
230
1
100
AcDbArc
50
-102.9999999999709
51
47.000000000027569
0
LINE
5
310
100
AcDbEntity
8
0
100
AcDbLine
10
-84.659511910104214
20
-51.718059549196234
30
0
11
-97.326322752309565
21
-48.793695842714286
31
0
0
ARC
5
311
100
AcDbEntity
8
0
100
AcDbCircle
10
-97.101371697967309
20
-47.819325777935944
30
0
40
0.99999999999290223
210
0
220
0
230
1
100
AcDbArc
50
107.00000000023448
51
257.00000000000097
0
LINE
5
312
100
AcDbEntity
8
0
100
AcDbLine
10
-97.393743402691882
20
-46.863021021980899
30
0
11
-95.083957405888881
21
-36.858238702122648
31
0
0
ARC
5
313
100
AcDbEntity
8
0
100
AcDbCircle
10
-94.401959045839845
20
-36.126885000508516
30
0
40
0.99999999998712064
210
0
220
-0
230
1
100
AcDbArc
50
76.999999999999488
51
227.00000000036727
0
LINE
5
314
100
AcDbEntity
8
0
100
AcDbLine
10
-94.177007991498868
20
-35.15251493573583
30
0
11
-81.510197149291557
21
-38.07687864220923
31
0
0
ARC
5
315
100
AcDbEntity
8
0
100
AcDbCircle
10
-81.735148203635902
20
-39.051248706994329
30
0
40
0.99999999999998179
210
0
220
0
230
1
100
AcDbArc
50
-73.000000000027612
51
76.99999999997145
0
LINE
5
316
100
AcDbEntity
8
0
100
AcDbLine
10
-62.969776498913618
20
-40.007553462957489
30
0
11
-65.279562495698713
21
-50.012335782791418
31
0
0
ARC
5
317
100
AcDbEntity
8
0
100
AcDbCircle
10
-65.961560855760837
20
-50.743689484410908
30
0
40
0.99999999999997891
210
0
220
0
230
1
100
AcDbArc
50
-102.99999999997172
51
47.000000000028166
0
LINE
5
318
100
AcDbEntity
8
0
100
AcDbLine
10
-66.186511910104215
20
-51.718059549196234
30
0
11
-78.853322752309566
21
-48.793695842714286
31
0
0
ARC
5
319
100
AcDbEntity
8
0
100
AcDbCircle
10
-78.62837169796731
20
-47.819325777935944
30
0
40
0.99999999999290223
210
0
220
0
230
1
100
AcDbArc
50
107.00000000023448
51
257.00000000000097
0
LINE
5
320
100
AcDbEntity
8
0
100
AcDbLine
10
-78.920743402691883
20
-46.863021021980899
30
0
11
-76.610957405888882
21
-36.858238702122648
31
0
0
ARC
5
321
100
AcDbEntity
8
0
100
AcDbCircle
10
-75.928959045839861
20
-36.126885000508516
30
0
40
0.99999999998712896
210
0
220
-0
230
1
100
AcDbArc
50
76.999999999999574
51
227.00000000036783
0
LINE
5
322
100
AcDbEntity
8
0
100
AcDbLine
10
-75.704007991498884
20
-35.15251493573583
30
0
11
-63.037197149291551
21
-38.07687864220923
31
0
0
ARC
5
323
100
AcDbEntity
8
0
100
AcDbCircle
10
-63.262148203635888
20
-39.051248706994329
30
0
40
0.99999999999998179
210
0
220
0
230
1
100
AcDbArc
50
-73.000000000027612
51
76.999999999971834
0
LINE
5
324
100
AcDbEntity
8
0
100
AcDbLine
10
-96.091608575067781
20
-23.443262361608518
30
0
11
-98.401394571852876
21
-33.448044681442454
31
0
0
ARC
5
325
100
AcDbEntity
8
0
100
AcDbCircle
10
-99.083392931915
20
-34.179398383061937
30
0
40
0.99999999999997469
210
0
220
0
230
1
100
AcDbArc
50
-102.9999999999709
51
47.00000000002845
0
LINE
5
326
100
AcDbEntity
8
0
100
AcDbLine
10
-99.308343986258365
20
-35.153768447847263
30
0
11
-111.97515482846373
21
-32.229404741365315
31
0
0
ARC
5
327
100
AcDbEntity
8
0
100
AcDbCircle
10
-111.75020377412146
20
-31.255034676586988
30
0
40
0.99999999999291156
210
0
220
0
230
1
100
AcDbArc
50
107.00000000023586
51
257
0
LINE
5
328
100
AcDbEntity
8
0
100
AcDbLine
10
-112.04257547884606
20
-30.298729920631921
30
0
11
-109.73278948204303
21
-20.293947600773681
31
0
0
ARC
5
329
100
AcDbEntity
8
0
100
AcDbCircle
10
-109.05079112199402
20
-19.562593899159555
30
0
40
0.99999999998712719
210
0
220
-0
230
1
100
AcDbArc
50
77.000000000000412
51
227.0000000003684
0
LINE
5
330
100
AcDbEntity
8
0
100
AcDbLine
10
-108.82584006765305
20
-18.588223834386859
30
0
11
-96.159029225445707
21
-21.51258754086026
31
0
0
ARC
5
331
100
AcDbEntity
8
0
100
AcDbCircle
10
-96.383980279790052
20
-22.486957605645365
30
0
40
0.99999999999997757
210
0
220
0
230
1
100
AcDbArc
50
-73.000000000027512
51
76.99999999997155
0
LINE
5
332
100
AcDbEntity
8
0
100
AcDbLine
10
-77.618608575067768
20
-23.443262361608518
30
0
11
-79.928394571852863
21
-33.448044681442454
31
0
0
ARC
5
333
100
AcDbEntity
8
0
100
AcDbCircle
10
-80.610392931914987
20
-34.179398383061937
30
0
40
0.99999999999997891
210
0
220
0
230
1
100
AcDbArc
50
-102.99999999997172
51
47.000000000027889
0
LINE
5
334
100
AcDbEntity
8
0
100
AcDbLine
10
-80.835343986258366
20
-35.153768447847263
30
0
11
-93.50215482846373
21
-32.229404741365315
31
0
0
ARC
5
335
100
AcDbEntity
8
0
100
AcDbCircle
10
-93.277203774121432
20
-31.255034676586988
30
0
40
0.99999999999291589
210
0
220
0
230
1
100
AcDbArc
50
107.0000000002358
51
256.99999999999847
0
LINE
5
336
100
AcDbEntity
8
0
100
AcDbLine
10
-93.569575478846033
20
-30.298729920631921
30
0
11
-91.259789482043033
21
-20.293947600773681
31
0
0
ARC
5
337
100
AcDbEntity
8
0
100
AcDbCircle
10
-90.577791121993982
20
-19.562593899159555
30
0
40
0.99999999998712541
210
0
220
-0
230
1
100
AcDbArc
50
77.000000000001208
51
227.00000000036579
0
LINE
5
338
100
AcDbEntity
8
0
100
AcDbLine
10
-90.352840067653034
20
-18.588223834386859
30
0
11
-77.686029225445708
21
-21.51258754086026
31
0
0
ARC
5
339
100
AcDbEntity
8
0
100
AcDbCircle
10
-77.910980279790024
20
-22.486957605645365
30
0
40
0.99999999999997491
210
0
220
0
230
1
100
AcDbArc
50
-73.00000000002828
51
76.999999999973127
0
LINE
5
340
100
AcDbEntity
8
0
100
AcDbLine
10
-59.145608575067776
20
-23.443262361608518
30
0
11
-61.455394571852864
21
-33.448044681442454
31
0
0
ARC
5
341
100
AcDbEntity
8
0
100
AcDbCircle
10
-62.137392931915002
20
-34.179398383061937
30
0
40
0.99999999999997702
210
0
220
0
230
1
100
AcDbArc
50
-102.9999999999709
51
47.000000000027569
0
LINE
5
342
100
AcDbEntity
8
0
100
AcDbLine
10
-62.362343986258367
20
-35.153768447847263
30
0
11
-75.029154828463732
21
-32.229404741365315
31
0
0
ARC
5
343
100
AcDbEntity
8
0
100
AcDbCircle
10
-74.804203774121461
20
-31.255034676586988
30
0
40
0.99999999999291078
210
0
220
0
230
1
100
AcDbArc
50
107.00000000023422
51
257
0
LINE
5
344
100
AcDbEntity
8
0
100
AcDbLine
10
-75.096575478846034
20
-30.298729920631921
30
0
11
-72.786789482043034
21
-20.293947600773681
31
0
0
ARC
5
345
100
AcDbEntity
8
0
100
AcDbCircle
10
-72.104791121994012
20
-19.562593899159552
30
0
40
0.99999999998712674
210
0
220
-0
230
1
100
AcDbArc
50
76.999999999999574
51
227.00000000036769
0
LINE
5
346
100
AcDbEntity
8
0
100
AcDbLine
10
-71.879840067653035
20
-18.588223834386859
30
0
11
-59.213029225445702
21
-21.51258754086026
31
0
0
ARC
5
347
100
AcDbEntity
8
0
100
AcDbCircle
10
-59.437980279790033
20
-22.486957605645365
30
0
40
0.99999999999997491
210
0
220
0
230
1
100
AcDbArc
50
-73.00000000002828
51
76.999999999972331
0
LINE
5
348
100
AcDbEntity
8
0
100
AcDbLine
10
-44.496776498913626
20
-40.007553462957489
30
0
11
-46.806562495698714
21
-50.012335782791418
31
0
0
ARC
5
349
100
AcDbEntity
8
0
100
AcDbCircle
10
-47.488560855760852
20
-50.743689484410908
30
0
40
0.99999999999997702
210
0
220
0
230
1
100
AcDbArc
50
-102.9999999999709
51
47.000000000027569
0
LINE
5
350
100
AcDbEntity
8
0
100
AcDbLine
10
-47.713511910104216
20
-51.718059549196234
30
0
11
-60.380322752309574
21
-48.793695842714286
31
0
0
ARC
5
351
100
AcDbEntity
8
0
100
AcDbCircle
10
-60.155371697967304
20
-47.819325777935958
30
0
40
0.99999999999291078
210
0
220
0
230
1
100
AcDbArc
50
107.00000000023462
51
257.00000000000011
0
LINE
5
352
100
AcDbEntity
8
0
100
AcDbLine
10
-60.447743402691884
20
-46.863021021980899
30
0
11
-58.137957405888876
21
-36.858238702122648
31
0
0
ARC
5
353
100
AcDbEntity
8
0
100
AcDbCircle
10
-57.455959045839855
20
-36.126885000508516
30
0
40
0.99999999998712696
210
0
220
-0
230
1
100
AcDbArc
50
76.999999999999972
51
227.00000000036817
0
LINE
5
354
100
AcDbEntity
8
0
100
AcDbLine
10
-57.231007991498885
20
-35.15251493573583
30
0
11
-44.564197149291552
21
-38.07687864220923
31
0
0
ARC
5
355
100
AcDbEntity
8
0
100
AcDbCircle
10
-44.789148203635889
20
-39.051248706994329
30
0
40
0.99999999999998179
210
0
220
0
230
1
100
AcDbArc
50
-73.000000000028038
51
76.999999999971834
0
LINE
5
356
100
AcDbEntity
8
0
100
AcDbLine
10
-40.672608575067777
20
-23.443262361608518
30
0
11
-42.982394571852865
21
-33.448044681442454
31
0
0
ARC
5
357
100
AcDbEntity
8
0
100
AcDbCircle
10
-43.664392931915003
20
-34.179398383061937
30
0
40
0.99999999999997702
210
0
220
0
230
1
100
AcDbArc
50
-102.9999999999709
51
47.000000000027569
0
LINE
5
358
100
AcDbEntity
8
0
100
AcDbLine
10
-43.889343986258368
20
-35.153768447847263
30
0
11
-56.556154828463725
21
-32.229404741365315
31
0
0
ARC
5
359
100
AcDbEntity
8
0
100
AcDbCircle
10
-56.331203774121462
20
-31.25503467658698
30
0
40
0.99999999999290645
210
0
220
0
230
1
100
AcDbArc
50
107.00000000023435
51
257.00000000000051
0
LINE
5
360
100
AcDbEntity
8
0
100
AcDbLine
10
-56.623575478846035
20
-30.298729920631921
30
0
11
-54.313789482043035
21
-20.293947600773681
31
0
0
ARC
5
361
100
AcDbEntity
8
0
100
AcDbCircle
10
-53.631791121994013
20
-19.562593899159548
30
0
40
0.99999999998712463
210
0
220
-0
230
1
100
AcDbArc
50
76.999999999999545
51
227.00000000036846
0
LINE
5
362
100
AcDbEntity
8
0
100
AcDbLine
10
-53.406840067653036
20
-18.588223834386859
30
0
11
-40.74002922544571
21
-21.51258754086026
31
0
0
ARC
5
363
100
AcDbEntity
8
0
100
AcDbCircle
10
-40.964980279790034
20
-22.486957605645365
30
0
40
0.99999999999997491
210
0
220
0
230
1
100
AcDbArc
50
-73.00000000002828
51
76.999999999972729
0
LINE
5
364
100
AcDbEntity
8
0
100
AcDbLine
10
-3.6415958166529228
20
-23.075031649528835
30
0
11
-5.9513818134380081
21
-33.079813969362768
31
0
0
ARC
5
365
100
AcDbEntity
8
0
100
AcDbCircle
10
-6.6333801735001341
20
-33.81116767098225
30
0
40
0.99999999999997857
210
0
220
0
230
1
100
AcDbArc
50
-102.99999999997161
51
47.00000000002801
0
LINE
5
366
100
AcDbEntity
8
0
100
AcDbLine
10
-6.8583312278435127
20
-34.785537735767576
30
0
11
-19.525142070048869
21
-31.861174029285625
31
0
0
ARC
5
367
100
AcDbEntity
8
0
100
AcDbCircle
10
-19.300191015706595
20
-30.886803964507298
30
0
40
0.99999999999291678
210
0
220
0
230
1
100
AcDbArc
50
107.00000000023456
51
256.99999999999977
0
LINE
5
368
100
AcDbEntity
8
0
100
AcDbLine
10
-19.592562720431175
20
-29.930499208552238
30
0
11
-17.282776723628174
21
-19.925716888693991
31
0
0
ARC
5
369
100
AcDbEntity
8
0
100
AcDbCircle
10
-16.600778363579153
20
-19.194363187079862
30
0
40
0.99999999998712408
210
0
220
-0
230
1
100
AcDbArc
50
76.999999999999332
51
227.00000000036783
0
LINE
5
370
100
AcDbEntity
8
0
100
AcDbLine
10
-16.375827309238176
20
-18.219993122307176
30
0
11
-3.7090164670308479
21
-21.144356828780573
31
0
0
ARC
5
371
100
AcDbEntity
8
0
100
AcDbCircle
10
-3.9339675213751892
20
-22.118726893565675
30
0
40
0.99999999999997702
210
0
220
0
230
1
100
AcDbArc
50
-73.000000000027825
51
76.999999999971678
0
LINE
5
372
100
AcDbEntity
8
0
100
AcDbLine
10
-20.245018233937429
20
-14.977001454894193
30
0
11
-22.554804230722514
21
-24.981783774728122
31
0
0
ARC
5
373
100
AcDbEntity
8
0
100
AcDbCircle
10
-23.236802590784642
20
-25.713137476347608
30
0
40
0.99999999999997891
210
0
220
0
230
1
100
AcDbArc
50
-102.99999999997172
51
47.000000000027875
0
LINE
5
374
100
AcDbEntity
8
0
100
AcDbLine
10
-23.46175364512802
20
-26.687507541132934
30
0
11
-36.128564487333378
21
-23.763143834650982
31
0
0
ARC
5
375
100
AcDbEntity
8
0
100
AcDbCircle
10
-35.903613432991094
20
-22.788773769872655
30
0
40
0.99999999999291456
210
0
220
0
230
1
100
AcDbArc
50
107.0000000002354
51
256.99999999999926
0
LINE
5
376
100
AcDbEntity
8
0
100
AcDbLine
10
-36.195985137715681
20
-21.832469013917596
30
0
11
-33.88619914091268
21
-11.827686694059352
31
0
0
ARC
5
377
100
AcDbEntity
8
0
100
AcDbCircle
10
-33.204200780863651
20
-11.096332992445223
30
0
40
0.99999999998712696
210
0
220
-0
230
1
100
AcDbArc
50
76.999999999999943
51
227.00000000036752
0
LINE
5
378
100
AcDbEntity
8
0
100
AcDbLine
10
-32.979249726522681
20
-10.121962927672534
30
0
11
-20.312438884315355
21
-13.046326634145933
31
0
0
ARC
5
379
100
AcDbEntity
8
0
100
AcDbCircle
10
-20.537389938659697
20
-14.020696698931033
30
0
40
0.99999999999997968
210
0
220
0
230
1
100
AcDbArc
50
-73.000000000027725
51
76.999999999971678
0
LINE
5
380
100
AcDbEntity
8
0
100
AcDbLine
10
-92.267440651221932
20
-6.8789712602595499
30
0
11
-94.577226648007013
21
-16.883753580093483
31
0
0
ARC
5
381
100
AcDbEntity
8
0
100
AcDbCircle
10
-95.259225008069137
20
-17.615107281712966
30
0
40
0.9999999999999809
210
0
220
0
230
1
100
AcDbArc
50
-102.99999999997247
51
47.000000000027889
0
LINE
5
382
100
AcDbEntity
8
0
100
AcDbLine
10
-95.48417606241253
20
-18.589477346498292
30
0
11
-108.15098690461788
21
-15.665113640016342
31
0
0
ARC
5
383
100
AcDbEntity
8
0
100
AcDbCircle
10
-107.92603585027562
20
-14.690743575238017
30
0
40
0.99999999999291278
210
0
220
0
230
1
100
AcDbArc
50
107.00000000023421
51
257.0000000000008
0
LINE
5
384
100
AcDbEntity
8
0
100
AcDbLine
10
-108.2184075550002
20
-13.734438819282953
30
0
11
-105.9086215581972
21
-3.7296564994247117
31
0
0
ARC
5
385
100
AcDbEntity
8
0
100
AcDbCircle
10
-105.22662319814815
20
-2.9983027978105827
30
0
40
0.99999999998712186
210
0
220
-0
230
1
100
AcDbArc
50
77.000000000001961
51
227.00000000036636
0
LINE
5
386
100
AcDbEntity
8
0
100
AcDbLine
10
-105.00167214380721
20
-2.0239327330378925
30
0
11
-92.334861301599872
21
-4.9482964395112905
31
0
0
ARC
5
387
100
AcDbEntity
8
0
100
AcDbCircle
10
-92.559812355944203
20
-5.9226665042963944
30
0
40
0.99999999999997857
210
0
220
0
230
1
100
AcDbArc
50
-73.000000000027512
51
76.999999999972303
0
LINE
5
388
100
AcDbEntity
8
0
100
AcDbLine
10
-73.794440651221933
20
-6.8789712602595499
30
0
11
-76.104226648007014
21
-16.883753580093483
31
0
0
ARC
5
389
100
AcDbEntity
8
0
100
AcDbCircle
10
-76.786225008069138
20
-17.615107281712966
30
0
40
0.99999999999997891
210
0
220
0
230
1
100
AcDbArc
50
-102.99999999997172
51
47.000000000028166
0
LINE
5
390
100
AcDbEntity
8
0
100
AcDbLine
10
-77.011176062412517
20
-18.589477346498292
30
0
11
-89.677986904617882
21
-15.665113640016342
31
0
0
ARC
5
391
100
AcDbEntity
8
0
100
AcDbCircle
10
-89.453035850275612
20
-14.690743575238017
30
0
40
0.99999999999291278
210
0
220
0
230
1
100
AcDbArc
50
107.00000000023421
51
257
0
LINE
5
392
100
AcDbEntity
8
0
100
AcDbLine
10
-89.745407555000185
20
-13.734438819282953
30
0
11
-87.435621558197184
21
-3.7296564994247117
31
0
0
ARC
5
393
100
AcDbEntity
8
0
100
AcDbCircle
10
-86.753623198148162
20
-2.9983027978105832
30
0
40
0.9999999999871263
210
0
220
-0
230
1
100
AcDbArc
50
76.999999999999545
51
227.00000000036769
0
LINE
5
394
100
AcDbEntity
8
0
100
AcDbLine
10
-86.528672143807185
20
-2.023932733037892
30
0
11
-73.861861301599859
21
-4.9482964395112905
31
0
0
ARC
5
395
100
AcDbEntity
8
0
100
AcDbCircle
10
-74.086812355944204
20
-5.9226665042963944
30
0
40
0.99999999999997857
210
0
220
0
230
1
100
AcDbArc
50
-73.000000000027512
51
76.999999999971521
0
LINE
5
396
100
AcDbEntity
8
0
100
AcDbLine
10
-55.321440651221934
20
-6.8789712602595499
30
0
11
-57.631226648007015
21
-16.883753580093483
31
0
0
ARC
5
397
100
AcDbEntity
8
0
100
AcDbCircle
10
-58.313225008069139
20
-17.615107281712966
30
0
40
0.99999999999997891
210
0
220
0
230
1
100
AcDbArc
50
-102.99999999997172
51
47.000000000028166
0
LINE
5
398
100
AcDbEntity
8
0
100
AcDbLine
10
-58.538176062412518
20
-18.589477346498292
30
0
11
-71.204986904617883
21
-15.665113640016342
31
0
0
ARC
5
399
100
AcDbEntity
8
0
100
AcDbCircle
10
-70.980035850275613
20
-14.690743575238013
30
0
40
0.99999999999290856
210
0
220
0
230
1
100
AcDbArc
50
107.00000000023427
51
256.99999999999994
0
LINE
5
400
100
AcDbEntity
8
0
100
AcDbLine
10
-71.272407555000186
20
-13.734438819282953
30
0
11
-68.962621558197185
21
-3.7296564994247117
31
0
0
ARC
5
401
100
AcDbEntity
8
0
100
AcDbCircle
10
-68.280623198148163
20
-2.9983027978105792
30
0
40
0.99999999998712408
210
0
220
-0
230
1
100
AcDbArc
50
76.999999999999488
51
227.00000000036781
0
LINE
5
402
100
AcDbEntity
8
0
100
AcDbLine
10
-68.055672143807186
20
-2.023932733037892
30
0
11
-55.38886130159986
21
-4.9482964395112905
31
0
0
ARC
5
403
100
AcDbEntity
8
0
100
AcDbCircle
10
-55.613812355944205
20
-5.9226665042963944
30
0
40
0.99999999999997857
210
0
220
0
230
1
100
AcDbArc
50
-73.000000000027512
51
76.999999999971521
0
LINE
5
404
100
AcDbEntity
8
0
100
AcDbLine
10
-36.848440651221935
20
-6.8789712602595499
30
0
11
-39.158226648007016
21
-16.883753580093483
31
0
0
ARC
5
405
100
AcDbEntity
8
0
100
AcDbCircle
10
-39.840225008069147
20
-17.615107281712962
30
0
40
0.99999999999998113
210
0
220
0
230
1
100
AcDbArc
50
-102.99999999997161
51
47.00000000002759
0
LINE
5
406
100
AcDbEntity
8
0
100
AcDbLine
10
-40.065176062412526
20
-18.589477346498292
30
0
11
-52.731986904617884
21
-15.665113640016342
31
0
0
ARC
5
407
100
AcDbEntity
8
0
100
AcDbCircle
10
-52.507035850275614
20
-14.690743575238015
30
0
40
0.99999999999291078
210
0
220
0
230
1
100
AcDbArc
50
107.00000000023422
51
257.00000000000006
0
LINE
5
408
100
AcDbEntity
8
0
100
AcDbLine
10
-52.799407555000187
20
-13.734438819282953
30
0
11
-50.489621558197186
21
-3.7296564994247117
31
0
0
ARC
5
409
100
AcDbEntity
8
0
100
AcDbCircle
10
-49.807623198148164
20
-2.998302797810581
30
0
40
0.99999999998712574
210
0
220
-0
230
1
100
AcDbArc
50
76.999999999999517
51
227.00000000036781
0
LINE
5
410
100
AcDbEntity
8
0
100
AcDbLine
10
-49.582672143807187
20
-2.023932733037892
30
0
11
-36.915861301599861
21
-4.9482964395112905
31
0
0
ARC
5
411
100
AcDbEntity
8
0
100
AcDbCircle
10
-37.140812355944199
20
-5.9226665042963944
30
0
40
0.99999999999997713
210
0
220
0
230
1
100
AcDbArc
50
-73.000000000027924
51
76.999999999971919
0
LWPOLYLINE
5
412
100
AcDbEntity
8
0
100
AcDbPolyline
90
42
70
1
43
0.0
10
49.460861803412811
20
-0.51259870429519494
42
-0.056784115127612389
10
53.959882890290203
20
1.1546319456101628e-13
10
107.33246073622475
20
9.9920072216264089e-15
42
-0.34921563342153905
10
108.30683080100999
20
-0.77504894565613824
10
119.32351532707781
20
-48.493552184917952
42
-0.41421356237308937
10
118.57409631663643
20
-49.692873304047055
10
103.25574407134582
20
-53.22939357794148
42
-0.056784115127610717
10
98.756722984468553
20
-53.741992282236765
10
84.840673376254813
20
-53.741992282236751
42
0.056784115127610023
10
80.341652289377663
20
-54.254590986532001
10
53.919517812334462
20
-60.354621378923099
42
0.28674538575881559
10
52.420679791451697
20
-61.853459399805885
10
48.413289712125255
20
-79.211372847255774
42
-0.2867453857588127
10
46.914451691242462
20
-80.71021086813856
10
22.15721426197203
20
-86.425869490699867
42
-0.0567841151276086
10
17.658193175095043
20
-86.938468194995096
10
-17.658193175095228
20
-86.938468194995053
42
-0.056784115127608822
10
-22.157214261972165
20
-86.425869490699824
10
-46.914451691242469
20
-80.71021086813856
42
-0.28674538575881003
10
-48.413289712125255
20
-79.21137284725576
10
-52.42067979145169
20
-61.853459399805885
42
0.28674538575881436
10
-53.919517812334448
20
-60.354621378923099
10
-80.341652289377635
20
-54.254590986532008
42
0.056784115127610141
10
-84.84067337625477
20
-53.741992282236751
10
-98.75672298446851
20
-53.741992282236772
42
-0.056784115127608933
10
-103.25574407134582
20
-53.22939357794148
10
-118.57409631663646
20
-49.692873304047033
42
-0.41421356237309365
10
-119.32351532707781
20
-48.493552184917945
10
-108.30683080100998
20
-0.77504894565613913
42
-0.34921563342153805
10
-107.33246073622475
20
-5.669356117501856e-15
10
-53.959882890288931
20
-1.1934897514720433e-14
42
-0.056784115127612611
10
-49.460861803411618
20
-0.51259870429531174
10
-23.852252461427888
20
-6.4248120203203332
42
-0.41421356237308915
10
-22.353414440545151
20
-8.8234542585784919
10
-22.382835361844329
20
-8.9508902693851073
42
0.41421356237308887
10
-21.633416351402953
20
-10.150211388514187
10
10.54028318780551
20
-17.578095202948706
42
0.41421356237309481
10
11.73960430693462
20
-16.828676192507341
10
15.514282998824774
20
-0.47874650541106734
42
-0.41421356237309453
10
16.713604117953874
20
0.27067250503029661
10
34.333691025103072
20
-3.7972450866984655
42
0.11393560830164605
10
35.23349524247854
20
-3.7972450866984637
0
LWPOLYLINE
5
413
100
AcDbEntity
8
0
100
AcDbPolyline
90
8
70
1
43
0.0
10
-13.800000000000026
20
-74.638468194995085
10
-15.150000000000007
20
-74.63846819499507
10
-15.150000000000025
20
-81.48846819499505
10
-8.8500000000000263
20
-81.48846819499505
10
-8.8500000000000156
20
-74.638468194995085
10
-10.200000000000014
20
-74.638468194995085
10
-10.200000000000015
20
-69.988468194995079
10
-13.80000000000001
20
-69.988468194995079
0
LWPOLYLINE
5
414
100
AcDbEntity
8
0
100
AcDbPolyline
90
8
70
1
43
0.0
10
10.199999999999962
20
-69.988468194995079
10
10.19999999999996
20
-74.638468194995085
10
8.8499999999999623
20
-74.638468194995085
10
8.849999999999973
20
-81.48846819499505
10
15.149999999999972
20
-81.48846819499505
10
15.149999999999954
20
-74.63846819499507
10
13.799999999999972
20
-74.638468194995085
10
13.799999999999956
20
-69.988468194995079
0
ENDSEC
0
SECTION
2
OBJECTS
0
DICTIONARY
5
C
100
AcDbDictionary
3
ACAD_GROUP
350
D
3
ACAD_MLINESTYLE
350
17
0
DICTIONARY
5
D
100
AcDbDictionary
0
DICTIONARY
5
1A
330
C
100
AcDbDictionary
0
DICTIONARY
5
17
100
AcDbDictionary
0
ENDSEC
0
EOF
