0
SECTION
2
HEADER
9
$INSUNITS
70
4
9
$ACADVER
1
AC1014
9
$HANDSEED
5
FFFF
0
ENDSEC
0
SECTION
2
TABLES
0
TABLE
2
VPORT
5
8
100
AcDbSymbolTable
0
ENDTAB
0
TABLE
2
LTYPE
5
5
100
AcDbSymbolTable
0
LTYPE
5
14
100
AcDbSymbolTableRecord
100
AcDbLinetypeTableRecord
2
BYBLOCK
70
0
0
LTYPE
5
15
100
AcDbSymbolTableRecord
100
AcDbLinetypeTableRecord
2
BYLAYER
70
0
0
ENDTAB
0
TABLE
2
LAYER
5
2
100
AcDbSymbolTable
70
2
0
LAYER
5
50
100
AcDbSymbolTableRecord
100
AcDbLayerTableRecord
2
0
70
0
6
CONTINUOUS
0
ENDTAB
0
TABLE
2
STYLE
5
3
100
AcDbSymbolTable
70
1
0
STYLE
5
11
100
AcDbSymbolTableRecord
100
AcDbTextStyleTableRecord
2
STANDARD
70
0
0
ENDTAB
0
TABLE
2
VIEW
5
6
100
AcDbSymbolTable
70
0
0
ENDTAB
0
TABLE
2
UCS
5
7
100
AcDbSymbolTable
70
0
0
ENDTAB
0
TABLE
2
APPID
5
9
100
AcDbSymbolTable
70
2
0
APPID
5
12
100
AcDbSymbolTableRecord
100
AcDbRegAppTableRecord
2
ACAD
70
0
0
ENDTAB
0
TABLE
2
DIMSTYLE
5
A
100
AcDbSymbolTable
70
1
0
ENDTAB
0
TABLE
2
BLOCK_RECORD
5
1
100
AcDbSymbolTable
70
1
0
BLOCK_RECORD
5
1F
100
AcDbSymbolTableRecord
100
AcDbBlockTableRecord
2
*MODEL_SPACE
0
BLOCK_RECORD
5
1B
100
AcDbSymbolTableRecord
100
AcDbBlockTableRecord
2
*PAPER_SPACE
0
ENDTAB
0
ENDSEC
0
SECTION
2
BLOCKS
0
BLOCK
5
20
100
AcDbEntity
100
AcDbBlockBegin
2
*MODEL_SPACE
0
ENDBLK
5
21
100
AcDbEntity
100
AcDbBlockEnd
0
BLOCK
5
1C
100
AcDbEntity
100
AcDbBlockBegin
2
*PAPER_SPACE
0
ENDBLK
5
1D
100
AcDbEntity
100
AcDbBlockEnd
0
ENDSEC
0
SECTION
2
ENTITIES
0
LINE
5
100
100
AcDbEntity
8
0
100
AcDbLine
10
0
20
0
30
0
11
-42.444433754115479
21
-4.3112602163246124e-15
31
0
0
LINE
5
101
100
AcDbEntity
8
0
100
AcDbLine
10
-2.3821430920679772e-14
20
-16.196475912758366
30
0
11
3.6434143332297397
21
-0.4151146283515339
31
0
0
LINE
5
102
100
AcDbEntity
8
0
100
AcDbLine
10
-42.44443375411543
20
-1.9984014443252818e-14
30
0
11
-0.93481277414678066
21
-20.245594890947963
31
0
0
LINE
5
103
100
AcDbEntity
8
0
100
AcDbLine
10
0
20
0
30
0
11
-2.3821430920679734e-14
21
-16.196475912758366
31
0
0
LINE
5
104
100
AcDbEntity
8
0
100
AcDbLine
10
-42.44443375411543
20
-1.9984014443252818e-14
30
0
11
-44.823924103111779
21
-10.306705039769263
31
0
0
LWPOLYLINE
5
105
100
AcDbEntity
8
0
100
AcDbPolyline
90
4
70
1
43
0.0
10
-34.142509558121752
20
-4.0491189781896066
10
-51.681170724256027
20
-4.4408920985006262e-15
10
-55.505338648101713
20
-16.56429110134901
10
-37.966677481967494
20
-20.613410079538603
0
LWPOLYLINE
5
106
100
AcDbEntity
8
0
100
AcDbPolyline
90
4
70
1
43
0.0
10
-73.978812588382766
20
-16.56429110134901
10
-56.440151422248547
20
-20.613410079538603
10
-52.615983498402805
20
-4.0491189781896084
10
-70.154644664537088
20
-6.6613381477509392e-15
0
LWPOLYLINE
5
107
100
AcDbEntity
8
0
100
AcDbPolyline
90
4
70
1
43
0.0
10
-92.452286528663805
20
-16.564291101349014
10
-74.913625362529601
20
-20.613410079538607
10
-71.089457438683851
20
-4.0491189781896102
10
-88.628118604818127
20
-8.8817841970012523e-15
0
LWPOLYLINE
5
108
100
AcDbEntity
8
0
100
AcDbPolyline
90
4
70
1
43
0.0
10
-110.92576046894486
20
-16.564291101349014
10
-93.387099302810668
20
-20.613410079538607
10
-89.562931378964919
20
-4.0491189781896129
10
-107.10159254509918
20
-1.1102230246251565e-14
0
LWPOLYLINE
5
109
100
AcDbEntity
8
0
100
AcDbPolyline
90
4
70
1
43
0.0
10
-38.9014902561143
20
-24.662529057728161
10
-21.362829089980075
20
-28.711648035917754
10
-17.538661166134336
20
-12.147356934568762
10
-35.077322332268615
20
-8.0982379563791618
0
LWPOLYLINE
5
110
100
AcDbEntity
8
0
100
AcDbPolyline
90
4
70
1
43
0.0
10
-22.297641864126881
20
-32.760767014107316
10
-4.7589806979926585
20
-36.809885992296913
10
-0.9348127741469181
20
-20.245594890947917
10
-18.473473940281195
20
-16.196475912758316
0
LINE
5
111
100
AcDbEntity
8
0
100
AcDbLine
10
-97.211267226656503
20
-37.177701180887574
30
0
11
-114.74992839279071
21
-33.128582202697984
31
0
0
LINE
5
112
100
AcDbEntity
8
0
100
AcDbLine
10
-78.737793286375449
20
-37.177701180887574
30
0
11
-96.276454452509682
21
-33.128582202697984
31
0
0
LINE
5
113
100
AcDbEntity
8
0
100
AcDbLine
10
-60.264319346094403
20
-37.177701180887574
30
0
11
-77.802980512228629
21
-33.128582202697984
31
0
0
LINE
5
114
100
AcDbEntity
8
0
100
AcDbLine
10
-41.79084540581335
20
-37.177701180887574
30
0
11
-59.329506571947576
21
-33.128582202697977
31
0
0
LINE
5
115
100
AcDbEntity
8
0
100
AcDbLine
10
-25.18699701382593
20
-45.275939137266725
30
0
11
-42.725658179960149
21
-41.226820159077135
31
0
0
LINE
5
116
100
AcDbEntity
8
0
100
AcDbLine
10
-8.5831486218385127
20
-53.374177093645883
30
0
11
-26.121809787972737
21
-49.325058115456287
31
0
0
LINE
5
117
100
AcDbEntity
8
0
100
AcDbLine
10
-101.03543515050235
20
-53.741992282236538
30
0
11
-118.57409631663657
21
-49.692873304046955
31
0
0
LINE
5
118
100
AcDbEntity
8
0
100
AcDbLine
10
-82.561961210221298
20
-53.741992282236538
30
0
11
-100.10062237635553
21
-49.692873304046955
31
0
0
LINE
5
119
100
AcDbEntity
8
0
100
AcDbLine
10
-64.088487269940259
20
-53.741992282236538
30
0
11
-81.627148436074478
21
-49.692873304046955
31
0
0
LINE
5
120
100
AcDbEntity
8
0
100
AcDbLine
10
-45.615013329659206
20
-53.741992282236538
30
0
11
-63.153674495793425
21
-49.692873304046955
31
0
0
LINE
5
121
100
AcDbEntity
8
0
100
AcDbLine
10
-29.011164937671783
20
-61.840230238615696
30
0
11
-46.549826103806005
21
-57.791111260426106
31
0
0
LINE
5
122
100
AcDbEntity
8
0
100
AcDbLine
10
-12.407316545684367
20
-69.93846819499484
30
0
11
-29.945977711818589
21
-65.889349216805257
31
0
0
LINE
5
123
100
AcDbEntity
8
0
100
AcDbLine
10
-18.000000000000099
20
-69.938468194995082
30
0
11
17.999999999999904
21
-69.938468194995082
31
0
0
LINE
5
124
100
AcDbEntity
8
0
100
AcDbLine
10
17.999999999999904
20
-69.938468194995082
30
0
11
17.999999999999904
21
-86.938468194995096
31
0
0
LINE
5
125
100
AcDbEntity
8
0
100
AcDbLine
10
17.999999999999904
20
-86.938468194995096
30
0
11
-18.000000000000099
21
-86.938468194995096
31
0
0
LINE
5
126
100
AcDbEntity
8
0
100
AcDbLine
10
-18.000000000000099
20
-86.938468194995096
30
0
11
-18.000000000000099
21
-69.938468194995082
31
0
0
CIRCLE
5
127
100
AcDbEntity
8
0
100
AcDbCircle
10
-44.823924103111764
20
-10.306705039769302
30
0
40
8.4999999999999964
210
0
220
0
230
1
0
LINE
5
128
100
AcDbEntity
8
0
100
AcDbLine
10
-18.000000000000099
20
-69.938468194995082
30
0
11
-21.824167923845469
21
-86.502759296344124
31
0
0
LINE
5
129
100
AcDbEntity
8
0
100
AcDbLine
10
-21.824167923845469
20
-86.502759296344124
30
0
11
-48.132159673046928
21
-80.429080829060226
31
0
0
LINE
5
130
100
AcDbEntity
8
0
100
AcDbLine
10
-48.132159673046928
20
-80.429080829060226
30
0
11
-44.307991749201548
21
-63.864789727711283
31
0
0
LINE
5
131
100
AcDbEntity
8
0
100
AcDbLine
10
-44.307991749201548
20
-63.864789727711283
30
0
11
-18.000000000000099
21
-69.938468194995082
31
0
0
CIRCLE
5
132
100
AcDbEntity
8
0
100
AcDbCircle
10
-1.1056265313338896e-13
20
-78.438468194995082
30
0
40
8.4999999999999964
210
0
220
0
230
1
0
CIRCLE
5
133
100
AcDbEntity
8
0
100
AcDbCircle
10
-33.066079836523528
20
-75.183774512027696
30
0
40
8.5000000000000018
210
0
220
0
230
1
0
LINE
5
134
100
AcDbEntity
8
0
100
AcDbLine
10
-33.066079836523528
20
-75.183774512027696
30
0
11
-34.978163798446204
21
-83.465920062702196
31
0
0
CIRCLE
5
135
100
AcDbEntity
8
0
100
AcDbCircle
10
44.823924103111722
20
-10.306705039769426
30
0
40
8.4999999999999964
210
0
220
0
230
1
0
CIRCLE
5
136
100
AcDbEntity
8
0
100
AcDbCircle
10
33.066079836523315
20
-75.183774512027782
30
0
40
8.5000000000000018
210
0
220
0
230
1
0
LINE
5
137
100
AcDbEntity
8
0
100
AcDbLine
10
42.444433754115479
20
-1.2589458449516747e-13
30
0
11
0.93481277414672104
21
-20.245594890947963
31
0
0
LINE
5
138
100
AcDbEntity
8
0
100
AcDbLine
10
-2.3821430920679734e-14
20
-16.196475912758366
30
0
11
-3.643414333229738
21
-0.41511462835152502
31
0
0
LINE
5
139
100
AcDbEntity
8
0
100
AcDbLine
10
42.444433754115479
20
-1.2589458449516747e-13
30
0
11
44.823924103111835
21
-10.306705039769382
31
0
0
LINE
5
140
100
AcDbEntity
8
0
100
AcDbLine
10
107.10159254509918
20
-3.0910731756840324e-13
30
0
11
89.562931378964919
21
-4.0491189781898616
31
0
0
LINE
5
141
100
AcDbEntity
8
0
100
AcDbLine
10
110.92576046894484
20
-16.564291101349323
30
0
11
107.10159254509918
21
-3.0910731756840324e-13
31
0
0
LINE
5
142
100
AcDbEntity
8
0
100
AcDbLine
10
118.57409631663559
20
-49.692873304047467
30
0
11
114.74992839278994
21
-33.12858220269846
31
0
0
LINE
5
143
100
AcDbEntity
8
0
100
AcDbLine
10
101.03543515050136
20
-53.741992282237035
30
0
11
118.57409631663559
21
-49.692873304047467
31
0
0
LINE
5
144
100
AcDbEntity
8
0
100
AcDbLine
10
33.066079836523315
20
-75.183774512027796
30
0
11
34.978163798445969
21
-83.465920062702295
31
0
0
CIRCLE
5
145
100
AcDbEntity
8
0
100
AcDbCircle
10
-63.297398043392818
20
-10.306705039769303
30
0
40
8.4999999999999964
210
0
220
0
230
1
0
CIRCLE
5
146
100
AcDbEntity
8
0
100
AcDbCircle
10
-81.770871983673871
20
-10.306705039769305
30
0
40
8.4999999999999964
210
0
220
0
230
1
0
CIRCLE
5
147
100
AcDbEntity
8
0
100
AcDbCircle
10
-100.24434592395491
20
-10.306705039769309
30
0
40
8.4999999999999964
210
0
220
0
230
1
0
CIRCLE
5
148
100
AcDbEntity
8
0
100
AcDbCircle
10
-28.220075711124345
20
-18.404942996148456
30
0
40
8.4999999999999964
210
0
220
0
230
1
0
CIRCLE
5
149
100
AcDbEntity
8
0
100
AcDbCircle
10
-11.616227319136927
20
-26.503180952527611
30
0
40
8.4999999999999964
210
0
220
0
230
1
0
CIRCLE
5
150
100
AcDbEntity
8
0
100
AcDbCircle
10
11.616227319136838
20
-26.50318095252765
30
0
40
8.4999999999999964
210
0
220
0
230
1
0
CIRCLE
5
151
100
AcDbEntity
8
0
100
AcDbCircle
10
28.220075711124281
20
-18.404942996148549
30
0
40
8.4999999999999964
210
0
220
0
230
1
0
CIRCLE
5
152
100
AcDbEntity
8
0
100
AcDbCircle
10
63.297398043392775
20
-10.306705039769513
30
0
40
8.4999999999999964
210
0
220
0
230
1
0
CIRCLE
5
153
100
AcDbEntity
8
0
100
AcDbCircle
10
81.770871983673828
20
-10.306705039769577
30
0
40
8.4999999999999964
210
0
220
0
230
1
0
CIRCLE
5
154
100
AcDbEntity
8
0
100
AcDbCircle
10
100.24434592395487
20
-10.306705039769639
30
0
40
8.4999999999999964
210
0
220
0
230
1
0
ENDSEC
0
SECTION
2
OBJECTS
0
DICTIONARY
5
C
100
AcDbDictionary
3
ACAD_GROUP
350
D
3
ACAD_MLINESTYLE
350
17
0
DICTIONARY
5
D
100
AcDbDictionary
0
DICTIONARY
5
1A
330
C
100
AcDbDictionary
0
DICTIONARY
5
17
100
AcDbDictionary
0
ENDSEC
0
EOF
