0
SECTION
2
HEADER
9
$INSUNITS
70
4
9
$ACADVER
1
AC1014
9
$HANDSEED
5
FFFF
0
ENDSEC
0
SECTION
2
TABLES
0
TABLE
2
VPORT
5
8
100
AcDbSymbolTable
0
ENDTAB
0
TABLE
2
LTYPE
5
5
100
AcDbSymbolTable
0
LTYPE
5
14
100
AcDbSymbolTableRecord
100
AcDbLinetypeTableRecord
2
BYBLOCK
70
0
0
LTYPE
5
15
100
AcDbSymbolTableRecord
100
AcDbLinetypeTableRecord
2
BYLAYER
70
0
0
ENDTAB
0
TABLE
2
LAYER
5
2
100
AcDbSymbolTable
70
2
0
LAYER
5
50
100
AcDbSymbolTableRecord
100
AcDbLayerTableRecord
2
0
70
0
6
CONTINUOUS
0
ENDTAB
0
TABLE
2
STYLE
5
3
100
AcDbSymbolTable
70
1
0
STYLE
5
11
100
AcDbSymbolTableRecord
100
AcDbTextStyleTableRecord
2
STANDARD
70
0
0
ENDTAB
0
TABLE
2
VIEW
5
6
100
AcDbSymbolTable
70
0
0
ENDTAB
0
TABLE
2
UCS
5
7
100
AcDbSymbolTable
70
0
0
ENDTAB
0
TABLE
2
APPID
5
9
100
AcDbSymbolTable
70
2
0
APPID
5
12
100
AcDbSymbolTableRecord
100
AcDbRegAppTableRecord
2
ACAD
70
0
0
ENDTAB
0
TABLE
2
DIMSTYLE
5
A
100
AcDbSymbolTable
70
1
0
ENDTAB
0
TABLE
2
BLOCK_RECORD
5
1
100
AcDbSymbolTable
70
1
0
BLOCK_RECORD
5
1F
100
AcDbSymbolTableRecord
100
AcDbBlockTableRecord
2
*MODEL_SPACE
0
BLOCK_RECORD
5
1B
100
AcDbSymbolTableRecord
100
AcDbBlockTableRecord
2
*PAPER_SPACE
0
ENDTAB
0
ENDSEC
0
SECTION
2
BLOCKS
0
BLOCK
5
20
100
AcDbEntity
100
AcDbBlockBegin
2
*MODEL_SPACE
0
ENDBLK
5
21
100
AcDbEntity
100
AcDbBlockEnd
0
BLOCK
5
1C
100
AcDbEntity
100
AcDbBlockBegin
2
*PAPER_SPACE
0
ENDBLK
5
1D
100
AcDbEntity
100
AcDbBlockEnd
0
ENDSEC
0
SECTION
2
ENTITIES
0
LWPOLYLINE
5
100
100
AcDbEntity
8
0
100
AcDbPolyline
90
4
70
1
43
0.0
10
-24.729483777407939
20
-8.4346165100124431
10
-20.729854031173982
20
8.889683241869033
10
11.44384550803446
20
1.4617994274345691
10
7.4442157618005167
20
-15.862500324446909
0
LWPOLYLINE
5
101
100
AcDbEntity
8
0
100
AcDbPolyline
90
4
70
1
43
0.0
10
19.238806026316343
20
-0.33780900731635755
10
12.418215572819697
20
1.2368483730907043
10
9.6063273935213669
20
-10.942777436724739
10
16.426917847018018
20
-12.517434817131798
0
LINE
5
102
100
AcDbEntity
8
0
100
AcDbLine
10
-51.681170724256027
20
-5.2494745616664383e-15
30
0
11
-34.142509558121752
21
-4.0491189781896066
31
0
0
LINE
5
103
100
AcDbEntity
8
0
100
AcDbLine
10
-35.077322332268615
20
-8.09823795637916
30
0
11
-17.538661166134336
21
-12.147356934568762
31
0
0
LINE
5
104
100
AcDbEntity
8
0
100
AcDbLine
10
-25.218943176734072
20
-6.1092866070494765
30
0
11
-25.928804896537031
21
-9.1840355204538131
31
0
0
LINE
5
105
100
AcDbEntity
8
0
100
AcDbLine
10
-25.928804896537031
20
-9.1840355204538131
30
0
11
8.1936347722418823
21
-17.061821443576036
31
0
0
LINE
5
106
100
AcDbEntity
8
0
100
AcDbLine
10
8.1936347722418823
20
-17.061821443576036
30
0
11
9.3813763391775087
21
-11.917147501509969
31
0
0
LINE
5
107
100
AcDbEntity
8
0
100
AcDbLine
10
9.3813763391775087
20
-11.917147501509969
30
0
11
17.176336857459383
21
-13.716755936260904
31
0
0
LINE
5
108
100
AcDbEntity
8
0
100
AcDbLine
10
17.176336857459383
20
-13.716755936260904
30
0
11
20.213176091101566
21
-0.56276006166022041
31
0
0
LINE
5
109
100
AcDbEntity
8
0
100
AcDbLine
10
0
20
0
30
0
11
-2.3821430920679734e-14
21
-16.196475912758366
31
0
0
LINE
5
110
100
AcDbEntity
8
0
100
AcDbLine
10
35.077322332268587
20
-8.0982379563792648
30
0
11
17.5386611661343
21
-12.147356934568814
31
0
0
LINE
5
111
100
AcDbEntity
8
0
100
AcDbLine
10
51.681170724256027
20
-1.5727259921410237e-13
30
0
11
34.142509558121745
21
-4.049118978189707
31
0
0
CIRCLE
5
112
100
AcDbEntity
8
0
100
AcDbCircle
10
15.378608690880288
20
-1.4992204466832986
30
0
40
0.5000000074505806
210
0
220
0
230
1
0
CIRCLE
5
113
100
AcDbEntity
8
0
100
AcDbCircle
10
-20.731445991559468
20
-8.0542300447853279
30
0
40
0.5000000074505806
210
0
220
0
230
1
0
LWPOLYLINE
5
114
100
AcDbEntity
8
0
100
AcDbPolyline
90
4
70
1
43
0.0
10
-15.871168771032151
20
3.2624923313986507
10
-22.691759224528795
20
4.8371497118057096
10
-24.71631871362359
20
-3.9321808712613997
10
-17.895728260126941
20
-5.5068382516684657
0
LINE
5
115
100
AcDbEntity
8
0
100
AcDbLine
10
-22.729668904290961
20
0.22753336592829521
30
0
11
-16.883448515579548
21
-1.1221729601349071
31
0
0
LWPOLYLINE
5
116
100
AcDbEntity
8
0
100
AcDbPolyline
90
4
70
1
43
0.0
10
6.9999999999999112
20
-52.938468194995075
10
-7.0000000000000906
20
-52.938468194995075
10
-7.0000000000000906
20
-67.938468194995082
10
6.9999999999999112
20
-67.938468194995082
0
LWPOLYLINE
5
117
100
AcDbEntity
8
0
100
AcDbPolyline
90
4
70
1
43
0.0
10
6.2499999999999112
20
-53.688468194995082
10
-6.2500000000000888
20
-53.688468194995082
10
-6.2500000000000888
20
-67.188468194995068
10
6.2499999999999112
20
-67.188468194995068
0
LINE
5
118
100
AcDbEntity
8
0
100
AcDbLine
10
-7.0000000000000906
20
-60.438468194995075
30
0
11
-8.889160844703647e-14
21
-60.438468194995075
31
0
0
LINE
5
119
100
AcDbEntity
8
0
100
AcDbLine
10
-8.889160844703647e-14
20
-60.438468194995075
30
0
11
-8.889160844703647e-14
21
-52.938468194995075
31
0
0
CIRCLE
5
120
100
AcDbEntity
8
0
100
AcDbCircle
10
-8.889160844703647e-14
20
-60.438468194995075
30
0
40
3.1749999999999998
210
0
220
0
230
1
0
LINE
5
121
100
AcDbEntity
8
0
100
AcDbLine
10
-18.000000000000099
20
-69.938468194995082
30
0
11
17.999999999999904
21
-69.938468194995082
31
0
0
ENDSEC
0
SECTION
2
OBJECTS
0
DICTIONARY
5
C
100
AcDbDictionary
3
ACAD_GROUP
350
D
3
ACAD_MLINESTYLE
350
17
0
DICTIONARY
5
D
100
AcDbDictionary
0
DICTIONARY
5
1A
330
C
100
AcDbDictionary
0
DICTIONARY
5
17
100
AcDbDictionary
0
ENDSEC
0
EOF
