%TF.GenerationSoftware,KiCad,Pcbnew,(5.99.0-12889-g70df3822b5)*%
%TF.CreationDate,2021-11-17T13:45:06-05:00*%
%TF.ProjectId,cover,636f7665-722e-46b6-9963-61645f706362,rev?*%
%TF.SameCoordinates,Original*%
%TF.FileFunction,Profile,NP*%
%FSLAX46Y46*%
G04 Gerber Fmt 4.6, Leading zero omitted, Abs format (unit mm)*
G04 Created by KiCad (PCBNEW (5.99.0-12889-g70df3822b5)) date 2021-11-17 13:45:06*
%MOMM*%
%LPD*%
G01*
G04 APERTURE LIST*
%TA.AperFunction,Profile*%
%ADD10C,0.264583*%
%TD*%
G04 APERTURE END LIST*
D10*
%TO.C,REF\u002A\u002A*%
X149262473Y-58609091D02*
X149190392Y-58634405D01*
X165788224Y-53143743D02*
X165800285Y-53193784D01*
X145772957Y-60124443D02*
X145775560Y-60050012D01*
X148592750Y-59051750D02*
X148546769Y-59107366D01*
X145496462Y-59165045D02*
X145453253Y-59107366D01*
X145897059Y-129640459D02*
X145750011Y-129561956D01*
X130003459Y-120023582D02*
X129986047Y-119965726D01*
X148986653Y-58729875D02*
X148923130Y-58767824D01*
X138784060Y-45149442D02*
X142889825Y-45382266D01*
X146358184Y-129813165D02*
X146201671Y-129766063D01*
X148265694Y-59686862D02*
X148250437Y-59757907D01*
X145742247Y-60349259D02*
X145756367Y-60274182D01*
X145769717Y-59902605D02*
X145761404Y-59829859D01*
X128821482Y-54337024D02*
X128774788Y-54317928D01*
X145715698Y-59616841D02*
X145693762Y-59547958D01*
X145761404Y-59829859D02*
X145749585Y-59757907D01*
X128186966Y-53540054D02*
X128181424Y-53491556D01*
X128392399Y-54021722D02*
X128363593Y-53983269D01*
X163904248Y-120246451D02*
X163844902Y-120351757D01*
X130428041Y-120678407D02*
X130383078Y-120636302D01*
X163319060Y-120861882D02*
X163319060Y-120861882D01*
X130603397Y-44218145D02*
X134687114Y-44761401D01*
X147952234Y-129708494D02*
X147798351Y-129766063D01*
X165822494Y-53393284D02*
X165821759Y-53442607D01*
X129958230Y-119847946D02*
X129947884Y-119788165D01*
X130626729Y-120829010D02*
X130574291Y-120794174D01*
X148102963Y-129640459D02*
X147952234Y-129708494D01*
X129939952Y-119727884D02*
X129934464Y-119667175D01*
X128774788Y-54317928D02*
X128729498Y-54296688D01*
X164045517Y-119297887D02*
X164062483Y-119421458D01*
X165711312Y-53860432D02*
X165688318Y-53902547D01*
X148546769Y-59107366D02*
X148503560Y-59165045D01*
X130155120Y-120351752D02*
X130124373Y-120299670D01*
X165663342Y-53943519D02*
X165636429Y-53983269D01*
X128205017Y-53635386D02*
X128194845Y-53588023D01*
X165576968Y-54058799D02*
X165544510Y-54094425D01*
X145574296Y-59286126D02*
X145536832Y-59224670D01*
X149336527Y-58587224D02*
X149262473Y-58609091D01*
X129970961Y-119907157D02*
X129958230Y-119847946D01*
X165081117Y-54368474D02*
X149336527Y-58587224D01*
X147641838Y-129813165D02*
X147483221Y-129849800D01*
X148230305Y-59902605D02*
X148225564Y-59976028D01*
X163954880Y-120136869D02*
X163904248Y-120246451D01*
X145724155Y-60424321D02*
X145724155Y-60424321D01*
X148641438Y-58998312D02*
X148592750Y-59051750D01*
X130474917Y-120718801D02*
X130428041Y-120678407D01*
X128918905Y-54368474D02*
X128869536Y-54353898D01*
X148225564Y-59976028D02*
X148224462Y-60050012D01*
X128190324Y-53243836D02*
X128199737Y-53193784D01*
X134687114Y-44761401D02*
X138784060Y-45149442D01*
X128729498Y-54296688D02*
X128685656Y-54273380D01*
X142889825Y-45382266D02*
X147000000Y-45459874D01*
X128194845Y-53588023D02*
X128186966Y-53540054D01*
X145453253Y-59107366D02*
X145407272Y-59051750D01*
X130222943Y-120452208D02*
X130187987Y-120402621D01*
X144737549Y-58609091D02*
X144663495Y-58587224D01*
X148861913Y-58808643D02*
X148803069Y-58852216D01*
X128525663Y-54161013D02*
X128489730Y-54128522D01*
X165732281Y-53817249D02*
X165711312Y-53860432D01*
X146676994Y-129875967D02*
X146516800Y-129849800D01*
X147000000Y-45459874D02*
X151110175Y-45382266D01*
X165225234Y-54317928D02*
X165178540Y-54337024D01*
X165474359Y-54161013D02*
X165436756Y-54191821D01*
X148306260Y-59547958D02*
X148284324Y-59616841D01*
X164017949Y-119174596D02*
X164045517Y-119297887D01*
X128183514Y-53293821D02*
X128190324Y-53243836D01*
X128232060Y-53727990D02*
X128217436Y-53682068D01*
X129986047Y-119965726D02*
X129970961Y-119907157D01*
X145076892Y-58767824D02*
X145013369Y-58729875D01*
X165813056Y-53540054D02*
X165805177Y-53588023D01*
X165751179Y-53773076D02*
X165732281Y-53817249D01*
X128267741Y-53817249D02*
X128248843Y-53773076D01*
X164029061Y-119907151D02*
X163996563Y-120023579D01*
X128643307Y-54248082D02*
X128602496Y-54220870D01*
X151110175Y-45382266D02*
X155215940Y-45149442D01*
X145307258Y-58947166D02*
X145253358Y-58898429D01*
X128311704Y-53902547D02*
X128288710Y-53860432D01*
X165314366Y-54273380D02*
X165270524Y-54296688D01*
X145774458Y-59976028D02*
X145769717Y-59902605D01*
X147161782Y-129891668D02*
X147000011Y-129896901D01*
X148391234Y-59349299D02*
X148359781Y-59414072D01*
X147483221Y-129849800D02*
X147323028Y-129875967D01*
X165436756Y-54191821D02*
X165397526Y-54220870D01*
X145536832Y-59224670D02*
X145496462Y-59165045D01*
X144663495Y-58587224D02*
X128918905Y-54368474D01*
X128177528Y-53393284D02*
X128179264Y-53343663D01*
X163616944Y-120636318D02*
X163525105Y-120718821D01*
X165544510Y-54094425D02*
X165510292Y-54128522D01*
X128423054Y-54058799D02*
X128392399Y-54021722D01*
X165607623Y-54021722D02*
X165576968Y-54058799D01*
X164017949Y-119174596D02*
X164017949Y-119174596D01*
X129982073Y-119174596D02*
X145724155Y-60424321D01*
X165800285Y-53193784D02*
X165809698Y-53243836D01*
X165510292Y-54128522D02*
X165474359Y-54161013D01*
X146201671Y-129766063D02*
X146047787Y-129708494D01*
X145253358Y-58898429D02*
X145196953Y-58852216D01*
X145608788Y-59349299D02*
X145574296Y-59286126D01*
X145750011Y-129561956D02*
X145750011Y-129561956D01*
X145749585Y-59757907D02*
X145734328Y-59686862D01*
X165788224Y-53143743D02*
X165788224Y-53143743D01*
X145756367Y-60274182D02*
X145766581Y-60199204D01*
X146838240Y-129891668D02*
X146676994Y-129875967D01*
X128181424Y-53491556D02*
X128178263Y-53442607D01*
X130680962Y-120861852D02*
X130680962Y-120861852D01*
X130680962Y-120861852D02*
X130626729Y-120829010D01*
X128288710Y-53860432D02*
X128267741Y-53817249D01*
X144947606Y-58694912D02*
X144879671Y-58663050D01*
X130340057Y-120592559D02*
X130299008Y-120547248D01*
X128178263Y-53442607D02*
X128177528Y-53393284D01*
X164062483Y-119421458D02*
X164069085Y-119544740D01*
X165795005Y-53635386D02*
X165782586Y-53682068D01*
X145766581Y-60199204D02*
X145772957Y-60124443D01*
X129930937Y-119544756D02*
X129932957Y-119483189D01*
X148803069Y-58852216D02*
X148746664Y-58898429D01*
X129934464Y-119667175D02*
X129931449Y-119606108D01*
X165178540Y-54337024D02*
X165130486Y-54353898D01*
X165821759Y-53442607D02*
X165818598Y-53491556D01*
X165805177Y-53588023D02*
X165795005Y-53635386D01*
X165636429Y-53983269D02*
X165607623Y-54021722D01*
X148692764Y-58947166D02*
X148641438Y-58998312D01*
X129954505Y-119297912D02*
X129966949Y-119236199D01*
X147323028Y-129875967D02*
X147161782Y-129891668D01*
X148227065Y-60124443D02*
X148233441Y-60199204D01*
X165820758Y-53343663D02*
X165822494Y-53393284D01*
X130045142Y-120136869D02*
X130023167Y-120080653D01*
X149120351Y-58663050D02*
X149052416Y-58694912D01*
X145750011Y-129561956D02*
X130680962Y-120861852D01*
X148257775Y-60349259D02*
X148275866Y-60424321D01*
X145775560Y-60050012D02*
X145774458Y-59976028D01*
X145358584Y-58998312D02*
X145307258Y-58947166D01*
X145693762Y-59547958D02*
X145668587Y-59480330D01*
X130095774Y-120246449D02*
X130069354Y-120192158D01*
X145640241Y-59414072D02*
X145608788Y-59349299D01*
X165130486Y-54353898D02*
X165081117Y-54368474D01*
X130523677Y-120757414D02*
X130474917Y-120718801D01*
X148503560Y-59165045D02*
X148463190Y-59224670D01*
X165397526Y-54220870D02*
X165356715Y-54248082D01*
X165688318Y-53902547D02*
X165663342Y-53943519D01*
X130124373Y-120299670D02*
X130095774Y-120246449D01*
X130383078Y-120636302D02*
X130340057Y-120592559D01*
X147798351Y-129766063D02*
X147641838Y-129813165D01*
X128217436Y-53682068D02*
X128205017Y-53635386D01*
X164069085Y-119544740D02*
X164065558Y-119667162D01*
X129937539Y-119421478D02*
X129944712Y-119359696D01*
X128489730Y-54128522D02*
X128455512Y-54094425D01*
X149190392Y-58634405D02*
X149120351Y-58663050D01*
X148224462Y-60050012D02*
X148227065Y-60124443D01*
X163425731Y-120794199D02*
X163319060Y-120861882D01*
X148284324Y-59616841D02*
X148265694Y-59686862D01*
X145407272Y-59051750D02*
X145358584Y-58998312D01*
X163996563Y-120023579D02*
X163954880Y-120136869D01*
X128685656Y-54273380D02*
X128643307Y-54248082D01*
X163396604Y-44218145D02*
X163396604Y-44218145D01*
X145138109Y-58808643D02*
X145076892Y-58767824D01*
X129944712Y-119359696D02*
X129954505Y-119297912D01*
X147000011Y-129896901D02*
X146838240Y-129891668D01*
X163844902Y-120351757D02*
X163777079Y-120452217D01*
X163525105Y-120718821D02*
X163425731Y-120794199D01*
X129947884Y-119788165D02*
X129939952Y-119727884D01*
X128918905Y-54368474D02*
X128918905Y-54368474D01*
X130299008Y-120547248D02*
X130259960Y-120500441D01*
X129982073Y-119174627D02*
X129982073Y-119174627D01*
X130023167Y-120080653D02*
X130003459Y-120023582D01*
X129982073Y-119174627D02*
X129982073Y-119174596D01*
X145668587Y-59480330D02*
X145640241Y-59414072D01*
X165816508Y-53293821D02*
X165820758Y-53343663D01*
X145734328Y-59686862D02*
X145715698Y-59616841D01*
X130603397Y-44218145D02*
X130603397Y-44218145D01*
X148746664Y-58898429D02*
X148692764Y-58947166D01*
X148250010Y-129561956D02*
X148250010Y-129561956D01*
X145196953Y-58852216D02*
X145138109Y-58808643D01*
X165818598Y-53491556D02*
X165813056Y-53540054D01*
X165767962Y-53727990D02*
X165751179Y-53773076D01*
X128363593Y-53983269D02*
X128336680Y-53943519D01*
X146516800Y-129849800D02*
X146358184Y-129813165D01*
X128455512Y-54094425D02*
X128423054Y-54058799D01*
X128179264Y-53343663D02*
X128183514Y-53293821D01*
X148243655Y-60274182D02*
X148257775Y-60349259D01*
X148238618Y-59829859D02*
X148230305Y-59902605D01*
X144809630Y-58634405D02*
X144737549Y-58609091D01*
X145013369Y-58729875D02*
X144947606Y-58694912D01*
X148923130Y-58767824D02*
X148861913Y-58808643D01*
X165270524Y-54296688D02*
X165225234Y-54317928D01*
X128602496Y-54220870D02*
X128563266Y-54191821D01*
X149052416Y-58694912D02*
X148986653Y-58729875D01*
X130574291Y-120794174D02*
X130523677Y-120757414D01*
X128199737Y-53193784D02*
X128211798Y-53143743D01*
X128211798Y-53143743D02*
X130603397Y-44218145D01*
X130259960Y-120500441D02*
X130222943Y-120452208D01*
X163777079Y-120452217D02*
X163701014Y-120547260D01*
X128869536Y-54353898D02*
X128821482Y-54337024D01*
X144663495Y-58587224D02*
X144663495Y-58587224D01*
X146047787Y-129708494D02*
X145897059Y-129640459D01*
X155215940Y-45149442D02*
X159312886Y-44761401D01*
X129932957Y-119483189D02*
X129937539Y-119421478D01*
X164052138Y-119788156D02*
X164029061Y-119907151D01*
X165782586Y-53682068D02*
X165767962Y-53727990D01*
X128336680Y-53943519D02*
X128311704Y-53902547D01*
X163396604Y-44218145D02*
X165788224Y-53143743D01*
X148359781Y-59414072D02*
X148331434Y-59480330D01*
X129931449Y-119606108D02*
X129930937Y-119544756D01*
X148250437Y-59757907D02*
X148238618Y-59829859D01*
X148250010Y-129561956D02*
X148102963Y-129640459D01*
X159312886Y-44761401D02*
X163396604Y-44218145D01*
X149336527Y-58587224D02*
X149336527Y-58587224D01*
X128563266Y-54191821D02*
X128525663Y-54161013D01*
X128211798Y-53143743D02*
X128211798Y-53143743D01*
X165356715Y-54248082D02*
X165314366Y-54273380D01*
X128248843Y-53773076D02*
X128232060Y-53727990D01*
X145724155Y-60424321D02*
X145742247Y-60349259D01*
X148425726Y-59286126D02*
X148391234Y-59349299D01*
X163701014Y-120547260D02*
X163616944Y-120636318D01*
X164065558Y-119667162D02*
X164052138Y-119788156D01*
X148463190Y-59224670D02*
X148425726Y-59286126D01*
X163319060Y-120861882D02*
X148250010Y-129561956D01*
X148275866Y-60424321D02*
X148275866Y-60424321D01*
X129966949Y-119236199D02*
X129982073Y-119174627D01*
X130187987Y-120402621D02*
X130155120Y-120351752D01*
X165809698Y-53243836D02*
X165816508Y-53293821D01*
X165081117Y-54368474D02*
X165081117Y-54368474D01*
X148331434Y-59480330D02*
X148306260Y-59547958D01*
X148233441Y-60199204D02*
X148243655Y-60274182D01*
X148275866Y-60424321D02*
X164017949Y-119174596D01*
X144879671Y-58663050D02*
X144809630Y-58634405D01*
X130069354Y-120192158D02*
X130045142Y-120136869D01*
%TD*%
M02*
