%TF.GenerationSoftware,KiCad,Pcbnew,(5.99.0-12889-g70df3822b5)*%
%TF.CreationDate,2021-11-17T13:45:06-05:00*%
%TF.ProjectId,cover,636f7665-722e-46b6-9963-61645f706362,rev?*%
%TF.SameCoordinates,Original*%
%TF.FileFunction,Copper,L2,Bot*%
%TF.FilePolarity,Positive*%
%FSLAX46Y46*%
G04 Gerber Fmt 4.6, Leading zero omitted, Abs format (unit mm)*
G04 Created by KiCad (PCBNEW (5.99.0-12889-g70df3822b5)) date 2021-11-17 13:45:06*
%MOMM*%
%LPD*%
G01*
G04 APERTURE LIST*
%TA.AperFunction,ComponentPad*%
%ADD10C,1.200000*%
%TD*%
%TA.AperFunction,ComponentPad*%
%ADD11C,3.000000*%
%TD*%
G04 APERTURE END LIST*
D10*
%TO.P,REF\u002A\u002A,*%
%TO.N,shield*%
X154000000Y-47500000D03*
X140000000Y-47500000D03*
D11*
X147000000Y-65322024D03*
%TD*%
%TA.AperFunction,Conductor*%
%TO.N,shield*%
G36*
X163209357Y-44464995D02*
G01*
X163262519Y-44512051D01*
X163277515Y-44546436D01*
X164970853Y-50866026D01*
X165583888Y-53153892D01*
X165584849Y-53161212D01*
X165585048Y-53161167D01*
X165588192Y-53175004D01*
X165588179Y-53189192D01*
X165594321Y-53201983D01*
X165594929Y-53204659D01*
X165601890Y-53224208D01*
X165603919Y-53232624D01*
X165605255Y-53238852D01*
X165611453Y-53271803D01*
X165611620Y-53272693D01*
X165612636Y-53278958D01*
X165616761Y-53309240D01*
X165617235Y-53312716D01*
X165617928Y-53318974D01*
X165620790Y-53352544D01*
X165621166Y-53358807D01*
X165622332Y-53392147D01*
X165622395Y-53398426D01*
X165621957Y-53427866D01*
X165621902Y-53431546D01*
X165621655Y-53437770D01*
X165619683Y-53468308D01*
X165619532Y-53470649D01*
X165618981Y-53476817D01*
X165615737Y-53505206D01*
X165615258Y-53509394D01*
X165614407Y-53515510D01*
X165609106Y-53547782D01*
X165607963Y-53553814D01*
X165601126Y-53585651D01*
X165599700Y-53591589D01*
X165591331Y-53623048D01*
X165589632Y-53628865D01*
X165579767Y-53659845D01*
X165579765Y-53659850D01*
X165577806Y-53665528D01*
X165566456Y-53696020D01*
X165564227Y-53701592D01*
X165557890Y-53716407D01*
X165551475Y-53731401D01*
X165548976Y-53736878D01*
X165534797Y-53766077D01*
X165534791Y-53766089D01*
X165532038Y-53771429D01*
X165516501Y-53799886D01*
X165513514Y-53805061D01*
X165496604Y-53832801D01*
X165493388Y-53837804D01*
X165490262Y-53842421D01*
X165475182Y-53864694D01*
X165471706Y-53869573D01*
X165452222Y-53895583D01*
X165448500Y-53900309D01*
X165431758Y-53920559D01*
X165427818Y-53925324D01*
X165423855Y-53929890D01*
X165401967Y-53953913D01*
X165397789Y-53958284D01*
X165374720Y-53981272D01*
X165370299Y-53985469D01*
X165346128Y-54007325D01*
X165346120Y-54007332D01*
X165341466Y-54011338D01*
X165316192Y-54032045D01*
X165311337Y-54035828D01*
X165284962Y-54055358D01*
X165279885Y-54058927D01*
X165252486Y-54077197D01*
X165247199Y-54080536D01*
X165218774Y-54097516D01*
X165213304Y-54100601D01*
X165183853Y-54116258D01*
X165178212Y-54119078D01*
X165147731Y-54133374D01*
X165141934Y-54135916D01*
X165110457Y-54148788D01*
X165104523Y-54151042D01*
X165071990Y-54162466D01*
X165065964Y-54164413D01*
X165034369Y-54173741D01*
X165026771Y-54175727D01*
X164992155Y-54183624D01*
X164992154Y-54183625D01*
X164991603Y-54181207D01*
X164987925Y-54181812D01*
X164989069Y-54186083D01*
X149304237Y-58388821D01*
X149303629Y-58386553D01*
X149301288Y-58387630D01*
X149301685Y-58388975D01*
X149289802Y-58392484D01*
X149282175Y-58394479D01*
X149247565Y-58402374D01*
X149247564Y-58402375D01*
X149247371Y-58401527D01*
X149241255Y-58402533D01*
X149242419Y-58406475D01*
X149242416Y-58406477D01*
X149242243Y-58406528D01*
X149223023Y-58412203D01*
X149222668Y-58412296D01*
X149217643Y-58412860D01*
X149210921Y-58415221D01*
X149210915Y-58415222D01*
X149203981Y-58417657D01*
X149197922Y-58419615D01*
X149190993Y-58421661D01*
X149190990Y-58421662D01*
X149184211Y-58423664D01*
X149179808Y-58426135D01*
X149179453Y-58426272D01*
X149141025Y-58439768D01*
X149140693Y-58439873D01*
X149135716Y-58440687D01*
X149129118Y-58443385D01*
X149129112Y-58443387D01*
X149122315Y-58446167D01*
X149116373Y-58448424D01*
X149109524Y-58450829D01*
X149109516Y-58450833D01*
X149102850Y-58453174D01*
X149098586Y-58455859D01*
X149098233Y-58456016D01*
X149061243Y-58471144D01*
X149060918Y-58471265D01*
X149055999Y-58472327D01*
X149049549Y-58475352D01*
X149049547Y-58475353D01*
X149042842Y-58478498D01*
X149037040Y-58481043D01*
X149023775Y-58486468D01*
X149019663Y-58489357D01*
X149019352Y-58489515D01*
X148983729Y-58506222D01*
X148983429Y-58506351D01*
X148978593Y-58507652D01*
X148972310Y-58510992D01*
X148972308Y-58510993D01*
X148965726Y-58514492D01*
X148960090Y-58517309D01*
X148953479Y-58520410D01*
X148947079Y-58523412D01*
X148943134Y-58526491D01*
X148942838Y-58526661D01*
X148908614Y-58544856D01*
X148908336Y-58544993D01*
X148903588Y-58546527D01*
X148891052Y-58554016D01*
X148885591Y-58557096D01*
X148879112Y-58560540D01*
X148879108Y-58560543D01*
X148872859Y-58563865D01*
X148869090Y-58567124D01*
X148868803Y-58567308D01*
X148835984Y-58586914D01*
X148835723Y-58587059D01*
X148831081Y-58588817D01*
X148825152Y-58592771D01*
X148825151Y-58592771D01*
X148818890Y-58596946D01*
X148813637Y-58600264D01*
X148801203Y-58607692D01*
X148797620Y-58611117D01*
X148797373Y-58611293D01*
X148765898Y-58632279D01*
X148765674Y-58632419D01*
X148761155Y-58634390D01*
X148749354Y-58643128D01*
X148744287Y-58646690D01*
X148738085Y-58650825D01*
X148738081Y-58650828D01*
X148732200Y-58654750D01*
X148728809Y-58658330D01*
X148728562Y-58658525D01*
X148698511Y-58680777D01*
X148698296Y-58680926D01*
X148693894Y-58683109D01*
X148682468Y-58692470D01*
X148677641Y-58696230D01*
X148665931Y-58704902D01*
X148662735Y-58708627D01*
X148662532Y-58708804D01*
X148633831Y-58732319D01*
X148633649Y-58732459D01*
X148629381Y-58734841D01*
X148624094Y-58739622D01*
X148618411Y-58744760D01*
X148613764Y-58748760D01*
X148607940Y-58753532D01*
X148602472Y-58758012D01*
X148599481Y-58761865D01*
X148599293Y-58762046D01*
X148571981Y-58786741D01*
X148571813Y-58786883D01*
X148567687Y-58789457D01*
X148557200Y-58799908D01*
X148552776Y-58804109D01*
X148541903Y-58813940D01*
X148539110Y-58817925D01*
X148538967Y-58818077D01*
X148513031Y-58843921D01*
X148512886Y-58844057D01*
X148508902Y-58846817D01*
X148504104Y-58852083D01*
X148504103Y-58852084D01*
X148498892Y-58857803D01*
X148494696Y-58862192D01*
X148489308Y-58867561D01*
X148489306Y-58867564D01*
X148484295Y-58872557D01*
X148481713Y-58876650D01*
X148481582Y-58876803D01*
X148465198Y-58894786D01*
X148457046Y-58903733D01*
X148456919Y-58903864D01*
X148453087Y-58906800D01*
X148448548Y-58912291D01*
X148448543Y-58912295D01*
X148443600Y-58918274D01*
X148439634Y-58922843D01*
X148434494Y-58928484D01*
X148434491Y-58928488D01*
X148429726Y-58933718D01*
X148427349Y-58937922D01*
X148427234Y-58938071D01*
X148404110Y-58966039D01*
X148404005Y-58966159D01*
X148400326Y-58969269D01*
X148396054Y-58974972D01*
X148396052Y-58974974D01*
X148391382Y-58981208D01*
X148387652Y-58985945D01*
X148382772Y-58991848D01*
X148382769Y-58991852D01*
X148378261Y-58997305D01*
X148376099Y-59001599D01*
X148375983Y-59001764D01*
X148354315Y-59030689D01*
X148354201Y-59030831D01*
X148350689Y-59034100D01*
X148346693Y-59040003D01*
X148346688Y-59040008D01*
X148342305Y-59046480D01*
X148338818Y-59051375D01*
X148334220Y-59057513D01*
X148334218Y-59057517D01*
X148329976Y-59063179D01*
X148328026Y-59067563D01*
X148327928Y-59067718D01*
X148327835Y-59067856D01*
X148307700Y-59097593D01*
X148307598Y-59097734D01*
X148304247Y-59101165D01*
X148300537Y-59107250D01*
X148300532Y-59107257D01*
X148296459Y-59113939D01*
X148293214Y-59118987D01*
X148288904Y-59125353D01*
X148284939Y-59131210D01*
X148283202Y-59135675D01*
X148283112Y-59135834D01*
X148282660Y-59136576D01*
X148264352Y-59166610D01*
X148264258Y-59166754D01*
X148261076Y-59170339D01*
X148257662Y-59176592D01*
X148257657Y-59176599D01*
X148253916Y-59183452D01*
X148250912Y-59188656D01*
X148243220Y-59201274D01*
X148241700Y-59205812D01*
X148241611Y-59205989D01*
X148224346Y-59237611D01*
X148224258Y-59237761D01*
X148221249Y-59241496D01*
X148218136Y-59247906D01*
X148218135Y-59247908D01*
X148214725Y-59254931D01*
X148211973Y-59260272D01*
X148204890Y-59273244D01*
X148203587Y-59277853D01*
X148203510Y-59278026D01*
X148187758Y-59310467D01*
X148187673Y-59310629D01*
X148184840Y-59314512D01*
X148178964Y-59328248D01*
X148178958Y-59328261D01*
X148176470Y-59333712D01*
X148170022Y-59346991D01*
X148168939Y-59351663D01*
X148168870Y-59351840D01*
X148164353Y-59362399D01*
X148154643Y-59385095D01*
X148154572Y-59385246D01*
X148151926Y-59389264D01*
X148149440Y-59395942D01*
X148146725Y-59403234D01*
X148144489Y-59408826D01*
X148144479Y-59408850D01*
X148138687Y-59422390D01*
X148137826Y-59427124D01*
X148137762Y-59427313D01*
X148125103Y-59461319D01*
X148125045Y-59461461D01*
X148122585Y-59465619D01*
X148118072Y-59479792D01*
X148116095Y-59485522D01*
X148110959Y-59499316D01*
X148110324Y-59504100D01*
X148110268Y-59504297D01*
X148099225Y-59538974D01*
X148099154Y-59539174D01*
X148096890Y-59543458D01*
X148095058Y-59550342D01*
X148095056Y-59550348D01*
X148093063Y-59557839D01*
X148091368Y-59563643D01*
X148086912Y-59577636D01*
X148086505Y-59582462D01*
X148086458Y-59582666D01*
X148077044Y-59618047D01*
X148076986Y-59618240D01*
X148074923Y-59622652D01*
X148073426Y-59629625D01*
X148073425Y-59629627D01*
X148071811Y-59637140D01*
X148070384Y-59643079D01*
X148068441Y-59650381D01*
X148068439Y-59650392D01*
X148066621Y-59657226D01*
X148066447Y-59662088D01*
X148066409Y-59662299D01*
X148064126Y-59672932D01*
X148058673Y-59698323D01*
X148058618Y-59698543D01*
X148056765Y-59703067D01*
X148055611Y-59710095D01*
X148055608Y-59710104D01*
X148054368Y-59717655D01*
X148053227Y-59723681D01*
X148050161Y-59737958D01*
X148050223Y-59742840D01*
X148050190Y-59743093D01*
X148044177Y-59779697D01*
X148044128Y-59779945D01*
X148042491Y-59784576D01*
X148041682Y-59791655D01*
X148041681Y-59791659D01*
X148040819Y-59799206D01*
X148039971Y-59805305D01*
X148037608Y-59819689D01*
X148037910Y-59824591D01*
X148037888Y-59824857D01*
X148034165Y-59857433D01*
X148033638Y-59862047D01*
X148033599Y-59862313D01*
X148032185Y-59867042D01*
X148031239Y-59881689D01*
X148031239Y-59881692D01*
X148030689Y-59887848D01*
X148029038Y-59902298D01*
X148029582Y-59907203D01*
X148029572Y-59907504D01*
X148027138Y-59945212D01*
X148027109Y-59945512D01*
X148025925Y-59950329D01*
X148025819Y-59957450D01*
X148025818Y-59957456D01*
X148025706Y-59964977D01*
X148025459Y-59971197D01*
X148024527Y-59985640D01*
X148025316Y-59990535D01*
X148025321Y-59990851D01*
X148024752Y-60029089D01*
X148024738Y-60029395D01*
X148023790Y-60034293D01*
X148024039Y-60041420D01*
X148024039Y-60041424D01*
X148024300Y-60048874D01*
X148024363Y-60055158D01*
X148024148Y-60069577D01*
X148025184Y-60074455D01*
X148025206Y-60074785D01*
X148026560Y-60113503D01*
X148026561Y-60113838D01*
X148025857Y-60118798D01*
X148027092Y-60133284D01*
X148027093Y-60133292D01*
X148027472Y-60139586D01*
X148027975Y-60153966D01*
X148029258Y-60158803D01*
X148029299Y-60159158D01*
X148032641Y-60198341D01*
X148032659Y-60198680D01*
X148032204Y-60203685D01*
X148033166Y-60210745D01*
X148034162Y-60218054D01*
X148034859Y-60224355D01*
X148035478Y-60231608D01*
X148035479Y-60231612D01*
X148036080Y-60238663D01*
X148037611Y-60243450D01*
X148037670Y-60243802D01*
X148043068Y-60283429D01*
X148043104Y-60283772D01*
X148042901Y-60288817D01*
X148044219Y-60295824D01*
X148044219Y-60295829D01*
X148045583Y-60303086D01*
X148046599Y-60309352D01*
X148048529Y-60323518D01*
X148050302Y-60328233D01*
X148050384Y-60328606D01*
X148057911Y-60368628D01*
X148057965Y-60368972D01*
X148058018Y-60374030D01*
X148059717Y-60381078D01*
X148061411Y-60388106D01*
X148062745Y-60394328D01*
X148065388Y-60408383D01*
X148067400Y-60413010D01*
X148067501Y-60413378D01*
X148072319Y-60433368D01*
X148073985Y-60447446D01*
X148075833Y-60455581D01*
X148075821Y-60469770D01*
X148082430Y-60483533D01*
X148090551Y-60505455D01*
X152622830Y-77420157D01*
X157484233Y-95563170D01*
X157482543Y-95634146D01*
X157442749Y-95692942D01*
X157389583Y-95718842D01*
X156822635Y-95843494D01*
X156819188Y-95844201D01*
X155482956Y-96099101D01*
X155479491Y-96099712D01*
X154808066Y-96208459D01*
X154136630Y-96317208D01*
X154133173Y-96317718D01*
X153422060Y-96412601D01*
X152784782Y-96497632D01*
X152781286Y-96498049D01*
X151428355Y-96640248D01*
X151424900Y-96640563D01*
X150068528Y-96744931D01*
X150065032Y-96745150D01*
X149776940Y-96759240D01*
X148706271Y-96811604D01*
X148702755Y-96811726D01*
X147744437Y-96831801D01*
X147342737Y-96840215D01*
X147339244Y-96840240D01*
X146697209Y-96835757D01*
X145978889Y-96830742D01*
X145975372Y-96830668D01*
X144615863Y-96783193D01*
X144612348Y-96783021D01*
X143254685Y-96697604D01*
X143251177Y-96697334D01*
X142245554Y-96605815D01*
X141896451Y-96574044D01*
X141892966Y-96573679D01*
X141474032Y-96523724D01*
X140542128Y-96412601D01*
X140538641Y-96412135D01*
X140135505Y-96352605D01*
X139192899Y-96213414D01*
X139189498Y-96212864D01*
X137849732Y-95976627D01*
X137846277Y-95975967D01*
X136611288Y-95722459D01*
X136548581Y-95689168D01*
X136513826Y-95627260D01*
X136514917Y-95566422D01*
X145909397Y-60505734D01*
X145917613Y-60483611D01*
X145917956Y-60482899D01*
X145924120Y-60470119D01*
X145924132Y-60455930D01*
X145925893Y-60448242D01*
X145927633Y-60433652D01*
X145932482Y-60413533D01*
X145932577Y-60413190D01*
X145934601Y-60408557D01*
X145936569Y-60398095D01*
X145937278Y-60394329D01*
X145938613Y-60388103D01*
X145940306Y-60381078D01*
X145940307Y-60381073D01*
X145941962Y-60374204D01*
X145942024Y-60369157D01*
X145942086Y-60368761D01*
X145949604Y-60328785D01*
X145949686Y-60328411D01*
X145951470Y-60323693D01*
X145953429Y-60309314D01*
X145954439Y-60303076D01*
X145957088Y-60288991D01*
X145956894Y-60283952D01*
X145956931Y-60283602D01*
X145962332Y-60243960D01*
X145962387Y-60243629D01*
X145963927Y-60238840D01*
X145964533Y-60231737D01*
X145964534Y-60231730D01*
X145965162Y-60224368D01*
X145965859Y-60218071D01*
X145966839Y-60210876D01*
X145966839Y-60210868D01*
X145967794Y-60203860D01*
X145967348Y-60198856D01*
X145967368Y-60198482D01*
X145970709Y-60159316D01*
X145970748Y-60158985D01*
X145972041Y-60154142D01*
X145972550Y-60139586D01*
X145972929Y-60133284D01*
X145973548Y-60126028D01*
X145973548Y-60126022D01*
X145974149Y-60118974D01*
X145973455Y-60114020D01*
X145973456Y-60113682D01*
X145974811Y-60074933D01*
X145974831Y-60074630D01*
X145975876Y-60069754D01*
X145975659Y-60055158D01*
X145975722Y-60048890D01*
X145975979Y-60041532D01*
X145976226Y-60034469D01*
X145975289Y-60029577D01*
X145975273Y-60029233D01*
X145974704Y-59991018D01*
X145974709Y-59990714D01*
X145975507Y-59985816D01*
X145974563Y-59971186D01*
X145974316Y-59964966D01*
X145974206Y-59957578D01*
X145974205Y-59957573D01*
X145974100Y-59950506D01*
X145972926Y-59945690D01*
X145972897Y-59945386D01*
X145971283Y-59920404D01*
X145970458Y-59907637D01*
X145970450Y-59907383D01*
X145971004Y-59902474D01*
X145969333Y-59887854D01*
X145968786Y-59881734D01*
X145967849Y-59867218D01*
X145966444Y-59862486D01*
X145966401Y-59862195D01*
X145965858Y-59857437D01*
X145962153Y-59825018D01*
X145962132Y-59824765D01*
X145962442Y-59819863D01*
X145960051Y-59805305D01*
X145959206Y-59799231D01*
X145958355Y-59791783D01*
X145958354Y-59791780D01*
X145957551Y-59784752D01*
X145955922Y-59780121D01*
X145955867Y-59779839D01*
X145955844Y-59779697D01*
X145949856Y-59743238D01*
X145949828Y-59743020D01*
X145949898Y-59738131D01*
X145946794Y-59723675D01*
X145945653Y-59717649D01*
X145944433Y-59710221D01*
X145944432Y-59710218D01*
X145943286Y-59703241D01*
X145941442Y-59698718D01*
X145941378Y-59698458D01*
X145941349Y-59698323D01*
X145933648Y-59662462D01*
X145933612Y-59662262D01*
X145933446Y-59657397D01*
X145929637Y-59643079D01*
X145928213Y-59637151D01*
X145926620Y-59629732D01*
X145926618Y-59629726D01*
X145925136Y-59622826D01*
X145923087Y-59618426D01*
X145923014Y-59618182D01*
X145913606Y-59582824D01*
X145913561Y-59582628D01*
X145913163Y-59577805D01*
X145908653Y-59563642D01*
X145906953Y-59557821D01*
X145904995Y-59550462D01*
X145903177Y-59543629D01*
X145900923Y-59539345D01*
X145900847Y-59539129D01*
X145889805Y-59504456D01*
X145889751Y-59504266D01*
X145889124Y-59499480D01*
X145886592Y-59492679D01*
X145883926Y-59485516D01*
X145881951Y-59479792D01*
X145879639Y-59472533D01*
X145877491Y-59465787D01*
X145875041Y-59461631D01*
X145874962Y-59461437D01*
X145862314Y-59427461D01*
X145862256Y-59427288D01*
X145861404Y-59422556D01*
X145858550Y-59415884D01*
X145855541Y-59408850D01*
X145853303Y-59403253D01*
X145850625Y-59396058D01*
X145850623Y-59396054D01*
X145848156Y-59389427D01*
X145845518Y-59385408D01*
X145845430Y-59385218D01*
X145831215Y-59351991D01*
X145831155Y-59351836D01*
X145830077Y-59347150D01*
X145823553Y-59333714D01*
X145821058Y-59328248D01*
X145818034Y-59321180D01*
X145815252Y-59314677D01*
X145812432Y-59310798D01*
X145812342Y-59310626D01*
X145796584Y-59278175D01*
X145796513Y-59278015D01*
X145795217Y-59273400D01*
X145788046Y-59260266D01*
X145785300Y-59254938D01*
X145785297Y-59254931D01*
X145778850Y-59241655D01*
X145775853Y-59237920D01*
X145775753Y-59237751D01*
X145758488Y-59206131D01*
X145758408Y-59205973D01*
X145756894Y-59201425D01*
X145749111Y-59188658D01*
X145746115Y-59183467D01*
X145742422Y-59176703D01*
X145742418Y-59176698D01*
X145739031Y-59170494D01*
X145735857Y-59166904D01*
X145735759Y-59166754D01*
X145716999Y-59135981D01*
X145716915Y-59135831D01*
X145715183Y-59131356D01*
X145711183Y-59125448D01*
X145706792Y-59118962D01*
X145703540Y-59113904D01*
X145699548Y-59107355D01*
X145695867Y-59101316D01*
X145692524Y-59097881D01*
X145692420Y-59097737D01*
X145692323Y-59097593D01*
X145672181Y-59067844D01*
X145672097Y-59067710D01*
X145670153Y-59063321D01*
X145665885Y-59057624D01*
X145665883Y-59057620D01*
X145661200Y-59051369D01*
X145657717Y-59046480D01*
X145649433Y-59034246D01*
X145645926Y-59030971D01*
X145645797Y-59030809D01*
X145624134Y-59001892D01*
X145624030Y-59001744D01*
X145621873Y-58997441D01*
X145612374Y-58985952D01*
X145608642Y-58981211D01*
X145604042Y-58975071D01*
X145599802Y-58969411D01*
X145596138Y-58966302D01*
X145596001Y-58966147D01*
X145572904Y-58938211D01*
X145572784Y-58938055D01*
X145570415Y-58933849D01*
X145560366Y-58922819D01*
X145556433Y-58918289D01*
X145547047Y-58906936D01*
X145543227Y-58903997D01*
X145543076Y-58903842D01*
X145518557Y-58876930D01*
X145518428Y-58876779D01*
X145515853Y-58872682D01*
X145505315Y-58862180D01*
X145501132Y-58857806D01*
X145496003Y-58852177D01*
X145491239Y-58846948D01*
X145487267Y-58844186D01*
X145487101Y-58844031D01*
X145464424Y-58821433D01*
X145461194Y-58818214D01*
X145461034Y-58818044D01*
X145458250Y-58814058D01*
X145452965Y-58809279D01*
X145447258Y-58804118D01*
X145442832Y-58799917D01*
X145437468Y-58794572D01*
X145437466Y-58794570D01*
X145432460Y-58789582D01*
X145428340Y-58787002D01*
X145428150Y-58786841D01*
X145400845Y-58762151D01*
X145400677Y-58761989D01*
X145397687Y-58758124D01*
X145392178Y-58753610D01*
X145386255Y-58748757D01*
X145381606Y-58744755D01*
X145376022Y-58739706D01*
X145376021Y-58739706D01*
X145370773Y-58734960D01*
X145366514Y-58732574D01*
X145366305Y-58732413D01*
X145337615Y-58708906D01*
X145337425Y-58708740D01*
X145334233Y-58705007D01*
X145322391Y-58696238D01*
X145317521Y-58692443D01*
X145311732Y-58687700D01*
X145306265Y-58683221D01*
X145301870Y-58681031D01*
X145301643Y-58680874D01*
X145271579Y-58658612D01*
X145271356Y-58658435D01*
X145267969Y-58654849D01*
X145262048Y-58650901D01*
X145262046Y-58650899D01*
X145255750Y-58646701D01*
X145250689Y-58643144D01*
X145239009Y-58634495D01*
X145234490Y-58632514D01*
X145234238Y-58632357D01*
X145202789Y-58611387D01*
X145202549Y-58611216D01*
X145198970Y-58607783D01*
X145186401Y-58600274D01*
X145181124Y-58596941D01*
X145174971Y-58592838D01*
X145174967Y-58592836D01*
X145169088Y-58588916D01*
X145164456Y-58587153D01*
X145164176Y-58586997D01*
X145164037Y-58586914D01*
X145131336Y-58567378D01*
X145131089Y-58567219D01*
X145127319Y-58563948D01*
X145114426Y-58557093D01*
X145108969Y-58554015D01*
X145096585Y-58546617D01*
X145091842Y-58545075D01*
X145091564Y-58544938D01*
X145067449Y-58532118D01*
X145057322Y-58526734D01*
X145057046Y-58526576D01*
X145053104Y-58523487D01*
X145039914Y-58517301D01*
X145034313Y-58514501D01*
X145021585Y-58507734D01*
X145016757Y-58506427D01*
X145016421Y-58506282D01*
X144980829Y-58489589D01*
X144980519Y-58489432D01*
X144976411Y-58486535D01*
X144969814Y-58483837D01*
X144962970Y-58481038D01*
X144957167Y-58478492D01*
X144950587Y-58475406D01*
X144950582Y-58475404D01*
X144944183Y-58472403D01*
X144939273Y-58471334D01*
X144938946Y-58471212D01*
X144901902Y-58456062D01*
X144901604Y-58455929D01*
X144897339Y-58453233D01*
X144883670Y-58448432D01*
X144877753Y-58446185D01*
X144864470Y-58440753D01*
X144859495Y-58439930D01*
X144859129Y-58439814D01*
X144820717Y-58426324D01*
X144820387Y-58426196D01*
X144815981Y-58423714D01*
X144802100Y-58419615D01*
X144796070Y-58417668D01*
X144782546Y-58412919D01*
X144777531Y-58412347D01*
X144777157Y-58412249D01*
X144757778Y-58406527D01*
X144759001Y-58402387D01*
X144753030Y-58401448D01*
X144752781Y-58402530D01*
X144717938Y-58394518D01*
X144710494Y-58392565D01*
X144698511Y-58389027D01*
X144698508Y-58389026D01*
X144698969Y-58387465D01*
X144696639Y-58386310D01*
X144695954Y-58388866D01*
X129011130Y-54186131D01*
X129012414Y-54181340D01*
X129008869Y-54180829D01*
X129008191Y-54183780D01*
X128973349Y-54175768D01*
X128965905Y-54173815D01*
X128934083Y-54164419D01*
X128928023Y-54162462D01*
X128895509Y-54151046D01*
X128895495Y-54151041D01*
X128889576Y-54148793D01*
X128858088Y-54135916D01*
X128852292Y-54133373D01*
X128821810Y-54119078D01*
X128816162Y-54116255D01*
X128812047Y-54114067D01*
X128800020Y-54107673D01*
X128786713Y-54100599D01*
X128781243Y-54097513D01*
X128752810Y-54080528D01*
X128747526Y-54077191D01*
X128720135Y-54058927D01*
X128715055Y-54055356D01*
X128688715Y-54035852D01*
X128683871Y-54032079D01*
X128658514Y-54011303D01*
X128653920Y-54007348D01*
X128629749Y-53985493D01*
X128625322Y-53981291D01*
X128602241Y-53958291D01*
X128598041Y-53953899D01*
X128576150Y-53929871D01*
X128572203Y-53925324D01*
X128551491Y-53900273D01*
X128547818Y-53895607D01*
X128528312Y-53869569D01*
X128524842Y-53864698D01*
X128506656Y-53837837D01*
X128503404Y-53832778D01*
X128502230Y-53830851D01*
X128486515Y-53805071D01*
X128483514Y-53799873D01*
X128479901Y-53793256D01*
X128467964Y-53771392D01*
X128465225Y-53766077D01*
X128451059Y-53736903D01*
X128448559Y-53731425D01*
X128435792Y-53701582D01*
X128433554Y-53695984D01*
X128428391Y-53682115D01*
X128422226Y-53665555D01*
X128420255Y-53659845D01*
X128410390Y-53628865D01*
X128408685Y-53623025D01*
X128401122Y-53594594D01*
X159198074Y-53594594D01*
X159199053Y-53600291D01*
X159199053Y-53600292D01*
X159228006Y-53768788D01*
X159235438Y-53812043D01*
X159311804Y-54019043D01*
X159314756Y-54024004D01*
X159314756Y-54024005D01*
X159409813Y-54183780D01*
X159424614Y-54208659D01*
X159570090Y-54374543D01*
X159743360Y-54511137D01*
X159938620Y-54613869D01*
X160149333Y-54679297D01*
X160155070Y-54679976D01*
X160324789Y-54700064D01*
X160324795Y-54700064D01*
X160328476Y-54700500D01*
X160455970Y-54700500D01*
X160619711Y-54685454D01*
X160625273Y-54683885D01*
X160625275Y-54683885D01*
X160725887Y-54655510D01*
X160832064Y-54625565D01*
X161029947Y-54527980D01*
X161052503Y-54511137D01*
X161202109Y-54399420D01*
X161202110Y-54399420D01*
X161206733Y-54395967D01*
X161305770Y-54288829D01*
X161352582Y-54238189D01*
X161352584Y-54238186D01*
X161356501Y-54233949D01*
X161474236Y-54047350D01*
X161555994Y-53842421D01*
X161557917Y-53832756D01*
X161597911Y-53631691D01*
X161597911Y-53631688D01*
X161599038Y-53626024D01*
X161599275Y-53607975D01*
X161600794Y-53491862D01*
X161601926Y-53405406D01*
X161600947Y-53399708D01*
X161565541Y-53193654D01*
X161565541Y-53193653D01*
X161564562Y-53187957D01*
X161488196Y-52980957D01*
X161375386Y-52791341D01*
X161229910Y-52625457D01*
X161056640Y-52488863D01*
X160861380Y-52386131D01*
X160650667Y-52320703D01*
X160636718Y-52319052D01*
X160475211Y-52299936D01*
X160475205Y-52299936D01*
X160471524Y-52299500D01*
X160344030Y-52299500D01*
X160180289Y-52314546D01*
X160174727Y-52316115D01*
X160174725Y-52316115D01*
X160074113Y-52344490D01*
X159967936Y-52374435D01*
X159770053Y-52472020D01*
X159765427Y-52475474D01*
X159765426Y-52475475D01*
X159742709Y-52492439D01*
X159593267Y-52604033D01*
X159443499Y-52766051D01*
X159325764Y-52952650D01*
X159244006Y-53157579D01*
X159242880Y-53163239D01*
X159242879Y-53163243D01*
X159204605Y-53355661D01*
X159200962Y-53373976D01*
X159200886Y-53379751D01*
X159200886Y-53379755D01*
X159199615Y-53476839D01*
X159198074Y-53594594D01*
X128401122Y-53594594D01*
X128400329Y-53591613D01*
X128398903Y-53585681D01*
X128392056Y-53553802D01*
X128390913Y-53547767D01*
X128388277Y-53531721D01*
X128385613Y-53515501D01*
X128384765Y-53509402D01*
X128384762Y-53509371D01*
X128381044Y-53476839D01*
X128380491Y-53470656D01*
X128380491Y-53470649D01*
X128378367Y-53437763D01*
X128378120Y-53431542D01*
X128378066Y-53427866D01*
X128377627Y-53398426D01*
X128377690Y-53392148D01*
X128378857Y-53358801D01*
X128379236Y-53352504D01*
X128382091Y-53319020D01*
X128382788Y-53312716D01*
X128387383Y-53278987D01*
X128388401Y-53272707D01*
X128394768Y-53238852D01*
X128396100Y-53232635D01*
X128398062Y-53224493D01*
X128404917Y-53205298D01*
X128405599Y-53202320D01*
X128411763Y-53189541D01*
X128411775Y-53175352D01*
X128414943Y-53161521D01*
X128415083Y-53161553D01*
X128416059Y-53154172D01*
X130722487Y-44546439D01*
X130759439Y-44485816D01*
X130823299Y-44454795D01*
X130860807Y-44454150D01*
X134587980Y-44949976D01*
X134642005Y-44957163D01*
X134641733Y-44959211D01*
X134645570Y-44959026D01*
X134645632Y-44958367D01*
X134650216Y-44958801D01*
X134662108Y-44959927D01*
X134666813Y-44960463D01*
X134683089Y-44962628D01*
X134683091Y-44962628D01*
X134682983Y-44963437D01*
X134686683Y-44964605D01*
X134686904Y-44962276D01*
X138746377Y-45346768D01*
X138746199Y-45348644D01*
X138750018Y-45348387D01*
X138750049Y-45347835D01*
X138754486Y-45348087D01*
X138754489Y-45348087D01*
X138757164Y-45348239D01*
X138757167Y-45348239D01*
X138764038Y-45348628D01*
X138766595Y-45348773D01*
X138771322Y-45349131D01*
X138787647Y-45350677D01*
X138787648Y-45350677D01*
X138787571Y-45351493D01*
X138791306Y-45352518D01*
X138791438Y-45350182D01*
X142859625Y-45580875D01*
X142859511Y-45582892D01*
X142863317Y-45582438D01*
X142863329Y-45581801D01*
X142867924Y-45581888D01*
X142867926Y-45581888D01*
X142879884Y-45582113D01*
X142884627Y-45582293D01*
X142896339Y-45582957D01*
X142899048Y-45583111D01*
X142901012Y-45583222D01*
X142901013Y-45583222D01*
X142900967Y-45584041D01*
X142904740Y-45584925D01*
X142904784Y-45582584D01*
X146977319Y-45659481D01*
X146977279Y-45661602D01*
X146981070Y-45660962D01*
X146981057Y-45660267D01*
X146997612Y-45659954D01*
X147002372Y-45659954D01*
X147014098Y-45660176D01*
X147014099Y-45660176D01*
X147018767Y-45660264D01*
X147018752Y-45661082D01*
X147022554Y-45661823D01*
X147022510Y-45659484D01*
X151095044Y-45582588D01*
X151095081Y-45584526D01*
X151098843Y-45583818D01*
X151098810Y-45583232D01*
X151098812Y-45583232D01*
X151100036Y-45583163D01*
X151103313Y-45582977D01*
X151103315Y-45582977D01*
X151115361Y-45582293D01*
X151120096Y-45582114D01*
X151135682Y-45581820D01*
X151136495Y-45581805D01*
X151136510Y-45582625D01*
X151140334Y-45583221D01*
X151140202Y-45580885D01*
X155208384Y-45350192D01*
X155208501Y-45352248D01*
X155212243Y-45351348D01*
X155212181Y-45350694D01*
X155216765Y-45350260D01*
X155216769Y-45350259D01*
X155219272Y-45350022D01*
X155219275Y-45350022D01*
X155228687Y-45349131D01*
X155233429Y-45348772D01*
X155237206Y-45348558D01*
X155245101Y-45348110D01*
X155245102Y-45348110D01*
X155247305Y-45347985D01*
X155249770Y-45347845D01*
X155249816Y-45348663D01*
X155253667Y-45349115D01*
X155253446Y-45346785D01*
X159312924Y-44962293D01*
X159313126Y-44964421D01*
X159316827Y-44963347D01*
X159316734Y-44962651D01*
X159316735Y-44962651D01*
X159319554Y-44962276D01*
X159321336Y-44962039D01*
X159321337Y-44962039D01*
X159333146Y-44960467D01*
X159337875Y-44959929D01*
X159337897Y-44959927D01*
X159340726Y-44959659D01*
X159347159Y-44959050D01*
X159347160Y-44959050D01*
X159349566Y-44958822D01*
X159349567Y-44958822D01*
X159354192Y-44958384D01*
X159354269Y-44959195D01*
X159358134Y-44959501D01*
X159357826Y-44957185D01*
X159412017Y-44949976D01*
X163139194Y-44454150D01*
X163209357Y-44464995D01*
G37*
%TD.AperFunction*%
%TD*%
M02*
